League Gothic Regular.ufo
<glyph name="quotedbl" format="1">
  <advance width="260"/>
  <unicode hex="0022"/>
  <outline>
    <contour>
      <point x="53" y="466" type="line"/>
      <point x="38" y="735" type="line"/>
      <point x="143" y="735" type="line"/>
      <point x="128" y="466" type="line"/>
    </contour>
    <contour>
      <point x="177" y="466" type="line"/>
      <point x="162" y="735" type="line"/>
      <point x="267" y="735" type="line"/>
      <point x="252" y="466" type="line"/>
    </contour>
  </outline>
</glyph>
<glyph name="numbersign" format="1">
  <advance width="602"/>
  <unicode hex="0023"/>
  <outline>
    <contour>
      <point x="37" y="309" type="line"/>
      <point x="134" y="309" type="line"/>
      <point x="152" y="435" type="line"/>
      <point x="56" y="435" type="line"/>
      <point x="69" y="530" type="line"/>
      <point x="165" y="530" type="line"/>
      <point x="193" y="735" type="line"/>
      <point x="289" y="735" type="line"/>
      <point x="261" y="530" type="line"/>
      <point x="388" y="530" type="line"/>
      <point x="416" y="735" type="line"/>
      <point x="512" y="735" type="line"/>
      <point x="484" y="530" type="line"/>
      <point x="578" y="530" type="line"/>
      <point x="565" y="435" type="line"/>
      <point x="471" y="435" type="line"/>
      <point x="453" y="309" type="line"/>
      <point x="546" y="309" type="line"/>
      <point x="533" y="214" type="line"/>
      <point x="440" y="214" type="line"/>
      <point x="411" y="0" type="line"/>
      <point x="315" y="0" type="line"/>
      <point x="344" y="214" type="line"/>
      <point x="217" y="214" type="line"/>
      <point x="188" y="0" type="line"/>
      <point x="92" y="0" type="line"/>
      <point x="121" y="214" type="line"/>
      <point x="24" y="214" type="line"/>
    </contour>
    <contour>
      <point x="230" y="309" type="line"/>
      <point x="357" y="309" type="line"/>
      <point x="375" y="435" type="line"/>
      <point x="248" y="435" type="line"/>
    </contour>
  </outline>
</glyph>
<glyph name="dollar" format="1">
  <advance width="338"/>
  <unicode hex="0024"/>
  <outline>
    <contour>
      <point x="200" y="795" type="line"/>
      <point x="200" y="734" type="line"/>
      <point x="240" y="730"/>
      <point x="266" y="712"/>
      <point x="284" y="687" type="curve" smooth="yes"/>
      <point x="302" y="662"/>
      <point x="311" y="629"/>
      <point x="315" y="596" type="curve"/>
      <point x="221" y="584" type="line"/>
      <point x="217" y="617"/>
      <point x="207" y="646"/>
      <point x="176" y="645" type="curve" smooth="yes"/>
      <point x="160" y="645"/>
      <point x="151" y="635"/>
      <point x="145" y="620" type="curve" smooth="yes"/>
      <point x="139" y="605"/>
      <point x="135" y="586"/>
      <point x="135" y="566" type="curve" smooth="yes"/>
      <point x="135" y="538"/>
      <point x="147" y="509"/>
      <point x="163" y="482" type="curve" smooth="yes"/>
      <point x="179" y="454"/>
      <point x="200" y="426"/>
      <point x="219" y="401" type="curve" smooth="yes"/>
      <point x="230" y="386"/>
      <point x="241" y="370"/>
      <point x="253" y="353" type="curve" smooth="yes"/>
      <point x="277" y="319"/>
      <point x="298" y="282"/>
      <point x="311" y="243" type="curve" smooth="yes"/>
      <point x="317" y="223"/>
      <point x="320" y="202"/>
      <point x="320" y="181" type="curve" smooth="yes"/>
      <point x="320" y="137"/>
      <point x="313" y="95"/>
      <point x="294" y="63" type="curve" smooth="yes"/>
      <point x="275" y="30"/>
      <point x="245" y="6"/>
      <point x="200" y="1" type="curve"/>
      <point x="200" y="-105" type="line"/>
      <point x="140" y="-105" type="line"/>
      <point x="140" y="3" type="line"/>
      <point x="96" y="11"/>
      <point x="67" y="33"/>
      <point x="48" y="64" type="curve" smooth="yes"/>
      <point x="29" y="95"/>
      <point x="19" y="134"/>
      <point x="18" y="175" type="curve"/>
      <point x="112" y="181" type="line"/>
      <point x="113" y="157"/>
      <point x="118" y="134"/>
      <point x="128" y="118" type="curve" smooth="yes"/>
      <point x="138" y="101"/>
      <point x="152" y="90"/>
      <point x="175" y="90" type="curve" smooth="yes"/>
      <point x="192" y="90"/>
      <point x="203" y="101"/>
      <point x="210" y="118" type="curve" smooth="yes"/>
      <point x="217" y="134"/>
      <point x="220" y="156"/>
      <point x="220" y="180" type="curve" smooth="yes"/>
      <point x="220" y="208"/>
      <point x="208" y="237"/>
      <point x="192" y="265" type="curve"/>
      <point x="183" y="279"/>
      <point x="174" y="293"/>
      <point x="165" y="306" type="curve"/>
      <point x="145" y="332"/>
      <point x="126" y="357"/>
      <point x="102" y="392" type="curve" smooth="yes"/>
      <point x="78" y="427"/>
      <point x="57" y="463"/>
      <point x="45" y="503" type="curve" smooth="yes"/>
      <point x="38" y="523"/>
      <point x="35" y="543"/>
      <point x="35" y="564" type="curve" smooth="yes"/>
      <point x="35" y="600"/>
      <point x="41" y="636"/>
      <point x="57" y="667" type="curve" smooth="yes"/>
      <point x="73" y="698"/>
      <point x="100" y="722"/>
      <point x="140" y="731" type="curve"/>
      <point x="140" y="795" type="line"/>
    </contour>
  </outline>
</glyph>
<glyph name="percent" format="1">
  <advance width="489"/>
  <unicode hex="0025"/>
  <outline>
    <contour>
      <point x="77" y="0" type="line"/>
      <point x="347" y="735" type="line"/>
      <point x="411" y="735" type="line"/>
      <point x="144" y="0" type="line"/>
    </contour>
    <contour>
      <point x="122" y="658" type="line" smooth="yes"/>
      <point x="122" y="667"/>
      <point x="119" y="675"/>
      <point x="115" y="681" type="curve" smooth="yes"/>
      <point x="113" y="684"/>
      <point x="110" y="685"/>
      <point x="105" y="685" type="curve" smooth="yes"/>
      <point x="94" y="685"/>
      <point x="91" y="678"/>
      <point x="88" y="671" type="curve"/>
      <point x="87" y="667"/>
      <point x="86" y="663"/>
      <point x="87" y="658" type="curve"/>
      <point x="87" y="445" type="line"/>
      <point x="86" y="434"/>
      <point x="88" y="418"/>
      <point x="105" y="418" type="curve" smooth="yes"/>
      <point x="120" y="418"/>
      <point x="122" y="434"/>
      <point x="122" y="445" type="curve" smooth="yes"/>
    </contour>
    <contour>
      <point x="403" y="290" type="line" smooth="yes"/>
      <point x="403" y="299"/>
      <point x="400" y="307"/>
      <point x="396" y="313" type="curve" smooth="yes"/>
      <point x="394" y="316"/>
      <point x="391" y="317"/>
      <point x="386" y="317" type="curve" smooth="yes"/>
      <point x="375" y="317"/>
      <point x="372" y="310"/>
      <point x="369" y="303" type="curve"/>
      <point x="368" y="299"/>
      <point x="367" y="295"/>
      <point x="368" y="290" type="curve"/>
      <point x="368" y="77" type="line"/>
      <point x="367" y="66"/>
      <point x="370" y="60"/>
      <point x="375" y="54" type="curve"/>
      <point x="377" y="51"/>
      <point x="381" y="49"/>
      <point x="386" y="49" type="curve" smooth="yes"/>
      <point x="395" y="49"/>
      <point x="398" y="56"/>
      <point x="401" y="63" type="curve"/>
      <point x="402" y="67"/>
      <point x="403" y="72"/>
      <point x="403" y="77" type="curve" smooth="yes"/>
    </contour>
    <contour>
      <point x="182" y="445" type="line" smooth="yes"/>
      <point x="181" y="412"/>
      <point x="169" y="389"/>
      <point x="149" y="372" type="curve" smooth="yes"/>
      <point x="139" y="363"/>
      <point x="124" y="359"/>
      <point x="105" y="359" type="curve" smooth="yes"/>
      <point x="65" y="359"/>
      <point x="47" y="379"/>
      <point x="36" y="402" type="curve" smooth="yes"/>
      <point x="30" y="414"/>
      <point x="27" y="428"/>
      <point x="27" y="445" type="curve" smooth="yes"/>
      <point x="27" y="658" type="line" smooth="yes"/>
      <point x="27" y="690"/>
      <point x="39" y="712"/>
      <point x="60" y="730" type="curve" smooth="yes"/>
      <point x="70" y="739"/>
      <point x="85" y="743"/>
      <point x="105" y="743" type="curve" smooth="yes"/>
      <point x="144" y="743"/>
      <point x="161" y="721"/>
      <point x="172" y="700" type="curve" smooth="yes"/>
      <point x="178" y="688"/>
      <point x="181" y="674"/>
      <point x="182" y="658" type="curve"/>
    </contour>
    <contour>
      <point x="463" y="77" type="line" smooth="yes"/>
      <point x="462" y="44"/>
      <point x="450" y="22"/>
      <point x="430" y="5" type="curve" smooth="yes"/>
      <point x="420" y="-4"/>
      <point x="405" y="-8"/>
      <point x="386" y="-8" type="curve" smooth="yes"/>
      <point x="346" y="-8"/>
      <point x="328" y="13"/>
      <point x="317" y="34" type="curve" smooth="yes"/>
      <point x="311" y="46"/>
      <point x="308" y="60"/>
      <point x="308" y="77" type="curve" smooth="yes"/>
      <point x="308" y="290" type="line" smooth="yes"/>
      <point x="308" y="322"/>
      <point x="320" y="345"/>
      <point x="341" y="363" type="curve" smooth="yes"/>
      <point x="351" y="372"/>
      <point x="366" y="376"/>
      <point x="386" y="376" type="curve" smooth="yes"/>
      <point x="425" y="376"/>
      <point x="442" y="354"/>
      <point x="453" y="333" type="curve"/>
      <point x="459" y="320"/>
      <point x="462" y="306"/>
      <point x="463" y="290" type="curve"/>
    </contour>
  </outline>
</glyph>
<glyph name="ampersand" format="1">
  <advance width="417"/>
  <unicode hex="0026"/>
  <outline>
    <contour>
      <point x="24" y="237"/>
      <point x="66" y="304"/>
      <point x="107" y="367" type="curve"/>
      <point x="72" y="439"/>
      <point x="55" y="506"/>
      <point x="55" y="583" type="curve" smooth="yes"/>
      <point x="56" y="643"/>
      <point x="73" y="685"/>
      <point x="109" y="718" type="curve" smooth="yes"/>
      <point x="127" y="735"/>
      <point x="153" y="743"/>
      <point x="187" y="743" type="curve" smooth="yes"/>
      <point x="255" y="743"/>
      <point x="287" y="703"/>
      <point x="302" y="663" type="curve" smooth="yes"/>
      <point x="319" y="616"/>
      <point x="326" y="553"/>
      <point x="288" y="482" type="curve" smooth="yes"/>
      <point x="269" y="446"/>
      <point x="245" y="409"/>
      <point x="216" y="371" type="curve"/>
      <point x="248" y="298"/>
      <point x="269" y="260"/>
      <point x="288" y="232" type="curve"/>
      <point x="301" y="269"/>
      <point x="308" y="318"/>
      <point x="311" y="335" type="curve"/>
      <point x="397" y="319" type="line"/>
      <point x="396" y="306"/>
      <point x="393" y="277"/>
      <point x="386" y="245" type="curve" smooth="yes"/>
      <point x="379" y="213"/>
      <point x="368" y="176"/>
      <point x="352" y="144" type="curve"/>
      <point x="363" y="132"/>
      <point x="372" y="123"/>
      <point x="380" y="118" type="curve"/>
      <point x="388" y="112"/>
      <point x="394" y="108"/>
      <point x="397" y="107" type="curve"/>
      <point x="397" y="-8" type="line"/>
      <point x="394" y="-8"/>
      <point x="390" y="-7"/>
      <point x="383" y="-4" type="curve"/>
      <point x="370" y="1"/>
      <point x="351" y="13"/>
      <point x="328" y="30" type="curve" smooth="yes"/>
      <point x="317" y="38"/>
      <point x="306" y="48"/>
      <point x="295" y="60" type="curve"/>
      <point x="259" y="19"/>
      <point x="217" y="-8"/>
      <point x="172" y="-8" type="curve" smooth="yes"/>
      <point x="129" y="-8"/>
      <point x="92" y="11"/>
      <point x="66" y="41" type="curve" smooth="yes"/>
      <point x="40" y="71"/>
      <point x="24" y="110"/>
      <point x="24" y="154" type="curve" smooth="yes"/>
    </contour>
    <contour>
      <point x="211" y="171"/>
      <point x="184" y="215"/>
      <point x="153" y="272" type="curve"/>
      <point x="142" y="255"/>
      <point x="136" y="235"/>
      <point x="131" y="207" type="curve" smooth="yes"/>
      <point x="126" y="178"/>
      <point x="125" y="134"/>
      <point x="143" y="107" type="curve" smooth="yes"/>
      <point x="152" y="93"/>
      <point x="163" y="86"/>
      <point x="177" y="86" type="curve" smooth="yes"/>
      <point x="204" y="86"/>
      <point x="219" y="104"/>
      <point x="238" y="128" type="curve"/>
    </contour>
    <contour>
      <point x="226" y="611"/>
      <point x="222" y="631"/>
      <point x="211" y="646" type="curve" smooth="yes"/>
      <point x="206" y="653"/>
      <point x="198" y="657"/>
      <point x="187" y="657" type="curve" smooth="yes"/>
      <point x="166" y="657"/>
      <point x="156" y="639"/>
      <point x="152" y="620" type="curve" smooth="yes"/>
      <point x="147" y="597"/>
      <point x="147" y="561"/>
      <point x="156" y="524" type="curve" smooth="yes"/>
      <point x="160" y="505"/>
      <point x="167" y="485"/>
      <point x="176" y="463" type="curve"/>
      <point x="200" y="500"/>
      <point x="225" y="547"/>
      <point x="225" y="586" type="curve"/>
    </contour>
  </outline>
</glyph>
<glyph name="quotesingle" format="1">
  <advance width="151"/>
  <unicode hex="0027"/>
  <outline>
    <contour>
      <point x="43" y="466" type="line"/>
      <point x="28" y="735" type="line"/>
      <point x="133" y="735" type="line"/>
      <point x="118" y="466" type="line"/>
    </contour>
  </outline>
</glyph>
<glyph name="parenleft" format="1">
  <advance width="274"/>
  <unicode hex="0028"/>
  <outline>
    <contour>
      <point x="254" y="735" type="line"/>
      <point x="206" y="666"/>
      <point x="174" y="588"/>
      <point x="148" y="486" type="curve" smooth="yes"/>
      <point x="135" y="435"/>
      <point x="128" y="378"/>
      <point x="128" y="315" type="curve" smooth="yes"/>
      <point x="128" y="190"/>
      <point x="159" y="87"/>
      <point x="191" y="12" type="curve" smooth="yes"/>
      <point x="209" y="-31"/>
      <point x="230" y="-70"/>
      <point x="254" y="-104" type="curve"/>
      <point x="175" y="-145" type="line"/>
      <point x="122" y="-62"/>
      <point x="83" y="26"/>
      <point x="54" y="138" type="curve" smooth="yes"/>
      <point x="39" y="193"/>
      <point x="32" y="252"/>
      <point x="32" y="315" type="curve" smooth="yes"/>
      <point x="32" y="440"/>
      <point x="67" y="555"/>
      <point x="103" y="639" type="curve" smooth="yes"/>
      <point x="124" y="688"/>
      <point x="148" y="734"/>
      <point x="175" y="776" type="curve"/>
    </contour>
  </outline>
</glyph>
<glyph name="hyphen" format="1">
  <advance width="217"/>
  <unicode hex="002D"/>
  <outline>
    <contour>
      <point x="36" y="317" type="line"/>
      <point x="181" y="317" type="line"/>
      <point x="181" y="222" type="line"/>
      <point x="36" y="222" type="line"/>
    </contour>
  </outline>
</glyph>
<glyph name="slash" format="1">
  <advance width="352"/>
  <unicode hex="002F"/>
  <outline>
    <contour>
      <point x="269" y="735" type="line"/>
      <point x="348" y="735" type="line"/>
      <point x="86" y="-72" type="line"/>
      <point x="4" y="-72" type="line"/>
    </contour>
  </outline>
</glyph>
<glyph name="two" format="1">
  <advance width="357"/>
  <unicode hex="0032"/>
  <outline>
    <contour>
      <point x="30" y="502" type="line"/>
      <point x="30" y="553" type="line" smooth="yes"/>
      <point x="30" y="602"/>
      <point x="37" y="650"/>
      <point x="58" y="685" type="curve" smooth="yes"/>
      <point x="79" y="720"/>
      <point x="115" y="743"/>
      <point x="174" y="743" type="curve" smooth="yes"/>
      <point x="229" y="743"/>
      <point x="266" y="722"/>
      <point x="288" y="690" type="curve" smooth="yes"/>
      <point x="310" y="657"/>
      <point x="318" y="611"/>
      <point x="318" y="560" type="curve" smooth="yes"/>
      <point x="318" y="485"/>
      <point x="290" y="396"/>
      <point x="255" y="313" type="curve" smooth="yes"/>
      <point x="219" y="229"/>
      <point x="177" y="154"/>
      <point x="149" y="107" type="curve"/>
      <point x="320" y="107" type="line"/>
      <point x="320" y="0" type="line"/>
      <point x="27" y="0" type="line"/>
      <point x="27" y="107" type="line"/>
      <point x="60" y="158"/>
      <point x="90" y="210"/>
      <point x="117" y="262" type="curve" smooth="yes"/>
      <point x="140" y="306"/>
      <point x="162" y="356"/>
      <point x="179" y="407" type="curve" smooth="yes"/>
      <point x="196" y="458"/>
      <point x="209" y="508"/>
      <point x="210" y="553" type="curve" smooth="yes"/>
      <point x="210" y="573"/>
      <point x="209" y="596"/>
      <point x="204" y="613" type="curve" smooth="yes"/>
      <point x="199" y="630"/>
      <point x="190" y="643"/>
      <point x="174" y="643" type="curve" smooth="yes"/>
      <point x="159" y="643"/>
      <point x="150" y="632"/>
      <point x="145" y="616" type="curve" smooth="yes"/>
      <point x="140" y="599"/>
      <point x="138" y="577"/>
      <point x="138" y="553" type="curve" smooth="yes"/>
      <point x="138" y="502" type="line"/>
    </contour>
  </outline>
</glyph>
<glyph name="three" format="1">
  <advance width="335"/>
  <unicode hex="0033"/>
  <outline>
    <contour>
      <point x="112" y="332" type="line"/>
      <point x="112" y="422" type="line"/>
      <point x="157" y="425"/>
      <point x="178" y="434"/>
      <point x="187" y="455" type="curve"/>
      <point x="192" y="465"/>
      <point x="194" y="478"/>
      <point x="194" y="494" type="curve" smooth="yes"/>
      <point x="194" y="510"/>
      <point x="194" y="530"/>
      <point x="194" y="553" type="curve" smooth="yes"/>
      <point x="194" y="574"/>
      <point x="194" y="597"/>
      <point x="190" y="616" type="curve" smooth="yes"/>
      <point x="186" y="635"/>
      <point x="177" y="648"/>
      <point x="160" y="648" type="curve" smooth="yes"/>
      <point x="147" y="648"/>
      <point x="139" y="642"/>
      <point x="135" y="623" type="curve"/>
      <point x="130" y="603"/>
      <point x="128" y="572"/>
      <point x="128" y="523" type="curve"/>
      <point x="22" y="523" type="line"/>
      <point x="22" y="564"/>
      <point x="23" y="620"/>
      <point x="41" y="665" type="curve" smooth="yes"/>
      <point x="59" y="709"/>
      <point x="92" y="743"/>
      <point x="160" y="743" type="curve" smooth="yes"/>
      <point x="228" y="743"/>
      <point x="263" y="708"/>
      <point x="281" y="671" type="curve" smooth="yes"/>
      <point x="299" y="634"/>
      <point x="300" y="594"/>
      <point x="300" y="585" type="curve" smooth="yes"/>
      <point x="300" y="476"/>
      <point x="281" y="424"/>
      <point x="248" y="391" type="curve" smooth="yes"/>
      <point x="247" y="390" type="line"/>
      <point x="299" y="349"/>
      <point x="309" y="273"/>
      <point x="309" y="188" type="curve" smooth="yes"/>
      <point x="309" y="185"/>
      <point x="309" y="178"/>
      <point x="308" y="167" type="curve"/>
      <point x="307" y="146"/>
      <point x="301" y="115"/>
      <point x="290" y="83" type="curve" smooth="yes"/>
      <point x="278" y="51"/>
      <point x="258" y="22"/>
      <point x="227" y="5" type="curve" smooth="yes"/>
      <point x="211" y="-4"/>
      <point x="192" y="-8"/>
      <point x="169" y="-8" type="curve" smooth="yes"/>
      <point x="101" y="-8"/>
      <point x="66" y="26"/>
      <point x="47" y="71" type="curve" smooth="yes"/>
      <point x="28" y="115"/>
      <point x="26" y="171"/>
      <point x="26" y="212" type="curve"/>
      <point x="132" y="212" type="line"/>
      <point x="132" y="163"/>
      <point x="135" y="132"/>
      <point x="141" y="113" type="curve" smooth="yes"/>
      <point x="147" y="93"/>
      <point x="156" y="87"/>
      <point x="169" y="87" type="curve" smooth="yes"/>
      <point x="186" y="87"/>
      <point x="195" y="100"/>
      <point x="199" y="118" type="curve" smooth="yes"/>
      <point x="203" y="136"/>
      <point x="203" y="159"/>
      <point x="203" y="180" type="curve" smooth="yes"/>
      <point x="203" y="203"/>
      <point x="203" y="224"/>
      <point x="204" y="243" type="curve"/>
      <point x="204" y="279"/>
      <point x="197" y="304"/>
      <point x="174" y="319" type="curve"/>
      <point x="162" y="326"/>
      <point x="144" y="331"/>
      <point x="121" y="332" type="curve"/>
    </contour>
  </outline>
</glyph>
<glyph name="five" format="1">
  <advance width="344"/>
  <unicode hex="0035"/>
  <outline>
    <contour>
      <point x="144" y="148"/>
      <point x="146" y="122"/>
      <point x="151" y="108" type="curve" smooth="yes"/>
      <point x="156" y="93"/>
      <point x="164" y="86"/>
      <point x="177" y="86" type="curve" smooth="yes"/>
      <point x="188" y="86"/>
      <point x="197" y="93"/>
      <point x="202" y="107" type="curve" smooth="yes"/>
      <point x="207" y="121"/>
      <point x="210" y="147"/>
      <point x="210" y="184" type="curve" smooth="yes"/>
      <point x="210" y="348" type="line" smooth="yes"/>
      <point x="210" y="379"/>
      <point x="199" y="402"/>
      <point x="176" y="402" type="curve" smooth="yes"/>
      <point x="164" y="402"/>
      <point x="154" y="393"/>
      <point x="146" y="382" type="curve"/>
      <point x="138" y="370"/>
      <point x="134" y="356"/>
      <point x="134" y="348" type="curve"/>
      <point x="43" y="348" type="line"/>
      <point x="43" y="735" type="line"/>
      <point x="304" y="735" type="line"/>
      <point x="304" y="628" type="line"/>
      <point x="136" y="628" type="line"/>
      <point x="136" y="475" type="line"/>
      <point x="148" y="484"/>
      <point x="161" y="492"/>
      <point x="176" y="497" type="curve"/>
      <point x="183" y="500"/>
      <point x="191" y="501"/>
      <point x="198" y="500" type="curve"/>
      <point x="254" y="500"/>
      <point x="284" y="468"/>
      <point x="300" y="433" type="curve" smooth="yes"/>
      <point x="316" y="398"/>
      <point x="318" y="360"/>
      <point x="318" y="348" type="curve" smooth="yes"/>
      <point x="318" y="184" type="line" smooth="yes"/>
      <point x="318" y="149"/>
      <point x="316" y="102"/>
      <point x="297" y="63" type="curve" smooth="yes"/>
      <point x="278" y="23"/>
      <point x="242" y="-8"/>
      <point x="177" y="-8" type="curve" smooth="yes"/>
      <point x="110" y="-8"/>
      <point x="76" y="23"/>
      <point x="57" y="67" type="curve" smooth="yes"/>
      <point x="38" y="110"/>
      <point x="36" y="165"/>
      <point x="36" y="214" type="curve"/>
      <point x="144" y="214" type="line"/>
      <point x="144" y="185" type="line" smooth="yes"/>
    </contour>
  </outline>
</glyph>
<glyph name="six" format="1">
  <advance width="342"/>
  <unicode hex="0036"/>
  <outline>
    <contour>
      <point x="314" y="151" type="line" smooth="yes"/>
      <point x="314" y="134"/>
      <point x="312" y="94"/>
      <point x="293" y="59" type="curve" smooth="yes"/>
      <point x="274" y="23"/>
      <point x="238" y="-8"/>
      <point x="173" y="-8" type="curve" smooth="yes"/>
      <point x="106" y="-8"/>
      <point x="72" y="23"/>
      <point x="53" y="59" type="curve" smooth="yes"/>
      <point x="34" y="94"/>
      <point x="32" y="134"/>
      <point x="32" y="151" type="curve" smooth="yes"/>
      <point x="32" y="569" type="line" smooth="yes"/>
      <point x="32" y="594"/>
      <point x="33" y="639"/>
      <point x="52" y="676" type="curve" smooth="yes"/>
      <point x="71" y="712"/>
      <point x="105" y="743"/>
      <point x="173" y="743" type="curve" smooth="yes"/>
      <point x="241" y="743"/>
      <point x="275" y="712"/>
      <point x="294" y="676" type="curve" smooth="yes"/>
      <point x="313" y="639"/>
      <point x="314" y="594"/>
      <point x="314" y="569" type="curve" smooth="yes"/>
      <point x="314" y="523" type="line"/>
      <point x="206" y="523" type="line"/>
      <point x="206" y="572"/>
      <point x="205" y="604"/>
      <point x="201" y="623" type="curve" smooth="yes"/>
      <point x="197" y="642"/>
      <point x="189" y="649"/>
      <point x="173" y="649" type="curve" smooth="yes"/>
      <point x="160" y="649"/>
      <point x="151" y="643"/>
      <point x="147" y="630" type="curve"/>
      <point x="142" y="617"/>
      <point x="140" y="597"/>
      <point x="140" y="569" type="curve" smooth="yes"/>
      <point x="140" y="438" type="line"/>
      <point x="159" y="449"/>
      <point x="175" y="456"/>
      <point x="194" y="456" type="curve" smooth="yes"/>
      <point x="250" y="456"/>
      <point x="280" y="427"/>
      <point x="296" y="394" type="curve" smooth="yes"/>
      <point x="312" y="361"/>
      <point x="314" y="321"/>
      <point x="314" y="301" type="curve" smooth="yes"/>
    </contour>
    <contour>
      <point x="140" y="119" type="line" smooth="yes"/>
      <point x="140" y="110"/>
      <point x="148" y="86"/>
      <point x="173" y="86" type="curve" smooth="yes"/>
      <point x="196" y="86"/>
      <point x="206" y="110"/>
      <point x="206" y="119" type="curve" smooth="yes"/>
      <point x="206" y="339" type="line" smooth="yes"/>
      <point x="206" y="348"/>
      <point x="196" y="372"/>
      <point x="173" y="372" type="curve" smooth="yes"/>
      <point x="150" y="372"/>
      <point x="141" y="353"/>
      <point x="140" y="342" type="curve"/>
    </contour>
  </outline>
</glyph>
<glyph name="eight" format="1">
  <advance width="340"/>
  <unicode hex="0038"/>
  <outline>
    <contour>
      <point x="314" y="157" type="line" smooth="yes"/>
      <point x="314" y="150"/>
      <point x="313" y="130"/>
      <point x="308" y="106" type="curve" smooth="yes"/>
      <point x="303" y="81"/>
      <point x="291" y="53"/>
      <point x="270" y="31" type="curve" smooth="yes"/>
      <point x="249" y="9"/>
      <point x="217" y="-8"/>
      <point x="170" y="-8" type="curve" smooth="yes"/>
      <point x="123" y="-8"/>
      <point x="91" y="9"/>
      <point x="70" y="31" type="curve" smooth="yes"/>
      <point x="49" y="53"/>
      <point x="37" y="81"/>
      <point x="32" y="106" type="curve" smooth="yes"/>
      <point x="27" y="130"/>
      <point x="26" y="150"/>
      <point x="26" y="157" type="curve" smooth="yes"/>
      <point x="26" y="243" type="line" smooth="yes"/>
      <point x="26" y="298"/>
      <point x="45" y="353"/>
      <point x="82" y="388" type="curve"/>
      <point x="49" y="421"/>
      <point x="32" y="472"/>
      <point x="32" y="523" type="curve" smooth="yes"/>
      <point x="32" y="585" type="line" smooth="yes"/>
      <point x="32" y="594"/>
      <point x="33" y="634"/>
      <point x="51" y="671" type="curve" smooth="yes"/>
      <point x="69" y="708"/>
      <point x="102" y="743"/>
      <point x="170" y="743" type="curve" smooth="yes"/>
      <point x="238" y="743"/>
      <point x="272" y="708"/>
      <point x="290" y="671" type="curve" smooth="yes"/>
      <point x="308" y="634"/>
      <point x="308" y="594"/>
      <point x="308" y="585" type="curve" smooth="yes"/>
      <point x="308" y="523" type="line" smooth="yes"/>
      <point x="308" y="472"/>
      <point x="291" y="421"/>
      <point x="258" y="388" type="curve"/>
      <point x="295" y="353"/>
      <point x="314" y="298"/>
      <point x="314" y="243" type="curve" smooth="yes"/>
    </contour>
    <contour>
      <point x="202" y="547" type="curve" smooth="yes"/>
      <point x="202" y="581"/>
      <point x="200" y="606"/>
      <point x="197" y="623" type="curve"/>
      <point x="193" y="640"/>
      <point x="184" y="648"/>
      <point x="170" y="648" type="curve" smooth="yes"/>
      <point x="158" y="648"/>
      <point x="150" y="641"/>
      <point x="146" y="626" type="curve" smooth="yes"/>
      <point x="137" y="597"/>
      <point x="136" y="498"/>
      <point x="144" y="463" type="curve"/>
      <point x="147" y="445"/>
      <point x="156" y="436"/>
      <point x="170" y="436" type="curve" smooth="yes"/>
      <point x="184" y="436"/>
      <point x="193" y="445"/>
      <point x="197" y="463" type="curve" smooth="yes"/>
      <point x="200" y="480"/>
      <point x="202" y="508"/>
    </contour>
    <contour>
      <point x="209" y="200" type="curve" smooth="yes"/>
      <point x="209" y="244"/>
      <point x="207" y="277"/>
      <point x="204" y="298" type="curve" smooth="yes"/>
      <point x="200" y="319"/>
      <point x="189" y="330"/>
      <point x="170" y="330" type="curve" smooth="yes"/>
      <point x="151" y="330"/>
      <point x="140" y="319"/>
      <point x="137" y="298" type="curve" smooth="yes"/>
      <point x="129" y="255"/>
      <point x="130" y="148"/>
      <point x="140" y="116" type="curve" smooth="yes"/>
      <point x="145" y="99"/>
      <point x="155" y="91"/>
      <point x="170" y="91" type="curve" smooth="yes"/>
      <point x="189" y="91"/>
      <point x="200" y="101"/>
      <point x="204" y="120" type="curve"/>
      <point x="207" y="139"/>
      <point x="209" y="166"/>
    </contour>
  </outline>
</glyph>
<glyph name="nine" format="1">
  <advance width="342"/>
  <unicode hex="0039"/>
  <outline>
    <contour>
      <point x="28" y="584" type="line" smooth="yes"/>
      <point x="28" y="601"/>
      <point x="30" y="641"/>
      <point x="49" y="677" type="curve" smooth="yes"/>
      <point x="68" y="712"/>
      <point x="102" y="743"/>
      <point x="169" y="743" type="curve" smooth="yes"/>
      <point x="234" y="743"/>
      <point x="270" y="712"/>
      <point x="289" y="677" type="curve" smooth="yes"/>
      <point x="308" y="641"/>
      <point x="310" y="601"/>
      <point x="310" y="584" type="curve" smooth="yes"/>
      <point x="310" y="166" type="line" smooth="yes"/>
      <point x="310" y="139"/>
      <point x="309" y="96"/>
      <point x="290" y="60" type="curve" smooth="yes"/>
      <point x="271" y="23"/>
      <point x="237" y="-8"/>
      <point x="169" y="-8" type="curve" smooth="yes"/>
      <point x="101" y="-8"/>
      <point x="67" y="23"/>
      <point x="48" y="60" type="curve" smooth="yes"/>
      <point x="29" y="96"/>
      <point x="28" y="139"/>
      <point x="28" y="166" type="curve" smooth="yes"/>
      <point x="28" y="212" type="line"/>
      <point x="136" y="212" type="line"/>
      <point x="136" y="163"/>
      <point x="137" y="131"/>
      <point x="141" y="112" type="curve" smooth="yes"/>
      <point x="145" y="93"/>
      <point x="153" y="86"/>
      <point x="169" y="86" type="curve" smooth="yes"/>
      <point x="182" y="86"/>
      <point x="191" y="92"/>
      <point x="196" y="105" type="curve"/>
      <point x="200" y="118"/>
      <point x="202" y="138"/>
      <point x="202" y="166" type="curve" smooth="yes"/>
      <point x="202" y="304" type="line"/>
      <point x="183" y="293"/>
      <point x="167" y="286"/>
      <point x="148" y="286" type="curve" smooth="yes"/>
      <point x="92" y="286"/>
      <point x="62" y="315"/>
      <point x="46" y="348" type="curve" smooth="yes"/>
      <point x="30" y="381"/>
      <point x="28" y="421"/>
      <point x="28" y="441" type="curve" smooth="yes"/>
    </contour>
    <contour>
      <point x="202" y="616" type="line" smooth="yes"/>
      <point x="202" y="625"/>
      <point x="194" y="649"/>
      <point x="169" y="649" type="curve" smooth="yes"/>
      <point x="146" y="649"/>
      <point x="136" y="625"/>
      <point x="136" y="616" type="curve" smooth="yes"/>
      <point x="136" y="403" type="line" smooth="yes"/>
      <point x="136" y="394"/>
      <point x="146" y="370"/>
      <point x="169" y="370" type="curve" smooth="yes"/>
      <point x="192" y="370"/>
      <point x="201" y="389"/>
      <point x="202" y="400" type="curve"/>
    </contour>
  </outline>
</glyph>
<glyph name="less" format="1">
  <advance width="517"/>
  <unicode hex="003C"/>
  <outline>
    <contour>
      <point x="36" y="395" type="line"/>
      <point x="481" y="627" type="line"/>
      <point x="481" y="530" type="line"/>
      <point x="140" y="356" type="line"/>
      <point x="481" y="182" type="line"/>
      <point x="481" y="85" type="line"/>
      <point x="36" y="317" type="line"/>
    </contour>
  </outline>
</glyph>
<glyph name="equal" format="1">
  <advance width="517"/>
  <unicode hex="003D"/>
  <outline>
    <contour>
      <point x="36" y="317" type="line"/>
      <point x="481" y="317" type="line"/>
      <point x="481" y="233" type="line"/>
      <point x="36" y="233" type="line"/>
    </contour>
    <contour>
      <point x="36" y="506" type="line"/>
      <point x="481" y="506" type="line"/>
      <point x="481" y="422" type="line"/>
      <point x="36" y="422" type="line"/>
    </contour>
  </outline>
</glyph>
<glyph name="question" format="1">
  <advance width="315"/>
  <unicode hex="003F"/>
  <outline>
    <contour>
      <point x="97" y="111" type="line"/>
      <point x="202" y="111" type="line"/>
      <point x="202" y="0" type="line"/>
      <point x="97" y="0" type="line"/>
    </contour>
    <contour>
      <point x="103" y="198" type="line"/>
      <point x="103" y="323" type="line" smooth="yes"/>
      <point x="103" y="376"/>
      <point x="112" y="419"/>
      <point x="125" y="455" type="curve" smooth="yes"/>
      <point x="138" y="491"/>
      <point x="155" y="519"/>
      <point x="170" y="544" type="curve" smooth="yes"/>
      <point x="184" y="567"/>
      <point x="193" y="586"/>
      <point x="196" y="599" type="curve"/>
      <point x="197" y="606"/>
      <point x="196" y="617"/>
      <point x="192" y="627" type="curve"/>
      <point x="187" y="637"/>
      <point x="178" y="645"/>
      <point x="163" y="645" type="curve" smooth="yes"/>
      <point x="144" y="645"/>
      <point x="131" y="633"/>
      <point x="120" y="618" type="curve" smooth="yes"/>
      <point x="109" y="602"/>
      <point x="102" y="583"/>
      <point x="99" y="574" type="curve"/>
      <point x="12" y="615" type="line"/>
      <point x="17" y="631"/>
      <point x="34" y="662"/>
      <point x="59" y="690" type="curve" smooth="yes"/>
      <point x="83" y="717"/>
      <point x="118" y="740"/>
      <point x="165" y="739" type="curve" smooth="yes"/>
      <point x="221" y="738"/>
      <point x="255" y="713"/>
      <point x="273" y="683" type="curve" smooth="yes"/>
      <point x="291" y="653"/>
      <point x="295" y="619"/>
      <point x="295" y="599" type="curve" smooth="yes"/>
      <point x="295" y="558"/>
      <point x="277" y="528"/>
      <point x="256" y="492" type="curve" smooth="yes"/>
      <point x="250" y="482"/>
      <point x="244" y="471"/>
      <point x="237" y="460" type="curve"/>
      <point x="223" y="436"/>
      <point x="210" y="408"/>
      <point x="202" y="376" type="curve" smooth="yes"/>
      <point x="198" y="359"/>
      <point x="196" y="342"/>
      <point x="196" y="323" type="curve" smooth="yes"/>
      <point x="196" y="198" type="line"/>
    </contour>
  </outline>
</glyph>
<glyph name="at" format="1">
  <advance width="426"/>
  <unicode hex="0040"/>
  <outline>
    <contour>
      <point x="398" y="195" type="line"/>
      <point x="318" y="195" type="line"/>
      <point x="308" y="222" type="line"/>
      <point x="301" y="209"/>
      <point x="292" y="201"/>
      <point x="278" y="194" type="curve"/>
      <point x="271" y="191"/>
      <point x="262" y="189"/>
      <point x="253" y="189" type="curve" smooth="yes"/>
      <point x="200" y="189"/>
      <point x="182" y="226"/>
      <point x="182" y="273" type="curve" smooth="yes"/>
      <point x="182" y="510" type="line" smooth="yes"/>
      <point x="182" y="555"/>
      <point x="200" y="593"/>
      <point x="253" y="593" type="curve" smooth="yes"/>
      <point x="272" y="593"/>
      <point x="286" y="584"/>
      <point x="295" y="576" type="curve"/>
      <point x="300" y="571"/>
      <point x="305" y="566"/>
      <point x="308" y="560" type="curve"/>
      <point x="308" y="582" type="line" smooth="yes"/>
      <point x="308" y="593"/>
      <point x="304" y="612"/>
      <point x="290" y="629" type="curve" smooth="yes"/>
      <point x="276" y="645"/>
      <point x="252" y="659"/>
      <point x="215" y="659" type="curve" smooth="yes"/>
      <point x="178" y="659"/>
      <point x="155" y="645"/>
      <point x="141" y="629" type="curve" smooth="yes"/>
      <point x="127" y="612"/>
      <point x="122" y="593"/>
      <point x="122" y="582" type="curve" smooth="yes"/>
      <point x="122" y="148" type="line" smooth="yes"/>
      <point x="122" y="136"/>
      <point x="127" y="117"/>
      <point x="141" y="102" type="curve" smooth="yes"/>
      <point x="155" y="86"/>
      <point x="178" y="73"/>
      <point x="215" y="73" type="curve" smooth="yes"/>
      <point x="258" y="73"/>
      <point x="281" y="84"/>
      <point x="297" y="104" type="curve"/>
      <point x="371" y="62" type="line"/>
      <point x="344" y="26"/>
      <point x="299" y="-8"/>
      <point x="215" y="-8" type="curve" smooth="yes"/>
      <point x="142" y="-8"/>
      <point x="96" y="20"/>
      <point x="69" y="53" type="curve" smooth="yes"/>
      <point x="41" y="86"/>
      <point x="32" y="125"/>
      <point x="32" y="148" type="curve" smooth="yes"/>
      <point x="32" y="582" type="line" smooth="yes"/>
      <point x="32" y="606"/>
      <point x="41" y="647"/>
      <point x="69" y="681" type="curve" smooth="yes"/>
      <point x="96" y="715"/>
      <point x="142" y="743"/>
      <point x="215" y="743" type="curve" smooth="yes"/>
      <point x="288" y="743"/>
      <point x="334" y="715"/>
      <point x="362" y="681" type="curve" smooth="yes"/>
      <point x="389" y="647"/>
      <point x="398" y="606"/>
      <point x="398" y="582" type="curve" smooth="yes"/>
    </contour>
    <contour>
      <point x="308" y="502" type="line" smooth="yes"/>
      <point x="308" y="518"/>
      <point x="299" y="528"/>
      <point x="284" y="528" type="curve" smooth="yes"/>
      <point x="269" y="528"/>
      <point x="261" y="519"/>
      <point x="261" y="502" type="curve" smooth="yes"/>
      <point x="261" y="280" type="line" smooth="yes"/>
      <point x="261" y="263"/>
      <point x="269" y="254"/>
      <point x="284" y="254" type="curve" smooth="yes"/>
      <point x="299" y="254"/>
      <point x="308" y="261"/>
      <point x="308" y="280" type="curve" smooth="yes"/>
    </contour>
  </outline>
</glyph>
<glyph name="B" format="1">
  <advance width="364"/>
  <unicode hex="0042"/>
  <outline>
    <contour>
      <point x="40" y="0" type="line"/>
      <point x="40" y="735" type="line"/>
      <point x="135" y="735" type="line" smooth="yes"/>
      <point x="199" y="735"/>
      <point x="249" y="723"/>
      <point x="282" y="692" type="curve" smooth="yes"/>
      <point x="315" y="661"/>
      <point x="332" y="613"/>
      <point x="332" y="540" type="curve" smooth="yes"/>
      <point x="332" y="505"/>
      <point x="329" y="479"/>
      <point x="318" y="455" type="curve" smooth="yes"/>
      <point x="307" y="431"/>
      <point x="290" y="411"/>
      <point x="265" y="388" type="curve"/>
      <point x="292" y="373"/>
      <point x="312" y="345"/>
      <point x="328" y="298" type="curve" smooth="yes"/>
      <point x="336" y="275"/>
      <point x="340" y="245"/>
      <point x="340" y="208" type="curve" smooth="yes"/>
      <point x="340" y="153"/>
      <point x="330" y="104"/>
      <point x="305" y="66" type="curve" smooth="yes"/>
      <point x="280" y="28"/>
      <point x="237" y="3"/>
      <point x="173" y="0" type="curve"/>
    </contour>
    <contour>
      <point x="228" y="280"/>
      <point x="214" y="309"/>
      <point x="196" y="322" type="curve" smooth="yes"/>
      <point x="178" y="335"/>
      <point x="157" y="333"/>
      <point x="148" y="333" type="curve"/>
      <point x="148" y="107" type="line"/>
      <point x="157" y="107"/>
      <point x="178" y="105"/>
      <point x="196" y="118" type="curve" smooth="yes"/>
      <point x="214" y="131"/>
      <point x="228" y="160"/>
      <point x="228" y="220" type="curve" smooth="yes"/>
    </contour>
    <contour>
      <point x="228" y="581"/>
      <point x="214" y="605"/>
      <point x="196" y="617" type="curve" smooth="yes"/>
      <point x="178" y="629"/>
      <point x="157" y="628"/>
      <point x="148" y="628" type="curve"/>
      <point x="148" y="432" type="line"/>
      <point x="157" y="432"/>
      <point x="178" y="431"/>
      <point x="196" y="443" type="curve" smooth="yes"/>
      <point x="214" y="455"/>
      <point x="228" y="479"/>
      <point x="228" y="530" type="curve" smooth="yes"/>
    </contour>
  </outline>
</glyph>
<glyph name="E" format="1">
  <advance width="307"/>
  <unicode hex="0045"/>
  <outline>
    <contour>
      <point x="40" y="735" type="line"/>
      <point x="287" y="735" type="line"/>
      <point x="287" y="624" type="line"/>
      <point x="148" y="624" type="line"/>
      <point x="148" y="431" type="line"/>
      <point x="248" y="431" type="line"/>
      <point x="248" y="313" type="line"/>
      <point x="148" y="313" type="line"/>
      <point x="148" y="111" type="line"/>
      <point x="287" y="111" type="line"/>
      <point x="287" y="0" type="line"/>
      <point x="40" y="0" type="line"/>
    </contour>
  </outline>
</glyph>
<glyph name="F" format="1">
  <advance width="301"/>
  <unicode hex="0046"/>
  <outline>
    <contour>
      <point x="297" y="624" type="line"/>
      <point x="148" y="624" type="line"/>
      <point x="148" y="431" type="line"/>
      <point x="248" y="431" type="line"/>
      <point x="248" y="320" type="line"/>
      <point x="148" y="320" type="line"/>
      <point x="148" y="0" type="line"/>
      <point x="40" y="0" type="line"/>
      <point x="40" y="735" type="line"/>
      <point x="297" y="735" type="line"/>
    </contour>
  </outline>
</glyph>
<glyph name="M" format="1">
  <advance width="484"/>
  <unicode hex="004D"/>
  <outline>
    <contour>
      <point x="219" y="0" type="line"/>
      <point x="150" y="462" type="line"/>
      <point x="146" y="493" type="line"/>
      <point x="140" y="493" type="line"/>
      <point x="140" y="0" type="line"/>
      <point x="40" y="0" type="line"/>
      <point x="40" y="735" type="line"/>
      <point x="172" y="735" type="line"/>
      <point x="236" y="399" type="line"/>
      <point x="241" y="360" type="line"/>
      <point x="243" y="360" type="line"/>
      <point x="248" y="399" type="line"/>
      <point x="312" y="735" type="line"/>
      <point x="444" y="735" type="line"/>
      <point x="444" y="0" type="line"/>
      <point x="344" y="0" type="line"/>
      <point x="344" y="493" type="line"/>
      <point x="338" y="493" type="line"/>
      <point x="334" y="462" type="line"/>
      <point x="265" y="0" type="line"/>
    </contour>
  </outline>
</glyph>
<glyph name="P" format="1">
  <advance width="352"/>
  <unicode hex="0050"/>
  <outline>
    <contour>
      <point x="40" y="735" type="line"/>
      <point x="148" y="735" type="line" smooth="yes"/>
      <point x="195" y="735"/>
      <point x="242" y="723"/>
      <point x="278" y="689" type="curve" smooth="yes"/>
      <point x="314" y="655"/>
      <point x="338" y="599"/>
      <point x="338" y="515" type="curve" smooth="yes"/>
      <point x="338" y="431"/>
      <point x="314" y="376"/>
      <point x="278" y="342" type="curve" smooth="yes"/>
      <point x="242" y="308"/>
      <point x="195" y="294"/>
      <point x="148" y="294" type="curve"/>
      <point x="148" y="0" type="line"/>
      <point x="40" y="0" type="line"/>
    </contour>
    <contour>
      <point x="148" y="404" type="line"/>
      <point x="181" y="404"/>
      <point x="202" y="410"/>
      <point x="214" y="427" type="curve" smooth="yes"/>
      <point x="226" y="443"/>
      <point x="229" y="470"/>
      <point x="229" y="511" type="curve" smooth="yes"/>
      <point x="229" y="552"/>
      <point x="226" y="581"/>
      <point x="214" y="599" type="curve" smooth="yes"/>
      <point x="202" y="617"/>
      <point x="181" y="625"/>
      <point x="148" y="625" type="curve"/>
    </contour>
  </outline>
</glyph>
<glyph name="S" format="1">
  <advance width="343"/>
  <unicode hex="0053"/>
  <outline>
    <contour>
      <point x="219" y="538" type="line"/>
      <point x="219" y="562"/>
      <point x="218" y="589"/>
      <point x="211" y="610" type="curve" smooth="yes"/>
      <point x="204" y="630"/>
      <point x="193" y="644"/>
      <point x="176" y="644" type="curve" smooth="yes"/>
      <point x="148" y="643"/>
      <point x="139" y="614"/>
      <point x="139" y="571" type="curve" smooth="yes"/>
      <point x="139" y="546"/>
      <point x="150" y="520"/>
      <point x="166" y="492" type="curve" smooth="yes"/>
      <point x="182" y="464"/>
      <point x="203" y="435"/>
      <point x="224" y="404" type="curve" smooth="yes"/>
      <point x="249" y="367"/>
      <point x="274" y="329"/>
      <point x="293" y="292" type="curve" smooth="yes"/>
      <point x="312" y="255"/>
      <point x="325" y="217"/>
      <point x="325" y="177" type="curve" smooth="yes"/>
      <point x="325" y="128"/>
      <point x="317" y="82"/>
      <point x="294" y="48" type="curve" smooth="yes"/>
      <point x="271" y="14"/>
      <point x="234" y="-8"/>
      <point x="175" y="-8" type="curve" smooth="yes"/>
      <point x="106" y="-8"/>
      <point x="67" y="18"/>
      <point x="45" y="58" type="curve" smooth="yes"/>
      <point x="23" y="98"/>
      <point x="18" y="151"/>
      <point x="18" y="206" type="curve"/>
      <point x="124" y="216" type="line"/>
      <point x="124" y="185"/>
      <point x="125" y="154"/>
      <point x="133" y="131" type="curve"/>
      <point x="140" y="107"/>
      <point x="152" y="91"/>
      <point x="175" y="91" type="curve" smooth="yes"/>
      <point x="207" y="91"/>
      <point x="219" y="125"/>
      <point x="219" y="172" type="curve" smooth="yes"/>
      <point x="219" y="196"/>
      <point x="207" y="224"/>
      <point x="191" y="253" type="curve"/>
      <point x="182" y="267"/>
      <point x="173" y="282"/>
      <point x="163" y="297" type="curve" smooth="yes"/>
      <point x="142" y="327"/>
      <point x="119" y="361"/>
      <point x="95" y="398" type="curve" smooth="yes"/>
      <point x="71" y="435"/>
      <point x="53" y="473"/>
      <point x="42" y="512" type="curve" smooth="yes"/>
      <point x="36" y="531"/>
      <point x="33" y="551"/>
      <point x="33" y="571" type="curve" smooth="yes"/>
      <point x="33" y="611"/>
      <point x="42" y="654"/>
      <point x="65" y="687" type="curve" smooth="yes"/>
      <point x="88" y="719"/>
      <point x="123" y="742"/>
      <point x="174" y="743" type="curve" smooth="yes"/>
      <point x="239" y="744"/>
      <point x="277" y="717"/>
      <point x="298" y="678" type="curve" smooth="yes"/>
      <point x="319" y="638"/>
      <point x="325" y="589"/>
      <point x="325" y="548" type="curve"/>
    </contour>
  </outline>
</glyph>
<glyph name="W" format="1">
  <advance width="506"/>
  <unicode hex="0057"/>
  <outline>
    <contour>
      <point x="195" y="0" type="line"/>
      <point x="111" y="0" type="line"/>
      <point x="12" y="735" type="line"/>
      <point x="112" y="735" type="line"/>
      <point x="155" y="353" type="line"/>
      <point x="157" y="329" type="line"/>
      <point x="165" y="329" type="line"/>
      <point x="168" y="353" type="line"/>
      <point x="214" y="735" type="line"/>
      <point x="292" y="735" type="line"/>
      <point x="338" y="353" type="line"/>
      <point x="341" y="329" type="line"/>
      <point x="349" y="329" type="line"/>
      <point x="351" y="353" type="line"/>
      <point x="394" y="735" type="line"/>
      <point x="494" y="735" type="line"/>
      <point x="395" y="0" type="line"/>
      <point x="311" y="0" type="line"/>
      <point x="261" y="348" type="line"/>
      <point x="255" y="391" type="line"/>
      <point x="251" y="391" type="line"/>
      <point x="245" y="348" type="line"/>
    </contour>
  </outline>
</glyph>
<glyph name="Z" format="1">
  <advance width="306"/>
  <unicode hex="005A"/>
  <outline>
    <contour>
      <point x="10" y="116" type="line"/>
      <point x="179" y="628" type="line"/>
      <point x="34" y="628" type="line"/>
      <point x="34" y="735" type="line"/>
      <point x="296" y="735" type="line"/>
      <point x="296" y="628" type="line"/>
      <point x="124" y="107" type="line"/>
      <point x="296" y="107" type="line"/>
      <point x="296" y="0" type="line"/>
      <point x="10" y="0" type="line"/>
    </contour>
    <contour>
      <point x="153" y="735" type="move" name="top"/>
    </contour>
  </outline>
</glyph>
<glyph name="grave" format="1">
  <advance width="500"/>
  <unicode hex="0060"/>
  <outline>
    <contour>
      <point x="248" y="727" type="line"/>
      <point x="300" y="637" type="line"/>
      <point x="222" y="637" type="line"/>
      <point x="143" y="727" type="line"/>
    </contour>
  </outline>
</glyph>
<glyph name="d" format="1">
  <advance width="335"/>
  <unicode hex="0064"/>
  <outline>
    <contour>
      <point x="295" y="0" type="line"/>
      <point x="194" y="0" type="line"/>
      <point x="194" y="36" type="line"/>
      <point x="177" y="20"/>
      <point x="162" y="8"/>
      <point x="143" y="-1" type="curve" smooth="yes"/>
      <point x="133" y="-6"/>
      <point x="123" y="-8"/>
      <point x="114" y="-8" type="curve" smooth="yes"/>
      <point x="86" y="-8"/>
      <point x="67" y="8"/>
      <point x="55" y="29" type="curve"/>
      <point x="42" y="49"/>
      <point x="36" y="76"/>
      <point x="36" y="99" type="curve" smooth="yes"/>
      <point x="36" y="448" type="line" smooth="yes"/>
      <point x="36" y="471"/>
      <point x="42" y="498"/>
      <point x="55" y="519" type="curve" smooth="yes"/>
      <point x="67" y="539"/>
      <point x="86" y="555"/>
      <point x="114" y="555" type="curve" smooth="yes"/>
      <point x="133" y="555"/>
      <point x="153" y="544"/>
      <point x="168" y="533" type="curve" smooth="yes"/>
      <point x="177" y="526"/>
      <point x="185" y="519"/>
      <point x="194" y="511" type="curve"/>
      <point x="194" y="735" type="line"/>
      <point x="295" y="735" type="line"/>
    </contour>
    <contour>
      <point x="194" y="427" type="line" smooth="yes"/>
      <point x="194" y="443"/>
      <point x="179" y="460"/>
      <point x="164" y="460" type="curve" smooth="yes"/>
      <point x="149" y="460"/>
      <point x="137" y="446"/>
      <point x="137" y="427" type="curve" smooth="yes"/>
      <point x="137" y="120" type="line" smooth="yes"/>
      <point x="137" y="101"/>
      <point x="149" y="87"/>
      <point x="164" y="87" type="curve" smooth="yes"/>
      <point x="179" y="87"/>
      <point x="194" y="101"/>
      <point x="194" y="120" type="curve" smooth="yes"/>
    </contour>
  </outline>
</glyph>
<glyph name="l" format="1">
  <advance width="181"/>
  <unicode hex="006C"/>
  <outline>
    <contour>
      <point x="40" y="0" type="line"/>
      <point x="40" y="735" type="line"/>
      <point x="141" y="735" type="line"/>
      <point x="141" y="0" type="line"/>
    </contour>
  </outline>
</glyph>
<glyph name="m" format="1">
  <advance width="499"/>
  <unicode hex="006D"/>
  <outline>
    <contour>
      <point x="328" y="457"/>
      <point x="319" y="451"/>
      <point x="312" y="444" type="curve" smooth="yes"/>
      <point x="308" y="440"/>
      <point x="304" y="436"/>
      <point x="301" y="431" type="curve"/>
      <point x="301" y="0" type="line"/>
      <point x="206" y="0" type="line"/>
      <point x="206" y="433" type="line" smooth="yes"/>
      <point x="206" y="454"/>
      <point x="190" y="457"/>
      <point x="179" y="457" type="curve" smooth="yes"/>
      <point x="168" y="457"/>
      <point x="159" y="451"/>
      <point x="152" y="444" type="curve" smooth="yes"/>
      <point x="148" y="440"/>
      <point x="144" y="436"/>
      <point x="141" y="431" type="curve"/>
      <point x="141" y="0" type="line"/>
      <point x="40" y="0" type="line"/>
      <point x="40" y="547" type="line"/>
      <point x="141" y="547" type="line"/>
      <point x="141" y="501" type="line"/>
      <point x="143" y="502"/>
      <point x="147" y="506"/>
      <point x="153" y="512" type="curve" smooth="yes"/>
      <point x="164" y="523"/>
      <point x="181" y="538"/>
      <point x="199" y="548" type="curve" smooth="yes"/>
      <point x="208" y="553"/>
      <point x="216" y="555"/>
      <point x="225" y="555" type="curve" smooth="yes"/>
      <point x="261" y="555"/>
      <point x="282" y="526"/>
      <point x="293" y="494" type="curve"/>
      <point x="297" y="497"/>
      <point x="302" y="502"/>
      <point x="309" y="509" type="curve"/>
      <point x="322" y="523"/>
      <point x="339" y="536"/>
      <point x="358" y="547" type="curve" smooth="yes"/>
      <point x="367" y="552"/>
      <point x="376" y="555"/>
      <point x="385" y="555" type="curve" smooth="yes"/>
      <point x="412" y="555"/>
      <point x="431" y="539"/>
      <point x="443" y="519" type="curve" smooth="yes"/>
      <point x="455" y="498"/>
      <point x="461" y="471"/>
      <point x="461" y="448" type="curve" smooth="yes"/>
      <point x="461" y="0" type="line"/>
      <point x="366" y="0" type="line"/>
      <point x="366" y="433" type="line" smooth="yes"/>
      <point x="366" y="454"/>
      <point x="350" y="457"/>
      <point x="339" y="457" type="curve" smooth="yes"/>
    </contour>
  </outline>
</glyph>
<glyph name="r" format="1">
  <advance width="246"/>
  <unicode hex="0072"/>
  <outline>
    <contour>
      <point x="242" y="443" type="line"/>
      <point x="233" y="446"/>
      <point x="223" y="447"/>
      <point x="214" y="447" type="curve" smooth="yes"/>
      <point x="198" y="447"/>
      <point x="179" y="445"/>
      <point x="163" y="430" type="curve"/>
      <point x="144" y="414"/>
      <point x="141" y="397"/>
      <point x="141" y="380" type="curve" smooth="yes"/>
      <point x="141" y="0" type="line"/>
      <point x="40" y="0" type="line"/>
      <point x="40" y="547" type="line"/>
      <point x="141" y="547" type="line"/>
      <point x="141" y="486" type="line"/>
      <point x="142" y="493"/>
      <point x="149" y="510"/>
      <point x="165" y="526" type="curve" smooth="yes"/>
      <point x="181" y="541"/>
      <point x="205" y="555"/>
      <point x="242" y="555" type="curve"/>
    </contour>
    <contour>
      <point x="123" y="547" type="move" name="top"/>
    </contour>
    <contour>
      <point x="123" y="0" type="move" name="bottom"/>
    </contour>
  </outline>
</glyph>
<glyph name="s" format="1">
  <advance width="308"/>
  <unicode hex="0073"/>
  <outline>
    <contour>
      <point x="193" y="407" type="line"/>
      <point x="193" y="420"/>
      <point x="193" y="436"/>
      <point x="189" y="449" type="curve"/>
      <point x="184" y="461"/>
      <point x="176" y="471"/>
      <point x="160" y="471" type="curve" smooth="yes"/>
      <point x="147" y="471"/>
      <point x="139" y="461"/>
      <point x="135" y="449" type="curve"/>
      <point x="130" y="437"/>
      <point x="129" y="420"/>
      <point x="129" y="407" type="curve" smooth="yes"/>
      <point x="129" y="390"/>
      <point x="138" y="372"/>
      <point x="151" y="356" type="curve" smooth="yes"/>
      <point x="163" y="340"/>
      <point x="179" y="324"/>
      <point x="195" y="309" type="curve" smooth="yes"/>
      <point x="216" y="288"/>
      <point x="241" y="264"/>
      <point x="258" y="237" type="curve" smooth="yes"/>
      <point x="275" y="209"/>
      <point x="288" y="178"/>
      <point x="288" y="142" type="curve" smooth="yes"/>
      <point x="288" y="107"/>
      <point x="280" y="70"/>
      <point x="260" y="42" type="curve" smooth="yes"/>
      <point x="239" y="13"/>
      <point x="207" y="-8"/>
      <point x="159" y="-8" type="curve" smooth="yes"/>
      <point x="98" y="-8"/>
      <point x="62" y="20"/>
      <point x="42" y="54" type="curve" smooth="yes"/>
      <point x="22" y="88"/>
      <point x="18" y="130"/>
      <point x="18" y="159" type="curve"/>
      <point x="112" y="159" type="line"/>
      <point x="112" y="144"/>
      <point x="113" y="123"/>
      <point x="120" y="107" type="curve" smooth="yes"/>
      <point x="127" y="90"/>
      <point x="138" y="76"/>
      <point x="159" y="76" type="curve" smooth="yes"/>
      <point x="188" y="76"/>
      <point x="194" y="110"/>
      <point x="194" y="142" type="curve" smooth="yes"/>
      <point x="194" y="175"/>
      <point x="162" y="208"/>
      <point x="131" y="239" type="curve" smooth="yes"/>
      <point x="107" y="262"/>
      <point x="84" y="283"/>
      <point x="66" y="310" type="curve" smooth="yes"/>
      <point x="48" y="337"/>
      <point x="35" y="367"/>
      <point x="35" y="407" type="curve" smooth="yes"/>
      <point x="35" y="439"/>
      <point x="41" y="476"/>
      <point x="60" y="505" type="curve" smooth="yes"/>
      <point x="79" y="533"/>
      <point x="110" y="554"/>
      <point x="158" y="555" type="curve" smooth="yes"/>
      <point x="217" y="556"/>
      <point x="250" y="534"/>
      <point x="267" y="505" type="curve" smooth="yes"/>
      <point x="284" y="476"/>
      <point x="287" y="438"/>
      <point x="287" y="407" type="curve"/>
    </contour>
  </outline>
</glyph>
<glyph name="u" format="1">
  <advance width="337"/>
  <unicode hex="0075"/>
  <outline>
    <contour>
      <point x="196" y="547" type="line"/>
      <point x="297" y="547" type="line"/>
      <point x="297" y="0" type="line"/>
      <point x="196" y="0" type="line"/>
      <point x="196" y="46" type="line"/>
      <point x="194" y="45"/>
      <point x="190" y="41"/>
      <point x="185" y="36" type="curve" smooth="yes"/>
      <point x="173" y="24"/>
      <point x="159" y="10"/>
      <point x="141" y="0" type="curve" smooth="yes"/>
      <point x="132" y="-5"/>
      <point x="123" y="-8"/>
      <point x="114" y="-8" type="curve" smooth="yes"/>
      <point x="87" y="-8"/>
      <point x="68" y="8"/>
      <point x="56" y="29" type="curve" smooth="yes"/>
      <point x="44" y="49"/>
      <point x="38" y="76"/>
      <point x="38" y="99" type="curve" smooth="yes"/>
      <point x="38" y="547" type="line"/>
      <point x="139" y="547" type="line"/>
      <point x="139" y="114" type="line" smooth="yes"/>
      <point x="139" y="93"/>
      <point x="151" y="90"/>
      <point x="163" y="90" type="curve" smooth="yes"/>
      <point x="174" y="90"/>
      <point x="180" y="96"/>
      <point x="187" y="103" type="curve" smooth="yes"/>
      <point x="190" y="106"/>
      <point x="193" y="111"/>
      <point x="196" y="116" type="curve"/>
    </contour>
  </outline>
</glyph>
<glyph name="v" format="1">
  <advance width="294"/>
  <unicode hex="0076"/>
  <outline>
    <contour>
      <point x="97" y="0" type="line"/>
      <point x="8" y="547" type="line"/>
      <point x="106" y="547" type="line"/>
      <point x="139" y="230" type="line"/>
      <point x="143" y="195" type="line"/>
      <point x="151" y="195" type="line"/>
      <point x="155" y="230" type="line"/>
      <point x="188" y="547" type="line"/>
      <point x="286" y="547" type="line"/>
      <point x="197" y="0" type="line"/>
    </contour>
  </outline>
</glyph>
<glyph name="asciitilde" format="1">
  <advance width="625"/>
  <unicode hex="007E"/>
  <outline>
    <contour>
      <point x="55" y="660" type="line"/>
      <point x="74" y="716"/>
      <point x="103" y="755"/>
      <point x="144" y="787" type="curve" smooth="yes"/>
      <point x="165" y="802"/>
      <point x="190" y="810"/>
      <point x="219" y="810" type="curve" smooth="yes"/>
      <point x="279" y="810"/>
      <point x="315" y="784"/>
      <point x="354" y="760" type="curve"/>
      <point x="381" y="741"/>
      <point x="408" y="725"/>
      <point x="439" y="725" type="curve" smooth="yes"/>
      <point x="470" y="725"/>
      <point x="494" y="746"/>
      <point x="509" y="769" type="curve" smooth="yes"/>
      <point x="518" y="782"/>
      <point x="525" y="797"/>
      <point x="532" y="814" type="curve"/>
      <point x="598" y="786" type="line"/>
      <point x="577" y="729"/>
      <point x="549" y="689"/>
      <point x="510" y="658" type="curve" smooth="yes"/>
      <point x="490" y="643"/>
      <point x="466" y="635"/>
      <point x="439" y="635" type="curve" smooth="yes"/>
      <point x="383" y="635"/>
      <point x="345" y="659"/>
      <point x="306" y="684" type="curve" smooth="yes"/>
      <point x="278" y="703"/>
      <point x="250" y="720"/>
      <point x="219" y="720" type="curve" smooth="yes"/>
      <point x="184" y="720"/>
      <point x="160" y="699"/>
      <point x="144" y="676" type="curve" smooth="yes"/>
      <point x="135" y="663"/>
      <point x="127" y="649"/>
      <point x="121" y="632" type="curve"/>
    </contour>
  </outline>
</glyph>
<glyph name="uni0093" format="1">
  <advance width="305"/>
  <unicode hex="0093"/>
  <outline>
    <contour>
      <point x="26" y="605" type="line"/>
      <point x="81" y="735" type="line"/>
      <point x="131" y="735" type="line"/>
      <point x="96" y="605" type="line"/>
      <point x="131" y="605" type="line"/>
      <point x="131" y="494" type="line"/>
      <point x="26" y="494" type="line"/>
    </contour>
    <contour>
      <point x="174" y="605" type="line"/>
      <point x="229" y="735" type="line"/>
      <point x="279" y="735" type="line"/>
      <point x="244" y="605" type="line"/>
      <point x="279" y="605" type="line"/>
      <point x="279" y="494" type="line"/>
      <point x="174" y="494" type="line"/>
    </contour>
  </outline>
</glyph>
<glyph name="uni0094" format="1">
  <advance width="305"/>
  <unicode hex="0094"/>
  <outline>
    <contour>
      <point x="131" y="624" type="line"/>
      <point x="76" y="494" type="line"/>
      <point x="26" y="494" type="line"/>
      <point x="61" y="624" type="line"/>
      <point x="26" y="624" type="line"/>
      <point x="26" y="735" type="line"/>
      <point x="131" y="735" type="line"/>
    </contour>
    <contour>
      <point x="279" y="624" type="line"/>
      <point x="224" y="494" type="line"/>
      <point x="174" y="494" type="line"/>
      <point x="209" y="624" type="line"/>
      <point x="174" y="624" type="line"/>
      <point x="174" y="735" type="line"/>
      <point x="279" y="735" type="line"/>
    </contour>
  </outline>
</glyph>
<glyph name="exclamdown" format="1">
  <advance width="189"/>
  <unicode hex="00A1"/>
  <outline>
    <contour>
      <point x="42" y="547" type="line"/>
      <point x="147" y="547" type="line"/>
      <point x="147" y="436" type="line"/>
      <point x="42" y="436" type="line"/>
    </contour>
    <contour>
      <point x="63" y="349" type="line"/>
      <point x="126" y="349" type="line"/>
      <point x="153" y="-188" type="line"/>
      <point x="36" y="-188" type="line"/>
    </contour>
  </outline>
</glyph>
<glyph name="cent" format="1">
  <advance width="311"/>
  <unicode hex="00A2"/>
  <outline>
    <contour>
      <point x="194" y="765" type="line"/>
      <point x="194" y="646" type="line"/>
      <point x="225" y="641"/>
      <point x="248" y="628"/>
      <point x="264" y="604" type="curve" smooth="yes"/>
      <point x="279" y="580"/>
      <point x="287" y="544"/>
      <point x="287" y="492" type="curve" smooth="yes"/>
      <point x="287" y="449" type="line"/>
      <point x="195" y="449" type="line"/>
      <point x="195" y="515" type="line" smooth="yes"/>
      <point x="195" y="548"/>
      <point x="182" y="559"/>
      <point x="159" y="559" type="curve" smooth="yes"/>
      <point x="132" y="559"/>
      <point x="124" y="535"/>
      <point x="124" y="515" type="curve" smooth="yes"/>
      <point x="124" y="220" type="line" smooth="yes"/>
      <point x="124" y="200"/>
      <point x="132" y="176"/>
      <point x="159" y="176" type="curve" smooth="yes"/>
      <point x="182" y="176"/>
      <point x="195" y="187"/>
      <point x="195" y="220" type="curve" smooth="yes"/>
      <point x="195" y="296" type="line"/>
      <point x="287" y="296" type="line"/>
      <point x="287" y="243" type="line" smooth="yes"/>
      <point x="287" y="139"/>
      <point x="255" y="97"/>
      <point x="194" y="88" type="curve"/>
      <point x="194" y="-60" type="line"/>
      <point x="134" y="-60" type="line"/>
      <point x="134" y="87" type="line"/>
      <point x="74" y="96"/>
      <point x="32" y="140"/>
      <point x="32" y="248" type="curve" smooth="yes"/>
      <point x="32" y="487" type="line" smooth="yes"/>
      <point x="32" y="594"/>
      <point x="74" y="638"/>
      <point x="134" y="647" type="curve"/>
      <point x="134" y="765" type="line"/>
    </contour>
  </outline>
</glyph>
<glyph name="sterling" format="1">
  <advance width="399"/>
  <unicode hex="00A3"/>
  <outline>
    <contour>
      <point x="249" y="547" type="line"/>
      <point x="249" y="571"/>
      <point x="246" y="596"/>
      <point x="238" y="614" type="curve" smooth="yes"/>
      <point x="230" y="632"/>
      <point x="216" y="643"/>
      <point x="193" y="643" type="curve" smooth="yes"/>
      <point x="177" y="643"/>
      <point x="166" y="632"/>
      <point x="159" y="616" type="curve"/>
      <point x="151" y="600"/>
      <point x="149" y="580"/>
      <point x="149" y="561" type="curve" smooth="yes"/>
      <point x="149" y="508"/>
      <point x="166" y="452"/>
      <point x="183" y="396" type="curve" smooth="yes"/>
      <point x="186" y="384" type="line"/>
      <point x="289" y="384" type="line"/>
      <point x="289" y="317" type="line"/>
      <point x="204" y="317" type="line"/>
      <point x="212" y="284"/>
      <point x="216" y="255"/>
      <point x="216" y="232" type="curve" smooth="yes"/>
      <point x="216" y="205"/>
      <point x="207" y="164"/>
      <point x="188" y="125" type="curve"/>
      <point x="201" y="119"/>
      <point x="212" y="113"/>
      <point x="222" y="107" type="curve"/>
      <point x="231" y="100"/>
      <point x="242" y="97"/>
      <point x="253" y="96" type="curve"/>
      <point x="262" y="97"/>
      <point x="271" y="104"/>
      <point x="279" y="118" type="curve" smooth="yes"/>
      <point x="287" y="131"/>
      <point x="292" y="155"/>
      <point x="293" y="189" type="curve"/>
      <point x="385" y="178" type="line"/>
      <point x="377" y="55"/>
      <point x="326" y="-8"/>
      <point x="262" y="-8" type="curve" smooth="yes"/>
      <point x="238" y="-8"/>
      <point x="215" y="5"/>
      <point x="192" y="17" type="curve" smooth="yes"/>
      <point x="169" y="29"/>
      <point x="148" y="42"/>
      <point x="129" y="42" type="curve" smooth="yes"/>
      <point x="110" y="42"/>
      <point x="96" y="29"/>
      <point x="87" y="17" type="curve"/>
      <point x="81" y="10"/>
      <point x="76" y="1"/>
      <point x="73" y="-8" type="curve"/>
      <point x="2" y="31" type="line"/>
      <point x="17" y="64"/>
      <point x="35" y="90"/>
      <point x="60" y="113" type="curve" smooth="yes"/>
      <point x="73" y="124"/>
      <point x="88" y="132"/>
      <point x="105" y="135" type="curve"/>
      <point x="116" y="166"/>
      <point x="123" y="204"/>
      <point x="123" y="232" type="curve" smooth="yes"/>
      <point x="123" y="257"/>
      <point x="117" y="286"/>
      <point x="108" y="317" type="curve"/>
      <point x="16" y="317" type="line"/>
      <point x="16" y="384" type="line"/>
      <point x="88" y="384" type="line"/>
      <point x="85" y="394" type="line" smooth="yes"/>
      <point x="66" y="457"/>
      <point x="47" y="520"/>
      <point x="47" y="561" type="curve" smooth="yes"/>
      <point x="47" y="602"/>
      <point x="55" y="648"/>
      <point x="78" y="683" type="curve" smooth="yes"/>
      <point x="101" y="718"/>
      <point x="136" y="742"/>
      <point x="191" y="743" type="curve" smooth="yes"/>
      <point x="256" y="744"/>
      <point x="297" y="719"/>
      <point x="321" y="683" type="curve" smooth="yes"/>
      <point x="345" y="646"/>
      <point x="353" y="596"/>
      <point x="353" y="547" type="curve"/>
    </contour>
  </outline>
</glyph>
<glyph name="copyright" format="1">
  <advance width="803"/>
  <unicode hex="00A9"/>
  <outline>
    <contour>
      <point x="26" y="367" type="curve" smooth="yes"/>
      <point x="26" y="471"/>
      <point x="68" y="565"/>
      <point x="136" y="633" type="curve" smooth="yes"/>
      <point x="204" y="701"/>
      <point x="298" y="743"/>
      <point x="401" y="743" type="curve" smooth="yes"/>
      <point x="505" y="743"/>
      <point x="599" y="701"/>
      <point x="667" y="633" type="curve" smooth="yes"/>
      <point x="735" y="565"/>
      <point x="777" y="471"/>
      <point x="777" y="367" type="curve" smooth="yes"/>
      <point x="777" y="264"/>
      <point x="735" y="170"/>
      <point x="667" y="102" type="curve" smooth="yes"/>
      <point x="599" y="34"/>
      <point x="505" y="-8"/>
      <point x="401" y="-8" type="curve" smooth="yes"/>
      <point x="298" y="-8"/>
      <point x="204" y="34"/>
      <point x="136" y="102" type="curve" smooth="yes"/>
      <point x="68" y="170"/>
      <point x="26" y="264"/>
    </contour>
    <contour>
      <point x="84" y="367" type="curve" smooth="yes"/>
      <point x="84" y="280"/>
      <point x="120" y="202"/>
      <point x="178" y="144" type="curve" smooth="yes"/>
      <point x="236" y="86"/>
      <point x="314" y="50"/>
      <point x="401" y="50" type="curve" smooth="yes"/>
      <point x="488" y="50"/>
      <point x="568" y="86"/>
      <point x="626" y="144" type="curve" smooth="yes"/>
      <point x="684" y="202"/>
      <point x="719" y="280"/>
      <point x="719" y="367" type="curve" smooth="yes"/>
      <point x="719" y="454"/>
      <point x="684" y="534"/>
      <point x="626" y="592" type="curve" smooth="yes"/>
      <point x="568" y="650"/>
      <point x="488" y="685"/>
      <point x="401" y="685" type="curve" smooth="yes"/>
      <point x="314" y="685"/>
      <point x="236" y="650"/>
      <point x="178" y="592" type="curve" smooth="yes"/>
      <point x="120" y="534"/>
      <point x="84" y="454"/>
    </contour>
    <contour>
      <point x="492" y="299" type="line"/>
      <point x="492" y="238" type="line"/>
      <point x="489" y="202"/>
      <point x="477" y="177"/>
      <point x="453" y="157" type="curve" smooth="yes"/>
      <point x="441" y="147"/>
      <point x="423" y="142"/>
      <point x="400" y="142" type="curve" smooth="yes"/>
      <point x="352" y="142"/>
      <point x="329" y="166"/>
      <point x="317" y="190" type="curve" smooth="yes"/>
      <point x="310" y="204"/>
      <point x="306" y="220"/>
      <point x="306" y="238" type="curve" smooth="yes"/>
      <point x="306" y="497" type="line" smooth="yes"/>
      <point x="306" y="533"/>
      <point x="320" y="558"/>
      <point x="345" y="578" type="curve" smooth="yes"/>
      <point x="358" y="588"/>
      <point x="376" y="593"/>
      <point x="400" y="593" type="curve" smooth="yes"/>
      <point x="447" y="593"/>
      <point x="468" y="569"/>
      <point x="480" y="545" type="curve" smooth="yes"/>
      <point x="487" y="531"/>
      <point x="491" y="515"/>
      <point x="492" y="497" type="curve"/>
      <point x="492" y="436" type="line"/>
      <point x="425" y="436" type="line"/>
      <point x="425" y="497" type="line"/>
      <point x="426" y="508"/>
      <point x="423" y="516"/>
      <point x="416" y="523" type="curve" smooth="yes"/>
      <point x="413" y="526"/>
      <point x="408" y="528"/>
      <point x="401" y="528" type="curve" smooth="yes"/>
      <point x="389" y="528"/>
      <point x="383" y="520"/>
      <point x="380" y="512" type="curve" smooth="yes"/>
      <point x="378" y="507"/>
      <point x="377" y="502"/>
      <point x="377" y="497" type="curve" smooth="yes"/>
      <point x="377" y="238" type="line" smooth="yes"/>
      <point x="377" y="226"/>
      <point x="380" y="218"/>
      <point x="387" y="212" type="curve"/>
      <point x="390" y="209"/>
      <point x="395" y="207"/>
      <point x="401" y="207" type="curve" smooth="yes"/>
      <point x="414" y="207"/>
      <point x="420" y="214"/>
      <point x="423" y="222" type="curve" smooth="yes"/>
      <point x="425" y="227"/>
      <point x="426" y="232"/>
      <point x="425" y="238" type="curve"/>
      <point x="425" y="299" type="line"/>
    </contour>
  </outline>
</glyph>
<glyph name="registered" format="1">
  <advance width="803"/>
  <unicode hex="00AE"/>
  <outline>
    <contour>
      <point x="401" y="582" type="line" smooth="yes"/>
      <point x="481" y="582"/>
      <point x="514" y="535"/>
      <point x="514" y="456" type="curve" smooth="yes"/>
      <point x="514" y="413"/>
      <point x="511" y="381"/>
      <point x="471" y="348" type="curve"/>
      <point x="523" y="153" type="line"/>
      <point x="449" y="153" type="line"/>
      <point x="403" y="331" type="line"/>
      <point x="376" y="331" type="line"/>
      <point x="376" y="153" type="line"/>
      <point x="305" y="153" type="line"/>
      <point x="305" y="582" type="line"/>
    </contour>
    <contour>
      <point x="376" y="519" type="line"/>
      <point x="376" y="393" type="line"/>
      <point x="398" y="393" type="line" smooth="yes"/>
      <point x="419" y="393"/>
      <point x="433" y="401"/>
      <point x="439" y="413" type="curve" smooth="yes"/>
      <point x="445" y="425"/>
      <point x="446" y="440"/>
      <point x="446" y="455" type="curve" smooth="yes"/>
      <point x="446" y="470"/>
      <point x="445" y="486"/>
      <point x="439" y="498" type="curve" smooth="yes"/>
      <point x="433" y="510"/>
      <point x="419" y="519"/>
      <point x="398" y="519" type="curve" smooth="yes"/>
    </contour>
    <contour>
      <point x="26" y="471"/>
      <point x="68" y="565"/>
      <point x="136" y="633" type="curve" smooth="yes"/>
      <point x="204" y="701"/>
      <point x="298" y="743"/>
      <point x="401" y="743" type="curve" smooth="yes"/>
      <point x="505" y="743"/>
      <point x="599" y="701"/>
      <point x="667" y="633" type="curve" smooth="yes"/>
      <point x="735" y="565"/>
      <point x="777" y="471"/>
      <point x="777" y="367" type="curve" smooth="yes"/>
      <point x="777" y="264"/>
      <point x="735" y="170"/>
      <point x="667" y="102" type="curve" smooth="yes"/>
      <point x="599" y="34"/>
      <point x="505" y="-8"/>
      <point x="401" y="-8" type="curve" smooth="yes"/>
      <point x="298" y="-8"/>
      <point x="204" y="34"/>
      <point x="136" y="102" type="curve" smooth="yes"/>
      <point x="68" y="170"/>
      <point x="26" y="264"/>
      <point x="26" y="367" type="curve" smooth="yes"/>
    </contour>
    <contour>
      <point x="84" y="280"/>
      <point x="120" y="202"/>
      <point x="178" y="144" type="curve" smooth="yes"/>
      <point x="236" y="86"/>
      <point x="314" y="50"/>
      <point x="401" y="50" type="curve" smooth="yes"/>
      <point x="488" y="50"/>
      <point x="568" y="86"/>
      <point x="626" y="144" type="curve" smooth="yes"/>
      <point x="684" y="202"/>
      <point x="719" y="280"/>
      <point x="719" y="367" type="curve" smooth="yes"/>
      <point x="719" y="454"/>
      <point x="684" y="534"/>
      <point x="626" y="592" type="curve" smooth="yes"/>
      <point x="568" y="650"/>
      <point x="488" y="685"/>
      <point x="401" y="685" type="curve" smooth="yes"/>
      <point x="314" y="685"/>
      <point x="236" y="650"/>
      <point x="178" y="592" type="curve" smooth="yes"/>
      <point x="120" y="534"/>
      <point x="84" y="454"/>
      <point x="84" y="367" type="curve" smooth="yes"/>
    </contour>
  </outline>
</glyph>
<glyph name="acute" format="1">
  <advance width="500"/>
  <unicode hex="00B4"/>
  <outline>
    <contour>
      <point x="357" y="727" type="line"/>
      <point x="278" y="637" type="line"/>
      <point x="200" y="637" type="line"/>
      <point x="252" y="727" type="line"/>
    </contour>
    <contour>
      <point x="278.5" y="547" type="move" name="_top"/>
    </contour>
  </outline>
</glyph>
<glyph name="cedilla" format="1">
  <advance width="500"/>
  <unicode hex="00B8"/>
  <outline>
    <contour>
      <point x="292" y="-123" type="line"/>
      <point x="270" y="-188" type="line"/>
      <point x="219" y="-188" type="line"/>
      <point x="239" y="-123" type="line"/>
      <point x="208" y="-123" type="line"/>
      <point x="208" y="-54" type="line"/>
      <point x="292" y="-54" type="line"/>
    </contour>
    <contour>
      <point x="250" y="0" type="move" name="_bottom"/>
    </contour>
  </outline>
</glyph>
<glyph name="questiondown" format="1">
  <advance width="315"/>
  <unicode hex="00BF"/>
  <outline>
    <contour>
      <point x="218" y="436" type="line"/>
      <point x="113" y="436" type="line"/>
      <point x="113" y="547" type="line"/>
      <point x="218" y="547" type="line"/>
    </contour>
    <contour>
      <point x="212" y="349" type="line"/>
      <point x="212" y="224" type="line" smooth="yes"/>
      <point x="212" y="171"/>
      <point x="202" y="128"/>
      <point x="190" y="92" type="curve" smooth="yes"/>
      <point x="177" y="56"/>
      <point x="160" y="28"/>
      <point x="145" y="3" type="curve" smooth="yes"/>
      <point x="131" y="-20"/>
      <point x="122" y="-39"/>
      <point x="119" y="-52" type="curve"/>
      <point x="118" y="-59"/>
      <point x="119" y="-69"/>
      <point x="124" y="-79" type="curve"/>
      <point x="128" y="-89"/>
      <point x="137" y="-98"/>
      <point x="152" y="-98" type="curve" smooth="yes"/>
      <point x="169" y="-98"/>
      <point x="184" y="-86"/>
      <point x="195" y="-70" type="curve" smooth="yes"/>
      <point x="206" y="-55"/>
      <point x="213" y="-38"/>
      <point x="216" y="-27" type="curve"/>
      <point x="303" y="-68" type="line"/>
      <point x="296" y="-84"/>
      <point x="281" y="-115"/>
      <point x="257" y="-142" type="curve" smooth="yes"/>
      <point x="232" y="-170"/>
      <point x="195" y="-193"/>
      <point x="150" y="-192" type="curve" smooth="yes"/>
      <point x="94" y="-191"/>
      <point x="61" y="-165"/>
      <point x="43" y="-135" type="curve" smooth="yes"/>
      <point x="25" y="-105"/>
      <point x="20" y="-72"/>
      <point x="20" y="-52" type="curve" smooth="yes"/>
      <point x="20" y="-11"/>
      <point x="38" y="19"/>
      <point x="59" y="55" type="curve" smooth="yes"/>
      <point x="65" y="65"/>
      <point x="72" y="76"/>
      <point x="79" y="88" type="curve" smooth="yes"/>
      <point x="93" y="111"/>
      <point x="105" y="139"/>
      <point x="113" y="172" type="curve" smooth="yes"/>
      <point x="117" y="188"/>
      <point x="119" y="205"/>
      <point x="119" y="224" type="curve" smooth="yes"/>
      <point x="119" y="349" type="line"/>
    </contour>
  </outline>
</glyph>
<glyph name="Acircumflex" format="1">
  <advance width="374"/>
  <unicode hex="00C2"/>
  <outline>
    <contour>
      <point x="10" y="0" type="line"/>
      <point x="121" y="735" type="line"/>
      <point x="253" y="735" type="line"/>
      <point x="364" y="0" type="line"/>
      <point x="259" y="0" type="line"/>
      <point x="239" y="150" type="line"/>
      <point x="135" y="150" type="line"/>
      <point x="115" y="0" type="line"/>
    </contour>
    <contour>
      <point x="193" y="496" type="line"/>
      <point x="190" y="515" type="line"/>
      <point x="184" y="515" type="line"/>
      <point x="181" y="496" type="line"/>
      <point x="150" y="264" type="line"/>
      <point x="224" y="264" type="line"/>
    </contour>
    <contour>
      <point x="241" y="890" type="line"/>
      <point x="310" y="800" type="line"/>
      <point x="218" y="800" type="line"/>
      <point x="187" y="835" type="line"/>
      <point x="157" y="800" type="line"/>
      <point x="65" y="800" type="line"/>
      <point x="134" y="890" type="line"/>
    </contour>
  </outline>
</glyph>
<glyph name="Atilde" format="1">
  <advance width="374"/>
  <unicode hex="00C3"/>
  <outline>
    <contour>
      <point x="90" y="871" type="line"/>
      <point x="99" y="878"/>
      <point x="111" y="883"/>
      <point x="123" y="887" type="curve" smooth="yes"/>
      <point x="129" y="889"/>
      <point x="136" y="890"/>
      <point x="143" y="890" type="curve" smooth="yes"/>
      <point x="158" y="890"/>
      <point x="173" y="887"/>
      <point x="187" y="882" type="curve"/>
      <point x="201" y="876"/>
      <point x="216" y="872"/>
      <point x="231" y="871" type="curve"/>
      <point x="246" y="871"/>
      <point x="257" y="875"/>
      <point x="268" y="879" type="curve"/>
      <point x="274" y="882"/>
      <point x="279" y="884"/>
      <point x="284" y="887" type="curve"/>
      <point x="284" y="813" type="line"/>
      <point x="275" y="805"/>
      <point x="263" y="800"/>
      <point x="251" y="797" type="curve"/>
      <point x="245" y="795"/>
      <point x="238" y="794"/>
      <point x="231" y="794" type="curve" smooth="yes"/>
      <point x="216" y="794"/>
      <point x="201" y="797"/>
      <point x="188" y="803" type="curve" smooth="yes"/>
      <point x="174" y="809"/>
      <point x="159" y="812"/>
      <point x="143" y="813" type="curve"/>
      <point x="128" y="813"/>
      <point x="117" y="809"/>
      <point x="106" y="805" type="curve"/>
      <point x="100" y="802"/>
      <point x="95" y="800"/>
      <point x="90" y="797" type="curve"/>
    </contour>
    <contour>
      <point x="10" y="0" type="line"/>
      <point x="121" y="735" type="line"/>
      <point x="253" y="735" type="line"/>
      <point x="364" y="0" type="line"/>
      <point x="259" y="0" type="line"/>
      <point x="239" y="150" type="line"/>
      <point x="135" y="150" type="line"/>
      <point x="115" y="0" type="line"/>
    </contour>
    <contour>
      <point x="193" y="496" type="line"/>
      <point x="190" y="515" type="line"/>
      <point x="184" y="515" type="line"/>
      <point x="181" y="496" type="line"/>
      <point x="150" y="264" type="line"/>
      <point x="224" y="264" type="line"/>
    </contour>
  </outline>
</glyph>
<glyph name="AE" format="1">
  <advance width="537"/>
  <unicode hex="00C6"/>
  <outline>
    <contour>
      <point x="270" y="150" type="line"/>
      <point x="159" y="150" type="line"/>
      <point x="115" y="0" type="line"/>
      <point x="8" y="0" type="line"/>
      <point x="213" y="735" type="line"/>
      <point x="517" y="735" type="line"/>
      <point x="517" y="624" type="line"/>
      <point x="378" y="624" type="line"/>
      <point x="378" y="431" type="line"/>
      <point x="478" y="431" type="line"/>
      <point x="478" y="313" type="line"/>
      <point x="378" y="313" type="line"/>
      <point x="378" y="111" type="line"/>
      <point x="517" y="111" type="line"/>
      <point x="517" y="0" type="line"/>
      <point x="270" y="0" type="line"/>
    </contour>
    <contour>
      <point x="192" y="264" type="line"/>
      <point x="270" y="264" type="line"/>
      <point x="270" y="515" type="line"/>
      <point x="265" y="515" type="line"/>
    </contour>
    <contour>
      <point x="269" y="735" type="move" name="top"/>
    </contour>
  </outline>
</glyph>
<glyph name="Eacute" format="1">
  <advance width="307"/>
  <unicode hex="00C9"/>
  <outline>
    <contour>
      <point x="272" y="890" type="line"/>
      <point x="193" y="800" type="line"/>
      <point x="115" y="800" type="line"/>
      <point x="167" y="890" type="line"/>
    </contour>
    <contour>
      <point x="40" y="735" type="line"/>
      <point x="287" y="735" type="line"/>
      <point x="287" y="624" type="line"/>
      <point x="148" y="624" type="line"/>
      <point x="148" y="431" type="line"/>
      <point x="248" y="431" type="line"/>
      <point x="248" y="313" type="line"/>
      <point x="148" y="313" type="line"/>
      <point x="148" y="111" type="line"/>
      <point x="287" y="111" type="line"/>
      <point x="287" y="0" type="line"/>
      <point x="40" y="0" type="line"/>
    </contour>
  </outline>
</glyph>
<glyph name="Igrave" format="1">
  <advance width="196"/>
  <unicode hex="00CC"/>
  <outline>
    <contour>
      <point x="102" y="890" type="line"/>
      <point x="154" y="800" type="line"/>
      <point x="76" y="800" type="line"/>
      <point x="-3" y="890" type="line"/>
    </contour>
    <contour>
      <point x="48" y="735" type="line"/>
      <point x="156" y="735" type="line"/>
      <point x="156" y="0" type="line"/>
      <point x="48" y="0" type="line"/>
    </contour>
  </outline>
</glyph>
<glyph name="Icircumflex" format="1">
  <advance width="181"/>
  <unicode hex="00CE"/>
  <outline>
    <contour>
      <point x="144" y="890" type="line"/>
      <point x="213" y="800" type="line"/>
      <point x="121" y="800" type="line"/>
      <point x="90" y="835" type="line"/>
      <point x="60" y="800" type="line"/>
      <point x="-32" y="800" type="line"/>
      <point x="37" y="890" type="line"/>
    </contour>
    <contour>
      <point x="36" y="735" type="line"/>
      <point x="144" y="735" type="line"/>
      <point x="144" y="0" type="line"/>
      <point x="36" y="0" type="line"/>
    </contour>
  </outline>
</glyph>
<glyph name="Idieresis" format="1">
  <advance width="182"/>
  <unicode hex="00CF"/>
  <outline>
    <contour>
      <point x="37" y="735" type="line"/>
      <point x="145" y="735" type="line"/>
      <point x="145" y="0" type="line"/>
      <point x="37" y="0" type="line"/>
    </contour>
    <contour>
      <point x="-26" y="898" type="line"/>
      <point x="67" y="898" type="line"/>
      <point x="67" y="800" type="line"/>
      <point x="-26" y="800" type="line"/>
    </contour>
    <contour>
      <point x="115" y="898" type="line"/>
      <point x="208" y="898" type="line"/>
      <point x="208" y="800" type="line"/>
      <point x="115" y="800" type="line"/>
    </contour>
  </outline>
</glyph>
<glyph name="Ntilde" format="1">
  <advance width="395"/>
  <unicode hex="00D1"/>
  <outline>
    <contour>
      <point x="101" y="871" type="line"/>
      <point x="110" y="878"/>
      <point x="122" y="883"/>
      <point x="134" y="887" type="curve" smooth="yes"/>
      <point x="140" y="889"/>
      <point x="147" y="890"/>
      <point x="154" y="890" type="curve" smooth="yes"/>
      <point x="169" y="890"/>
      <point x="184" y="887"/>
      <point x="198" y="882" type="curve"/>
      <point x="212" y="876"/>
      <point x="227" y="872"/>
      <point x="242" y="871" type="curve"/>
      <point x="257" y="871"/>
      <point x="268" y="875"/>
      <point x="279" y="879" type="curve"/>
      <point x="285" y="882"/>
      <point x="290" y="884"/>
      <point x="295" y="887" type="curve"/>
      <point x="295" y="813" type="line"/>
      <point x="286" y="805"/>
      <point x="274" y="800"/>
      <point x="262" y="797" type="curve"/>
      <point x="256" y="795"/>
      <point x="249" y="794"/>
      <point x="242" y="794" type="curve" smooth="yes"/>
      <point x="227" y="794"/>
      <point x="212" y="797"/>
      <point x="199" y="803" type="curve" smooth="yes"/>
      <point x="185" y="809"/>
      <point x="170" y="812"/>
      <point x="154" y="813" type="curve"/>
      <point x="139" y="813"/>
      <point x="128" y="809"/>
      <point x="117" y="805" type="curve"/>
      <point x="111" y="802"/>
      <point x="106" y="800"/>
      <point x="101" y="797" type="curve"/>
    </contour>
    <contour>
      <point x="154" y="383" type="line"/>
      <point x="145" y="417" type="line"/>
      <point x="139" y="417" type="line"/>
      <point x="139" y="0" type="line"/>
      <point x="40" y="0" type="line"/>
      <point x="40" y="735" type="line"/>
      <point x="136" y="735" type="line"/>
      <point x="241" y="352" type="line"/>
      <point x="250" y="318" type="line"/>
      <point x="256" y="318" type="line"/>
      <point x="256" y="735" type="line"/>
      <point x="355" y="735" type="line"/>
      <point x="355" y="0" type="line"/>
      <point x="259" y="0" type="line"/>
    </contour>
  </outline>
</glyph>
<glyph name="Otilde" format="1">
  <advance width="354"/>
  <unicode hex="00D5"/>
  <outline>
    <contour>
      <point x="80" y="871" type="line"/>
      <point x="89" y="878"/>
      <point x="101" y="883"/>
      <point x="113" y="887" type="curve" smooth="yes"/>
      <point x="119" y="889"/>
      <point x="126" y="890"/>
      <point x="133" y="890" type="curve" smooth="yes"/>
      <point x="148" y="890"/>
      <point x="163" y="887"/>
      <point x="177" y="882" type="curve"/>
      <point x="191" y="876"/>
      <point x="206" y="872"/>
      <point x="221" y="871" type="curve"/>
      <point x="236" y="871"/>
      <point x="247" y="875"/>
      <point x="258" y="879" type="curve"/>
      <point x="264" y="882"/>
      <point x="269" y="884"/>
      <point x="274" y="887" type="curve"/>
      <point x="274" y="813" type="line"/>
      <point x="265" y="805"/>
      <point x="253" y="800"/>
      <point x="241" y="797" type="curve"/>
      <point x="235" y="795"/>
      <point x="228" y="794"/>
      <point x="221" y="794" type="curve" smooth="yes"/>
      <point x="206" y="794"/>
      <point x="191" y="797"/>
      <point x="178" y="803" type="curve" smooth="yes"/>
      <point x="164" y="809"/>
      <point x="149" y="812"/>
      <point x="133" y="813" type="curve"/>
      <point x="118" y="813"/>
      <point x="107" y="809"/>
      <point x="96" y="805" type="curve"/>
      <point x="90" y="802"/>
      <point x="85" y="800"/>
      <point x="80" y="797" type="curve"/>
    </contour>
    <contour>
      <point x="321" y="151" type="line"/>
      <point x="320" y="121"/>
      <point x="314" y="94"/>
      <point x="303" y="71" type="curve" smooth="yes"/>
      <point x="294" y="51"/>
      <point x="280" y="32"/>
      <point x="260" y="17" type="curve" smooth="yes"/>
      <point x="240" y="1"/>
      <point x="213" y="-8"/>
      <point x="177" y="-8" type="curve" smooth="yes"/>
      <point x="141" y="-8"/>
      <point x="113" y="1"/>
      <point x="93" y="17" type="curve" smooth="yes"/>
      <point x="73" y="32"/>
      <point x="60" y="51"/>
      <point x="51" y="71" type="curve" smooth="yes"/>
      <point x="40" y="94"/>
      <point x="34" y="121"/>
      <point x="33" y="151" type="curve" smooth="yes"/>
      <point x="33" y="584" type="line" smooth="yes"/>
      <point x="34" y="613"/>
      <point x="40" y="640"/>
      <point x="51" y="663" type="curve" smooth="yes"/>
      <point x="60" y="683"/>
      <point x="73" y="703"/>
      <point x="93" y="718" type="curve" smooth="yes"/>
      <point x="113" y="733"/>
      <point x="141" y="743"/>
      <point x="177" y="743" type="curve" smooth="yes"/>
      <point x="213" y="743"/>
      <point x="240" y="733"/>
      <point x="260" y="718" type="curve" smooth="yes"/>
      <point x="280" y="703"/>
      <point x="294" y="683"/>
      <point x="303" y="663" type="curve" smooth="yes"/>
      <point x="314" y="640"/>
      <point x="320" y="613"/>
      <point x="321" y="584" type="curve" smooth="yes"/>
    </contour>
    <contour>
      <point x="213" y="584" type="line" smooth="yes"/>
      <point x="213" y="604"/>
      <point x="209" y="618"/>
      <point x="199" y="630" type="curve"/>
      <point x="194" y="635"/>
      <point x="186" y="638"/>
      <point x="177" y="638" type="curve" smooth="yes"/>
      <point x="158" y="638"/>
      <point x="149" y="624"/>
      <point x="145" y="611" type="curve"/>
      <point x="142" y="603"/>
      <point x="141" y="594"/>
      <point x="141" y="584" type="curve" smooth="yes"/>
      <point x="141" y="151" type="line" smooth="yes"/>
      <point x="141" y="130"/>
      <point x="146" y="116"/>
      <point x="156" y="105" type="curve" smooth="yes"/>
      <point x="161" y="100"/>
      <point x="168" y="97"/>
      <point x="177" y="97" type="curve" smooth="yes"/>
      <point x="196" y="97"/>
      <point x="205" y="109"/>
      <point x="209" y="124" type="curve"/>
      <point x="212" y="131"/>
      <point x="213" y="140"/>
      <point x="213" y="151" type="curve" smooth="yes"/>
    </contour>
  </outline>
</glyph>
<glyph name="Oslash" format="1">
  <advance width="354"/>
  <unicode hex="00D8"/>
  <outline>
    <contour>
      <point x="29" y="-10" type="line"/>
      <point x="52" y="67" type="line"/>
      <point x="41" y="87"/>
      <point x="38" y="108"/>
      <point x="35" y="124" type="curve"/>
      <point x="34" y="133"/>
      <point x="33" y="142"/>
      <point x="33" y="151" type="curve" smooth="yes"/>
      <point x="33" y="584" type="line" smooth="yes"/>
      <point x="34" y="613"/>
      <point x="40" y="640"/>
      <point x="51" y="663" type="curve" smooth="yes"/>
      <point x="60" y="683"/>
      <point x="73" y="703"/>
      <point x="93" y="718" type="curve" smooth="yes"/>
      <point x="113" y="733"/>
      <point x="141" y="743"/>
      <point x="177" y="743" type="curve" smooth="yes"/>
      <point x="209" y="743"/>
      <point x="234" y="735"/>
      <point x="254" y="722" type="curve"/>
      <point x="261" y="745" type="line"/>
      <point x="321" y="745" type="line"/>
      <point x="299" y="672" type="line"/>
      <point x="310" y="651"/>
      <point x="315" y="629"/>
      <point x="318" y="612" type="curve" smooth="yes"/>
      <point x="320" y="602"/>
      <point x="321" y="593"/>
      <point x="321" y="584" type="curve" smooth="yes"/>
      <point x="321" y="151" type="line" smooth="yes"/>
      <point x="320" y="121"/>
      <point x="314" y="94"/>
      <point x="303" y="71" type="curve" smooth="yes"/>
      <point x="294" y="51"/>
      <point x="280" y="32"/>
      <point x="260" y="17" type="curve" smooth="yes"/>
      <point x="240" y="1"/>
      <point x="213" y="-8"/>
      <point x="177" y="-8" type="curve" smooth="yes"/>
      <point x="144" y="-8"/>
      <point x="118" y="0"/>
      <point x="99" y="13" type="curve"/>
      <point x="92" y="-10" type="line"/>
    </contour>
    <contour>
      <point x="196" y="97"/>
      <point x="205" y="109"/>
      <point x="209" y="124" type="curve"/>
      <point x="212" y="131"/>
      <point x="213" y="140"/>
      <point x="213" y="151" type="curve" smooth="yes"/>
      <point x="213" y="389" type="line"/>
      <point x="141" y="151" type="line"/>
      <point x="141" y="130"/>
      <point x="146" y="116"/>
      <point x="156" y="105" type="curve"/>
      <point x="161" y="100"/>
      <point x="168" y="97"/>
      <point x="177" y="97" type="curve" smooth="yes"/>
    </contour>
    <contour>
      <point x="141" y="355" type="line"/>
      <point x="213" y="589" type="line"/>
      <point x="213" y="594"/>
      <point x="211" y="606"/>
      <point x="207" y="618" type="curve"/>
      <point x="202" y="629"/>
      <point x="193" y="638"/>
      <point x="177" y="638" type="curve" smooth="yes"/>
      <point x="158" y="638"/>
      <point x="149" y="624"/>
      <point x="145" y="611" type="curve"/>
      <point x="142" y="603"/>
      <point x="141" y="594"/>
      <point x="141" y="584" type="curve" smooth="yes"/>
    </contour>
    <contour>
      <point x="177" y="735" type="move" name="top"/>
    </contour>
  </outline>
</glyph>
<glyph name="Yacute" format="1">
  <advance width="344"/>
  <unicode hex="00DD"/>
  <outline>
    <contour>
      <point x="168" y="500" type="line"/>
      <point x="171" y="493" type="line"/>
      <point x="173" y="493" type="line"/>
      <point x="176" y="500" type="line"/>
      <point x="230" y="735" type="line"/>
      <point x="336" y="735" type="line"/>
      <point x="226" y="313" type="line"/>
      <point x="226" y="0" type="line"/>
      <point x="118" y="0" type="line"/>
      <point x="118" y="313" type="line"/>
      <point x="8" y="735" type="line"/>
      <point x="114" y="735" type="line"/>
    </contour>
    <contour>
      <point x="281" y="890" type="line"/>
      <point x="202" y="800" type="line"/>
      <point x="124" y="800" type="line"/>
      <point x="176" y="890" type="line"/>
    </contour>
  </outline>
</glyph>
<glyph name="atilde" format="1">
  <advance width="333"/>
  <unicode hex="00E3"/>
  <outline>
    <contour>
      <point x="70" y="711" type="line"/>
      <point x="79" y="718"/>
      <point x="91" y="723"/>
      <point x="103" y="727" type="curve" smooth="yes"/>
      <point x="109" y="729"/>
      <point x="116" y="730"/>
      <point x="123" y="730" type="curve" smooth="yes"/>
      <point x="138" y="730"/>
      <point x="153" y="727"/>
      <point x="167" y="722" type="curve"/>
      <point x="181" y="716"/>
      <point x="196" y="712"/>
      <point x="211" y="711" type="curve"/>
      <point x="226" y="711"/>
      <point x="237" y="715"/>
      <point x="248" y="719" type="curve"/>
      <point x="254" y="722"/>
      <point x="259" y="724"/>
      <point x="264" y="727" type="curve"/>
      <point x="264" y="653" type="line"/>
      <point x="255" y="645"/>
      <point x="243" y="640"/>
      <point x="231" y="637" type="curve"/>
      <point x="225" y="635"/>
      <point x="218" y="634"/>
      <point x="211" y="634" type="curve" smooth="yes"/>
      <point x="196" y="634"/>
      <point x="181" y="637"/>
      <point x="168" y="643" type="curve" smooth="yes"/>
      <point x="154" y="649"/>
      <point x="139" y="652"/>
      <point x="123" y="653" type="curve"/>
      <point x="108" y="653"/>
      <point x="97" y="649"/>
      <point x="86" y="645" type="curve"/>
      <point x="80" y="642"/>
      <point x="75" y="640"/>
      <point x="70" y="637" type="curve"/>
    </contour>
    <contour>
      <point x="193" y="417" type="line" smooth="yes"/>
      <point x="193" y="426"/>
      <point x="193" y="440"/>
      <point x="190" y="450" type="curve"/>
      <point x="186" y="460"/>
      <point x="178" y="467"/>
      <point x="165" y="467" type="curve" smooth="yes"/>
      <point x="148" y="467"/>
      <point x="141" y="454"/>
      <point x="138" y="438" type="curve"/>
      <point x="137" y="430"/>
      <point x="136" y="421"/>
      <point x="136" y="412" type="curve" smooth="yes"/>
      <point x="136" y="403"/>
      <point x="136" y="394"/>
      <point x="136" y="386" type="curve"/>
      <point x="35" y="386" type="line"/>
      <point x="35" y="409" type="line" smooth="yes"/>
      <point x="35" y="449"/>
      <point x="50" y="485"/>
      <point x="74" y="512" type="curve" smooth="yes"/>
      <point x="98" y="539"/>
      <point x="132" y="555"/>
      <point x="171" y="555" type="curve" smooth="yes"/>
      <point x="204" y="555"/>
      <point x="234" y="542"/>
      <point x="257" y="520" type="curve" smooth="yes"/>
      <point x="280" y="498"/>
      <point x="294" y="467"/>
      <point x="294" y="431" type="curve" smooth="yes"/>
      <point x="294" y="95" type="line" smooth="yes"/>
      <point x="294" y="46"/>
      <point x="297" y="24"/>
      <point x="301" y="0" type="curve"/>
      <point x="202" y="0" type="line"/>
      <point x="193" y="11"/>
      <point x="193" y="37"/>
      <point x="193" y="44" type="curve"/>
      <point x="186" y="44" type="line"/>
      <point x="181" y="35"/>
      <point x="172" y="22"/>
      <point x="158" y="11" type="curve" smooth="yes"/>
      <point x="144" y="0"/>
      <point x="125" y="-8"/>
      <point x="105" y="-8" type="curve" smooth="yes"/>
      <point x="92" y="-8"/>
      <point x="71" y="-3"/>
      <point x="55" y="17" type="curve"/>
      <point x="38" y="36"/>
      <point x="24" y="70"/>
      <point x="24" y="127" type="curve" smooth="yes"/>
      <point x="24" y="188"/>
      <point x="42" y="232"/>
      <point x="66" y="262" type="curve" smooth="yes"/>
      <point x="90" y="292"/>
      <point x="120" y="311"/>
      <point x="145" y="324" type="curve" smooth="yes"/>
      <point x="170" y="337"/>
      <point x="189" y="346"/>
      <point x="193" y="357" type="curve"/>
    </contour>
    <contour>
      <point x="193" y="264" type="line"/>
      <point x="144" y="243"/>
      <point x="123" y="194"/>
      <point x="123" y="142" type="curve" smooth="yes"/>
      <point x="123" y="135"/>
      <point x="124" y="123"/>
      <point x="128" y="112" type="curve" smooth="yes"/>
      <point x="132" y="100"/>
      <point x="139" y="91"/>
      <point x="151" y="91" type="curve" smooth="yes"/>
      <point x="174" y="91"/>
      <point x="193" y="105"/>
      <point x="193" y="124" type="curve" smooth="yes"/>
    </contour>
  </outline>
</glyph>
<glyph name="aring" format="1">
  <advance width="333"/>
  <unicode hex="00E5"/>
  <outline>
    <contour>
      <point x="92" y="694" type="curve" smooth="yes"/>
      <point x="92" y="735"/>
      <point x="126" y="764"/>
      <point x="167" y="764" type="curve" smooth="yes"/>
      <point x="208" y="764"/>
      <point x="241" y="735"/>
      <point x="241" y="694" type="curve" smooth="yes"/>
      <point x="241" y="653"/>
      <point x="208" y="624"/>
      <point x="167" y="624" type="curve" smooth="yes"/>
      <point x="126" y="624"/>
      <point x="92" y="653"/>
    </contour>
    <contour>
      <point x="130" y="694" type="curve" smooth="yes"/>
      <point x="130" y="675"/>
      <point x="148" y="659"/>
      <point x="167" y="659" type="curve" smooth="yes"/>
      <point x="186" y="659"/>
      <point x="204" y="675"/>
      <point x="204" y="694" type="curve" smooth="yes"/>
      <point x="204" y="713"/>
      <point x="186" y="729"/>
      <point x="167" y="729" type="curve" smooth="yes"/>
      <point x="148" y="729"/>
      <point x="130" y="713"/>
    </contour>
    <contour>
      <point x="193" y="417" type="line" smooth="yes"/>
      <point x="193" y="426"/>
      <point x="193" y="440"/>
      <point x="190" y="450" type="curve"/>
      <point x="186" y="460"/>
      <point x="178" y="467"/>
      <point x="165" y="467" type="curve" smooth="yes"/>
      <point x="148" y="467"/>
      <point x="141" y="454"/>
      <point x="138" y="438" type="curve"/>
      <point x="137" y="430"/>
      <point x="136" y="421"/>
      <point x="136" y="412" type="curve" smooth="yes"/>
      <point x="136" y="403"/>
      <point x="136" y="394"/>
      <point x="136" y="386" type="curve"/>
      <point x="35" y="386" type="line"/>
      <point x="35" y="409" type="line" smooth="yes"/>
      <point x="35" y="449"/>
      <point x="50" y="485"/>
      <point x="74" y="512" type="curve" smooth="yes"/>
      <point x="98" y="539"/>
      <point x="132" y="555"/>
      <point x="171" y="555" type="curve" smooth="yes"/>
      <point x="204" y="555"/>
      <point x="234" y="542"/>
      <point x="257" y="520" type="curve" smooth="yes"/>
      <point x="280" y="498"/>
      <point x="294" y="467"/>
      <point x="294" y="431" type="curve" smooth="yes"/>
      <point x="294" y="95" type="line" smooth="yes"/>
      <point x="294" y="46"/>
      <point x="297" y="24"/>
      <point x="301" y="0" type="curve"/>
      <point x="202" y="0" type="line"/>
      <point x="193" y="11"/>
      <point x="193" y="37"/>
      <point x="193" y="44" type="curve"/>
      <point x="186" y="44" type="line"/>
      <point x="181" y="35"/>
      <point x="172" y="22"/>
      <point x="158" y="11" type="curve" smooth="yes"/>
      <point x="144" y="0"/>
      <point x="125" y="-8"/>
      <point x="105" y="-8" type="curve" smooth="yes"/>
      <point x="92" y="-8"/>
      <point x="71" y="-3"/>
      <point x="55" y="17" type="curve"/>
      <point x="38" y="36"/>
      <point x="24" y="70"/>
      <point x="24" y="127" type="curve" smooth="yes"/>
      <point x="24" y="188"/>
      <point x="42" y="232"/>
      <point x="66" y="262" type="curve" smooth="yes"/>
      <point x="90" y="292"/>
      <point x="120" y="311"/>
      <point x="145" y="324" type="curve" smooth="yes"/>
      <point x="170" y="337"/>
      <point x="189" y="346"/>
      <point x="193" y="357" type="curve"/>
    </contour>
    <contour>
      <point x="193" y="264" type="line"/>
      <point x="144" y="243"/>
      <point x="123" y="194"/>
      <point x="123" y="142" type="curve" smooth="yes"/>
      <point x="123" y="135"/>
      <point x="124" y="123"/>
      <point x="128" y="112" type="curve" smooth="yes"/>
      <point x="132" y="100"/>
      <point x="139" y="91"/>
      <point x="151" y="91" type="curve" smooth="yes"/>
      <point x="174" y="91"/>
      <point x="193" y="105"/>
      <point x="193" y="124" type="curve" smooth="yes"/>
    </contour>
  </outline>
</glyph>
<glyph name="ae" format="1">
  <advance width="483"/>
  <unicode hex="00E6"/>
  <outline>
    <contour>
      <point x="454" y="196" type="line"/>
      <point x="454" y="133" type="line"/>
      <point x="451" y="80"/>
      <point x="435" y="43"/>
      <point x="399" y="14" type="curve" smooth="yes"/>
      <point x="381" y="-1"/>
      <point x="356" y="-8"/>
      <point x="323" y="-8" type="curve" smooth="yes"/>
      <point x="262" y="-8"/>
      <point x="230" y="23"/>
      <point x="213" y="56" type="curve"/>
      <point x="185" y="20"/>
      <point x="149" y="-8"/>
      <point x="105" y="-8" type="curve" smooth="yes"/>
      <point x="92" y="-8"/>
      <point x="71" y="-3"/>
      <point x="55" y="17" type="curve"/>
      <point x="38" y="36"/>
      <point x="24" y="70"/>
      <point x="24" y="127" type="curve" smooth="yes"/>
      <point x="24" y="188"/>
      <point x="42" y="232"/>
      <point x="66" y="262" type="curve" smooth="yes"/>
      <point x="90" y="292"/>
      <point x="120" y="311"/>
      <point x="145" y="324" type="curve" smooth="yes"/>
      <point x="170" y="337"/>
      <point x="189" y="346"/>
      <point x="193" y="357" type="curve"/>
      <point x="193" y="417" type="line" smooth="yes"/>
      <point x="193" y="426"/>
      <point x="193" y="440"/>
      <point x="190" y="450" type="curve"/>
      <point x="186" y="460"/>
      <point x="178" y="467"/>
      <point x="165" y="467" type="curve" smooth="yes"/>
      <point x="148" y="467"/>
      <point x="141" y="454"/>
      <point x="138" y="438" type="curve"/>
      <point x="137" y="430"/>
      <point x="136" y="421"/>
      <point x="136" y="412" type="curve" smooth="yes"/>
      <point x="136" y="403"/>
      <point x="136" y="394"/>
      <point x="136" y="386" type="curve"/>
      <point x="35" y="386" type="line"/>
      <point x="35" y="409" type="line" smooth="yes"/>
      <point x="35" y="449"/>
      <point x="50" y="485"/>
      <point x="74" y="512" type="curve" smooth="yes"/>
      <point x="98" y="539"/>
      <point x="132" y="555"/>
      <point x="171" y="555" type="curve" smooth="yes"/>
      <point x="198" y="555"/>
      <point x="223" y="547"/>
      <point x="245" y="530" type="curve"/>
      <point x="264" y="545"/>
      <point x="289" y="555"/>
      <point x="324" y="555" type="curve" smooth="yes"/>
      <point x="389" y="555"/>
      <point x="422" y="519"/>
      <point x="438" y="484" type="curve" smooth="yes"/>
      <point x="447" y="463"/>
      <point x="453" y="440"/>
      <point x="454" y="414" type="curve" smooth="yes"/>
      <point x="454" y="255" type="line"/>
      <point x="287" y="255" type="line"/>
      <point x="287" y="136" type="line" smooth="yes"/>
      <point x="288" y="115"/>
      <point x="294" y="100"/>
      <point x="303" y="89" type="curve"/>
      <point x="308" y="84"/>
      <point x="315" y="81"/>
      <point x="324" y="81" type="curve" smooth="yes"/>
      <point x="343" y="81"/>
      <point x="352" y="93"/>
      <point x="356" y="108" type="curve"/>
      <point x="359" y="116"/>
      <point x="360" y="125"/>
      <point x="360" y="136" type="curve" smooth="yes"/>
      <point x="360" y="196" type="line"/>
    </contour>
    <contour>
      <point x="287" y="334" type="line"/>
      <point x="360" y="334" type="line"/>
      <point x="360" y="411" type="line" smooth="yes"/>
      <point x="360" y="432"/>
      <point x="356" y="447"/>
      <point x="346" y="459" type="curve"/>
      <point x="341" y="464"/>
      <point x="333" y="467"/>
      <point x="324" y="467" type="curve" smooth="yes"/>
      <point x="305" y="467"/>
      <point x="297" y="454"/>
      <point x="292" y="439" type="curve" smooth="yes"/>
      <point x="289" y="431"/>
      <point x="288" y="422"/>
      <point x="287" y="411" type="curve"/>
    </contour>
    <contour>
      <point x="193" y="264" type="line"/>
      <point x="144" y="243"/>
      <point x="123" y="194"/>
      <point x="123" y="142" type="curve" smooth="yes"/>
      <point x="123" y="135"/>
      <point x="124" y="123"/>
      <point x="128" y="112" type="curve" smooth="yes"/>
      <point x="132" y="100"/>
      <point x="139" y="91"/>
      <point x="151" y="91" type="curve" smooth="yes"/>
      <point x="174" y="91"/>
      <point x="193" y="105"/>
      <point x="193" y="124" type="curve" smooth="yes"/>
    </contour>
  </outline>
</glyph>
<glyph name="egrave" format="1">
  <advance width="322"/>
  <unicode hex="00E8"/>
  <outline>
    <contour>
      <point x="155" y="727" type="line"/>
      <point x="207" y="637" type="line"/>
      <point x="129" y="637" type="line"/>
      <point x="50" y="727" type="line"/>
    </contour>
    <contour>
      <point x="293" y="196" type="line"/>
      <point x="293" y="133" type="line"/>
      <point x="290" y="80"/>
      <point x="274" y="43"/>
      <point x="238" y="14" type="curve" smooth="yes"/>
      <point x="220" y="-1"/>
      <point x="195" y="-8"/>
      <point x="162" y="-8" type="curve" smooth="yes"/>
      <point x="97" y="-8"/>
      <point x="64" y="28"/>
      <point x="48" y="64" type="curve" smooth="yes"/>
      <point x="39" y="85"/>
      <point x="33" y="109"/>
      <point x="32" y="136" type="curve" smooth="yes"/>
      <point x="32" y="411" type="line"/>
      <point x="35" y="464"/>
      <point x="52" y="503"/>
      <point x="88" y="533" type="curve" smooth="yes"/>
      <point x="105" y="548"/>
      <point x="130" y="555"/>
      <point x="163" y="555" type="curve" smooth="yes"/>
      <point x="228" y="555"/>
      <point x="261" y="519"/>
      <point x="277" y="484" type="curve" smooth="yes"/>
      <point x="286" y="463"/>
      <point x="292" y="440"/>
      <point x="293" y="414" type="curve" smooth="yes"/>
      <point x="293" y="255" type="line"/>
      <point x="126" y="255" type="line"/>
      <point x="126" y="136" type="line" smooth="yes"/>
      <point x="127" y="115"/>
      <point x="133" y="100"/>
      <point x="142" y="89" type="curve"/>
      <point x="147" y="84"/>
      <point x="154" y="81"/>
      <point x="163" y="81" type="curve" smooth="yes"/>
      <point x="182" y="81"/>
      <point x="191" y="93"/>
      <point x="195" y="108" type="curve"/>
      <point x="198" y="116"/>
      <point x="199" y="125"/>
      <point x="199" y="136" type="curve" smooth="yes"/>
      <point x="199" y="196" type="line"/>
    </contour>
    <contour>
      <point x="126" y="334" type="line"/>
      <point x="199" y="334" type="line"/>
      <point x="199" y="411" type="line" smooth="yes"/>
      <point x="199" y="432"/>
      <point x="195" y="447"/>
      <point x="185" y="459" type="curve"/>
      <point x="180" y="464"/>
      <point x="172" y="467"/>
      <point x="163" y="467" type="curve" smooth="yes"/>
      <point x="144" y="467"/>
      <point x="136" y="454"/>
      <point x="131" y="439" type="curve" smooth="yes"/>
      <point x="128" y="431"/>
      <point x="127" y="422"/>
      <point x="126" y="411" type="curve"/>
    </contour>
  </outline>
</glyph>
<glyph name="icircumflex" format="1">
  <advance width="181"/>
  <unicode hex="00EE"/>
  <outline>
    <contour>
      <point x="144" y="727" type="line"/>
      <point x="213" y="637" type="line"/>
      <point x="121" y="637" type="line"/>
      <point x="90" y="672" type="line"/>
      <point x="60" y="637" type="line"/>
      <point x="-32" y="637" type="line"/>
      <point x="37" y="727" type="line"/>
    </contour>
    <contour>
      <point x="40" y="0" type="line"/>
      <point x="40" y="547" type="line"/>
      <point x="141" y="547" type="line"/>
      <point x="141" y="0" type="line"/>
    </contour>
  </outline>
</glyph>
<glyph name="ograve" format="1">
  <advance width="321"/>
  <unicode hex="00F2"/>
  <outline>
    <contour>
      <point x="153" y="727" type="line"/>
      <point x="205" y="637" type="line"/>
      <point x="127" y="637" type="line"/>
      <point x="48" y="727" type="line"/>
    </contour>
    <contour>
      <point x="290" y="133" type="line"/>
      <point x="287" y="80"/>
      <point x="271" y="43"/>
      <point x="236" y="14" type="curve" smooth="yes"/>
      <point x="218" y="-1"/>
      <point x="193" y="-8"/>
      <point x="160" y="-8" type="curve" smooth="yes"/>
      <point x="95" y="-8"/>
      <point x="63" y="28"/>
      <point x="47" y="64" type="curve" smooth="yes"/>
      <point x="38" y="85"/>
      <point x="32" y="109"/>
      <point x="31" y="136" type="curve" smooth="yes"/>
      <point x="31" y="411" type="line"/>
      <point x="34" y="464"/>
      <point x="50" y="503"/>
      <point x="85" y="533" type="curve" smooth="yes"/>
      <point x="102" y="548"/>
      <point x="127" y="555"/>
      <point x="160" y="555" type="curve" smooth="yes"/>
      <point x="225" y="555"/>
      <point x="258" y="519"/>
      <point x="274" y="484" type="curve" smooth="yes"/>
      <point x="283" y="463"/>
      <point x="289" y="440"/>
      <point x="290" y="414" type="curve" smooth="yes"/>
    </contour>
    <contour>
      <point x="195" y="411" type="line" smooth="yes"/>
      <point x="196" y="432"/>
      <point x="192" y="447"/>
      <point x="182" y="459" type="curve"/>
      <point x="177" y="464"/>
      <point x="169" y="467"/>
      <point x="160" y="467" type="curve" smooth="yes"/>
      <point x="141" y="467"/>
      <point x="133" y="454"/>
      <point x="129" y="439" type="curve"/>
      <point x="126" y="431"/>
      <point x="125" y="422"/>
      <point x="126" y="411" type="curve"/>
      <point x="126" y="136" type="line"/>
      <point x="125" y="115"/>
      <point x="130" y="100"/>
      <point x="139" y="89" type="curve"/>
      <point x="144" y="84"/>
      <point x="151" y="81"/>
      <point x="160" y="81" type="curve" smooth="yes"/>
      <point x="179" y="81"/>
      <point x="188" y="93"/>
      <point x="192" y="108" type="curve"/>
      <point x="195" y="116"/>
      <point x="196" y="125"/>
      <point x="195" y="136" type="curve"/>
    </contour>
  </outline>
</glyph>
<glyph name="ydieresis" format="1">
  <advance width="310"/>
  <unicode hex="00FF"/>
  <outline>
    <contour>
      <point x="38" y="735" type="line"/>
      <point x="131" y="735" type="line"/>
      <point x="131" y="637" type="line"/>
      <point x="38" y="637" type="line"/>
    </contour>
    <contour>
      <point x="179" y="735" type="line"/>
      <point x="272" y="735" type="line"/>
      <point x="272" y="637" type="line"/>
      <point x="179" y="637" type="line"/>
    </contour>
    <contour>
      <point x="16" y="-104" type="line"/>
      <point x="17" y="-105"/>
      <point x="19" y="-105"/>
      <point x="22" y="-105" type="curve"/>
      <point x="27" y="-106"/>
      <point x="52" y="-108"/>
      <point x="68" y="-96" type="curve" smooth="yes"/>
      <point x="84" y="-84"/>
      <point x="95" y="-67"/>
      <point x="101" y="-46" type="curve" smooth="yes"/>
      <point x="104" y="-36"/>
      <point x="105" y="-26"/>
      <point x="105" y="-16" type="curve"/>
      <point x="12" y="547" type="line"/>
      <point x="111" y="547" type="line"/>
      <point x="151" y="211" type="line"/>
      <point x="153" y="183" type="line"/>
      <point x="157" y="183" type="line"/>
      <point x="159" y="211" type="line"/>
      <point x="199" y="547" type="line"/>
      <point x="298" y="547" type="line"/>
      <point x="201" y="-41" type="line" smooth="yes"/>
      <point x="196" y="-80"/>
      <point x="181" y="-118"/>
      <point x="157" y="-147" type="curve" smooth="yes"/>
      <point x="133" y="-176"/>
      <point x="101" y="-196"/>
      <point x="61" y="-196" type="curve" smooth="yes"/>
      <point x="58" y="-196"/>
      <point x="54" y="-196"/>
      <point x="49" y="-196" type="curve" smooth="yes"/>
      <point x="40" y="-196"/>
      <point x="28" y="-195"/>
      <point x="16" y="-194" type="curve"/>
    </contour>
  </outline>
</glyph>
<glyph name="Amacron" format="1">
  <advance width="374"/>
  <unicode hex="0100"/>
  <outline>
    <contour>
      <point x="91" y="909" type="line"/>
      <point x="285" y="909" type="line"/>
      <point x="285" y="830" type="line"/>
      <point x="91" y="830" type="line"/>
    </contour>
    <contour>
      <point x="10" y="0" type="line"/>
      <point x="121" y="735" type="line"/>
      <point x="253" y="735" type="line"/>
      <point x="364" y="0" type="line"/>
      <point x="259" y="0" type="line"/>
      <point x="239" y="150" type="line"/>
      <point x="135" y="150" type="line"/>
      <point x="115" y="0" type="line"/>
    </contour>
    <contour>
      <point x="193" y="496" type="line"/>
      <point x="190" y="515" type="line"/>
      <point x="184" y="515" type="line"/>
      <point x="181" y="496" type="line"/>
      <point x="150" y="264" type="line"/>
      <point x="224" y="264" type="line"/>
    </contour>
  </outline>
</glyph>
<glyph name="Abreve" format="1">
  <advance width="374"/>
  <unicode hex="0102"/>
  <outline>
    <contour>
      <point x="10" y="0" type="line"/>
      <point x="121" y="735" type="line"/>
      <point x="253" y="735" type="line"/>
      <point x="364" y="0" type="line"/>
      <point x="259" y="0" type="line"/>
      <point x="239" y="150" type="line"/>
      <point x="135" y="150" type="line"/>
      <point x="115" y="0" type="line"/>
    </contour>
    <contour>
      <point x="193" y="496" type="line"/>
      <point x="190" y="515" type="line"/>
      <point x="184" y="515" type="line"/>
      <point x="181" y="496" type="line"/>
      <point x="150" y="264" type="line"/>
      <point x="224" y="264" type="line"/>
    </contour>
    <contour>
      <point x="298" y="871" type="line"/>
      <point x="281" y="854"/>
      <point x="261" y="840"/>
      <point x="234" y="831" type="curve"/>
      <point x="221" y="826"/>
      <point x="205" y="824"/>
      <point x="188" y="824" type="curve" smooth="yes"/>
      <point x="153" y="824"/>
      <point x="126" y="835"/>
      <point x="107" y="847" type="curve" smooth="yes"/>
      <point x="96" y="854"/>
      <point x="86" y="862"/>
      <point x="78" y="871" type="curve"/>
      <point x="132" y="917" type="line"/>
      <point x="139" y="908"/>
      <point x="150" y="901"/>
      <point x="164" y="897" type="curve" smooth="yes"/>
      <point x="171" y="895"/>
      <point x="179" y="894"/>
      <point x="188" y="894" type="curve" smooth="yes"/>
      <point x="207" y="894"/>
      <point x="220" y="898"/>
      <point x="231" y="905" type="curve"/>
      <point x="237" y="908"/>
      <point x="242" y="912"/>
      <point x="246" y="917" type="curve"/>
    </contour>
  </outline>
</glyph>
<glyph name="Aogonek" format="1">
  <advance width="374"/>
  <unicode hex="0104"/>
  <outline>
    <contour>
      <point x="364" y="0" type="line"/>
      <point x="253" y="735" type="line"/>
      <point x="121" y="735" type="line"/>
      <point x="10" y="0" type="line"/>
      <point x="115" y="0" type="line"/>
      <point x="135" y="150" type="line"/>
      <point x="239" y="150" type="line"/>
      <point x="259" y="0" type="line"/>
      <point x="269" y="0" type="line"/>
      <point x="256" y="-9"/>
      <point x="245" y="-20"/>
      <point x="236" y="-31" type="curve" smooth="yes"/>
      <point x="219" y="-50"/>
      <point x="203" y="-75"/>
      <point x="203" y="-103" type="curve" smooth="yes"/>
      <point x="203" y="-148"/>
      <point x="240" y="-188"/>
      <point x="305" y="-188" type="curve" smooth="yes"/>
      <point x="322" y="-188"/>
      <point x="335" y="-186"/>
      <point x="356" y="-179" type="curve"/>
      <point x="364" y="-112" type="line"/>
      <point x="352" y="-117"/>
      <point x="339" y="-121"/>
      <point x="322" y="-121" type="curve" smooth="yes"/>
      <point x="299" y="-121"/>
      <point x="272" y="-112"/>
      <point x="272" y="-83" type="curve" smooth="yes"/>
      <point x="272" y="-71"/>
      <point x="274" y="-60"/>
      <point x="279" y="-50" type="curve" smooth="yes"/>
      <point x="288" y="-30"/>
      <point x="300" y="-15"/>
      <point x="317" y="0" type="curve"/>
    </contour>
    <contour>
      <point x="150" y="264" type="line"/>
      <point x="181" y="496" type="line"/>
      <point x="184" y="515" type="line"/>
      <point x="190" y="515" type="line"/>
      <point x="193" y="496" type="line"/>
      <point x="224" y="264" type="line"/>
    </contour>
  </outline>
</glyph>
<glyph name="cacute" format="1">
  <advance width="315"/>
  <unicode hex="0107"/>
  <outline>
    <contour>
      <point x="133" y="126" type="line" smooth="yes"/>
      <point x="133" y="106"/>
      <point x="134" y="82"/>
      <point x="161" y="82" type="curve" smooth="yes"/>
      <point x="184" y="82"/>
      <point x="190" y="93"/>
      <point x="190" y="126" type="curve" smooth="yes"/>
      <point x="190" y="202" type="line"/>
      <point x="291" y="202" type="line"/>
      <point x="291" y="149" type="line" smooth="yes"/>
      <point x="291" y="88"/>
      <point x="280" y="49"/>
      <point x="258" y="25" type="curve" smooth="yes"/>
      <point x="236" y="1"/>
      <point x="204" y="-8"/>
      <point x="161" y="-8" type="curve" smooth="yes"/>
      <point x="125" y="-8"/>
      <point x="92" y="2"/>
      <point x="69" y="27" type="curve" smooth="yes"/>
      <point x="46" y="52"/>
      <point x="32" y="93"/>
      <point x="32" y="154" type="curve" smooth="yes"/>
      <point x="32" y="393" type="line" smooth="yes"/>
      <point x="32" y="454"/>
      <point x="46" y="495"/>
      <point x="69" y="520" type="curve" smooth="yes"/>
      <point x="92" y="545"/>
      <point x="125" y="555"/>
      <point x="161" y="555" type="curve" smooth="yes"/>
      <point x="204" y="555"/>
      <point x="236" y="546"/>
      <point x="258" y="522" type="curve" smooth="yes"/>
      <point x="280" y="498"/>
      <point x="291" y="459"/>
      <point x="291" y="398" type="curve" smooth="yes"/>
      <point x="291" y="355" type="line"/>
      <point x="190" y="355" type="line"/>
      <point x="190" y="421" type="line" smooth="yes"/>
      <point x="190" y="454"/>
      <point x="184" y="465"/>
      <point x="161" y="465" type="curve" smooth="yes"/>
      <point x="134" y="465"/>
      <point x="133" y="441"/>
      <point x="133" y="421" type="curve" smooth="yes"/>
    </contour>
    <contour>
      <point x="237" y="727" type="line"/>
      <point x="158" y="637" type="line"/>
      <point x="80" y="637" type="line"/>
      <point x="132" y="727" type="line"/>
    </contour>
  </outline>
</glyph>
<glyph name="Cdotaccent" format="1">
  <advance width="346"/>
  <unicode hex="010A"/>
  <outline>
    <contour>
      <point x="124" y="923" type="line"/>
      <point x="225" y="923" type="line"/>
      <point x="225" y="822" type="line"/>
      <point x="124" y="822" type="line"/>
    </contour>
    <contour>
      <point x="321" y="252" type="line"/>
      <point x="321" y="151" type="line"/>
      <point x="320" y="121"/>
      <point x="314" y="94"/>
      <point x="303" y="71" type="curve" smooth="yes"/>
      <point x="294" y="51"/>
      <point x="280" y="32"/>
      <point x="260" y="17" type="curve" smooth="yes"/>
      <point x="240" y="1"/>
      <point x="213" y="-8"/>
      <point x="177" y="-8" type="curve" smooth="yes"/>
      <point x="141" y="-8"/>
      <point x="113" y="1"/>
      <point x="93" y="17" type="curve" smooth="yes"/>
      <point x="73" y="32"/>
      <point x="60" y="51"/>
      <point x="51" y="71" type="curve" smooth="yes"/>
      <point x="40" y="94"/>
      <point x="34" y="121"/>
      <point x="33" y="151" type="curve" smooth="yes"/>
      <point x="33" y="584" type="line" smooth="yes"/>
      <point x="34" y="613"/>
      <point x="40" y="640"/>
      <point x="51" y="663" type="curve" smooth="yes"/>
      <point x="60" y="683"/>
      <point x="73" y="703"/>
      <point x="93" y="718" type="curve" smooth="yes"/>
      <point x="113" y="733"/>
      <point x="141" y="743"/>
      <point x="177" y="743" type="curve" smooth="yes"/>
      <point x="213" y="743"/>
      <point x="240" y="733"/>
      <point x="260" y="718" type="curve" smooth="yes"/>
      <point x="280" y="703"/>
      <point x="294" y="683"/>
      <point x="303" y="663" type="curve" smooth="yes"/>
      <point x="314" y="640"/>
      <point x="320" y="613"/>
      <point x="321" y="584" type="curve" smooth="yes"/>
      <point x="321" y="483" type="line"/>
      <point x="220" y="483" type="line"/>
      <point x="220" y="584" type="line" smooth="yes"/>
      <point x="220" y="604"/>
      <point x="215" y="618"/>
      <point x="204" y="630" type="curve" smooth="yes"/>
      <point x="199" y="635"/>
      <point x="190" y="638"/>
      <point x="179" y="638" type="curve" smooth="yes"/>
      <point x="160" y="638"/>
      <point x="151" y="624"/>
      <point x="146" y="611" type="curve" smooth="yes"/>
      <point x="143" y="603"/>
      <point x="142" y="594"/>
      <point x="141" y="584" type="curve"/>
      <point x="141" y="151" type="line" smooth="yes"/>
      <point x="142" y="130"/>
      <point x="148" y="116"/>
      <point x="158" y="105" type="curve" smooth="yes"/>
      <point x="163" y="100"/>
      <point x="170" y="97"/>
      <point x="179" y="97" type="curve" smooth="yes"/>
      <point x="202" y="97"/>
      <point x="211" y="109"/>
      <point x="216" y="124" type="curve"/>
      <point x="219" y="131"/>
      <point x="220" y="140"/>
      <point x="220" y="151" type="curve" smooth="yes"/>
      <point x="220" y="252" type="line"/>
    </contour>
  </outline>
</glyph>
<glyph name="dcroat" format="1">
  <advance width="335"/>
  <unicode hex="0111"/>
  <outline>
    <contour>
      <point x="318" y="692" type="line"/>
      <point x="295" y="692" type="line"/>
      <point x="295" y="735" type="line"/>
      <point x="194" y="735" type="line"/>
      <point x="194" y="692" type="line"/>
      <point x="173" y="692" type="line"/>
      <point x="173" y="597" type="line"/>
      <point x="194" y="597" type="line"/>
      <point x="194" y="511" type="line"/>
      <point x="185" y="519"/>
      <point x="177" y="526"/>
      <point x="168" y="533" type="curve" smooth="yes"/>
      <point x="153" y="544"/>
      <point x="133" y="555"/>
      <point x="114" y="555" type="curve" smooth="yes"/>
      <point x="86" y="555"/>
      <point x="67" y="539"/>
      <point x="55" y="519" type="curve" smooth="yes"/>
      <point x="42" y="498"/>
      <point x="36" y="471"/>
      <point x="36" y="448" type="curve" smooth="yes"/>
      <point x="36" y="99" type="line" smooth="yes"/>
      <point x="36" y="76"/>
      <point x="42" y="49"/>
      <point x="55" y="29" type="curve"/>
      <point x="67" y="8"/>
      <point x="86" y="-8"/>
      <point x="114" y="-8" type="curve" smooth="yes"/>
      <point x="123" y="-8"/>
      <point x="133" y="-6"/>
      <point x="143" y="-1" type="curve" smooth="yes"/>
      <point x="162" y="8"/>
      <point x="177" y="20"/>
      <point x="194" y="36" type="curve"/>
      <point x="194" y="0" type="line"/>
      <point x="295" y="0" type="line"/>
      <point x="295" y="597" type="line"/>
      <point x="318" y="597" type="line"/>
    </contour>
    <contour>
      <point x="194" y="120" type="line" smooth="yes"/>
      <point x="194" y="101"/>
      <point x="179" y="87"/>
      <point x="164" y="87" type="curve" smooth="yes"/>
      <point x="149" y="87"/>
      <point x="137" y="101"/>
      <point x="137" y="120" type="curve" smooth="yes"/>
      <point x="137" y="427" type="line" smooth="yes"/>
      <point x="137" y="446"/>
      <point x="149" y="460"/>
      <point x="164" y="460" type="curve" smooth="yes"/>
      <point x="179" y="460"/>
      <point x="194" y="443"/>
      <point x="194" y="427" type="curve" smooth="yes"/>
    </contour>
  </outline>
</glyph>
<glyph name="ebreve" format="1">
  <advance width="322"/>
  <unicode hex="0115"/>
  <outline>
    <contour>
      <point x="272" y="683" type="line"/>
      <point x="255" y="666"/>
      <point x="235" y="652"/>
      <point x="208" y="643" type="curve" smooth="yes"/>
      <point x="195" y="638"/>
      <point x="179" y="636"/>
      <point x="162" y="636" type="curve" smooth="yes"/>
      <point x="127" y="636"/>
      <point x="100" y="647"/>
      <point x="81" y="659" type="curve" smooth="yes"/>
      <point x="70" y="666"/>
      <point x="60" y="674"/>
      <point x="52" y="683" type="curve"/>
      <point x="106" y="729" type="line"/>
      <point x="113" y="720"/>
      <point x="124" y="713"/>
      <point x="138" y="709" type="curve" smooth="yes"/>
      <point x="145" y="707"/>
      <point x="153" y="706"/>
      <point x="162" y="706" type="curve" smooth="yes"/>
      <point x="181" y="706"/>
      <point x="194" y="710"/>
      <point x="205" y="717" type="curve"/>
      <point x="211" y="720"/>
      <point x="216" y="724"/>
      <point x="220" y="729" type="curve"/>
    </contour>
    <contour>
      <point x="293" y="196" type="line"/>
      <point x="293" y="133" type="line"/>
      <point x="290" y="80"/>
      <point x="274" y="43"/>
      <point x="238" y="14" type="curve" smooth="yes"/>
      <point x="220" y="-1"/>
      <point x="195" y="-8"/>
      <point x="162" y="-8" type="curve" smooth="yes"/>
      <point x="97" y="-8"/>
      <point x="64" y="28"/>
      <point x="48" y="64" type="curve" smooth="yes"/>
      <point x="39" y="85"/>
      <point x="33" y="109"/>
      <point x="32" y="136" type="curve" smooth="yes"/>
      <point x="32" y="411" type="line"/>
      <point x="35" y="464"/>
      <point x="52" y="503"/>
      <point x="88" y="533" type="curve" smooth="yes"/>
      <point x="105" y="548"/>
      <point x="130" y="555"/>
      <point x="163" y="555" type="curve" smooth="yes"/>
      <point x="228" y="555"/>
      <point x="261" y="519"/>
      <point x="277" y="484" type="curve" smooth="yes"/>
      <point x="286" y="463"/>
      <point x="292" y="440"/>
      <point x="293" y="414" type="curve" smooth="yes"/>
      <point x="293" y="255" type="line"/>
      <point x="126" y="255" type="line"/>
      <point x="126" y="136" type="line" smooth="yes"/>
      <point x="127" y="115"/>
      <point x="133" y="100"/>
      <point x="142" y="89" type="curve"/>
      <point x="147" y="84"/>
      <point x="154" y="81"/>
      <point x="163" y="81" type="curve" smooth="yes"/>
      <point x="182" y="81"/>
      <point x="191" y="93"/>
      <point x="195" y="108" type="curve"/>
      <point x="198" y="116"/>
      <point x="199" y="125"/>
      <point x="199" y="136" type="curve" smooth="yes"/>
      <point x="199" y="196" type="line"/>
    </contour>
    <contour>
      <point x="126" y="334" type="line"/>
      <point x="199" y="334" type="line"/>
      <point x="199" y="411" type="line" smooth="yes"/>
      <point x="199" y="432"/>
      <point x="195" y="447"/>
      <point x="185" y="459" type="curve"/>
      <point x="180" y="464"/>
      <point x="172" y="467"/>
      <point x="163" y="467" type="curve" smooth="yes"/>
      <point x="144" y="467"/>
      <point x="136" y="454"/>
      <point x="131" y="439" type="curve" smooth="yes"/>
      <point x="128" y="431"/>
      <point x="127" y="422"/>
      <point x="126" y="411" type="curve"/>
    </contour>
  </outline>
</glyph>
<glyph name="Edotaccent" format="1">
  <advance width="307"/>
  <unicode hex="0116"/>
  <outline>
    <contour>
      <point x="104" y="923" type="line"/>
      <point x="205" y="923" type="line"/>
      <point x="205" y="822" type="line"/>
      <point x="104" y="822" type="line"/>
    </contour>
    <contour>
      <point x="40" y="735" type="line"/>
      <point x="287" y="735" type="line"/>
      <point x="287" y="624" type="line"/>
      <point x="148" y="624" type="line"/>
      <point x="148" y="431" type="line"/>
      <point x="248" y="431" type="line"/>
      <point x="248" y="313" type="line"/>
      <point x="148" y="313" type="line"/>
      <point x="148" y="111" type="line"/>
      <point x="287" y="111" type="line"/>
      <point x="287" y="0" type="line"/>
      <point x="40" y="0" type="line"/>
    </contour>
  </outline>
</glyph>
<glyph name="Eogonek" format="1">
  <advance width="307"/>
  <unicode hex="0118"/>
  <outline>
    <contour>
      <point x="40" y="735" type="line"/>
      <point x="287" y="735" type="line"/>
      <point x="287" y="624" type="line"/>
      <point x="148" y="624" type="line"/>
      <point x="148" y="431" type="line"/>
      <point x="248" y="431" type="line"/>
      <point x="248" y="313" type="line"/>
      <point x="148" y="313" type="line"/>
      <point x="148" y="111" type="line"/>
      <point x="287" y="111" type="line"/>
      <point x="287" y="0" type="line"/>
      <point x="40" y="0" type="line"/>
    </contour>
    <contour>
      <point x="127" y="-75"/>
      <point x="143" y="-50"/>
      <point x="160" y="-31" type="curve"/>
      <point x="169" y="-20"/>
      <point x="180" y="-9"/>
      <point x="193" y="0" type="curve"/>
      <point x="241" y="0" type="line"/>
      <point x="224" y="-15"/>
      <point x="212" y="-30"/>
      <point x="203" y="-50" type="curve"/>
      <point x="198" y="-60"/>
      <point x="196" y="-71"/>
      <point x="196" y="-83" type="curve" smooth="yes"/>
      <point x="196" y="-112"/>
      <point x="223" y="-121"/>
      <point x="246" y="-121" type="curve" smooth="yes"/>
      <point x="263" y="-121"/>
      <point x="276" y="-117"/>
      <point x="288" y="-112" type="curve"/>
      <point x="280" y="-179" type="line"/>
      <point x="259" y="-186"/>
      <point x="246" y="-188"/>
      <point x="229" y="-188" type="curve" smooth="yes"/>
      <point x="164" y="-188"/>
      <point x="127" y="-148"/>
      <point x="127" y="-103" type="curve" smooth="yes"/>
    </contour>
  </outline>
</glyph>
<glyph name="eogonek" format="1">
  <advance width="322"/>
  <unicode hex="0119"/>
  <outline>
    <contour>
      <point x="214" y="0" type="line"/>
      <point x="223" y="3"/>
      <point x="231" y="8"/>
      <point x="238" y="14" type="curve" smooth="yes"/>
      <point x="274" y="43"/>
      <point x="290" y="80"/>
      <point x="293" y="133" type="curve"/>
      <point x="293" y="196" type="line"/>
      <point x="199" y="196" type="line"/>
      <point x="199" y="136" type="line" smooth="yes"/>
      <point x="199" y="125"/>
      <point x="198" y="116"/>
      <point x="195" y="108" type="curve"/>
      <point x="191" y="93"/>
      <point x="182" y="81"/>
      <point x="163" y="81" type="curve" smooth="yes"/>
      <point x="154" y="81"/>
      <point x="147" y="84"/>
      <point x="142" y="89" type="curve"/>
      <point x="133" y="100"/>
      <point x="127" y="115"/>
      <point x="126" y="136" type="curve" smooth="yes"/>
      <point x="126" y="255" type="line"/>
      <point x="293" y="255" type="line"/>
      <point x="293" y="414" type="line" smooth="yes"/>
      <point x="292" y="440"/>
      <point x="286" y="463"/>
      <point x="277" y="484" type="curve" smooth="yes"/>
      <point x="261" y="519"/>
      <point x="228" y="555"/>
      <point x="163" y="555" type="curve" smooth="yes"/>
      <point x="130" y="555"/>
      <point x="105" y="548"/>
      <point x="88" y="533" type="curve" smooth="yes"/>
      <point x="52" y="503"/>
      <point x="35" y="464"/>
      <point x="32" y="411" type="curve"/>
      <point x="32" y="136" type="line" smooth="yes"/>
      <point x="33" y="109"/>
      <point x="39" y="85"/>
      <point x="48" y="64" type="curve" smooth="yes"/>
      <point x="64" y="28"/>
      <point x="97" y="-8"/>
      <point x="162" y="-8" type="curve" smooth="yes"/>
      <point x="173" y="-8"/>
      <point x="183" y="-7"/>
      <point x="192" y="-6" type="curve"/>
      <point x="183" y="-13"/>
      <point x="174" y="-22"/>
      <point x="167" y="-31" type="curve"/>
      <point x="150" y="-50"/>
      <point x="134" y="-75"/>
      <point x="134" y="-103" type="curve" smooth="yes"/>
      <point x="134" y="-148"/>
      <point x="171" y="-188"/>
      <point x="236" y="-188" type="curve" smooth="yes"/>
      <point x="253" y="-188"/>
      <point x="266" y="-186"/>
      <point x="287" y="-179" type="curve"/>
      <point x="295" y="-112" type="line"/>
      <point x="283" y="-117"/>
      <point x="270" y="-121"/>
      <point x="253" y="-121" type="curve" smooth="yes"/>
      <point x="230" y="-121"/>
      <point x="203" y="-112"/>
      <point x="203" y="-83" type="curve" smooth="yes"/>
      <point x="203" y="-71"/>
      <point x="205" y="-60"/>
      <point x="210" y="-50" type="curve" smooth="yes"/>
      <point x="219" y="-30"/>
      <point x="231" y="-15"/>
      <point x="248" y="0" type="curve"/>
    </contour>
    <contour>
      <point x="126" y="411" type="line"/>
      <point x="127" y="422"/>
      <point x="128" y="431"/>
      <point x="131" y="439" type="curve" smooth="yes"/>
      <point x="136" y="454"/>
      <point x="144" y="467"/>
      <point x="163" y="467" type="curve" smooth="yes"/>
      <point x="172" y="467"/>
      <point x="180" y="464"/>
      <point x="185" y="459" type="curve"/>
      <point x="195" y="447"/>
      <point x="199" y="432"/>
      <point x="199" y="411" type="curve" smooth="yes"/>
      <point x="199" y="334" type="line"/>
      <point x="126" y="334" type="line"/>
    </contour>
  </outline>
</glyph>
<glyph name="Ecaron" format="1">
  <advance width="307"/>
  <unicode hex="011A"/>
  <outline>
    <contour>
      <point x="101" y="825" type="line"/>
      <point x="32" y="915" type="line"/>
      <point x="124" y="915" type="line"/>
      <point x="154" y="880" type="line"/>
      <point x="185" y="915" type="line"/>
      <point x="277" y="915" type="line"/>
      <point x="208" y="825" type="line"/>
    </contour>
    <contour>
      <point x="40" y="735" type="line"/>
      <point x="287" y="735" type="line"/>
      <point x="287" y="624" type="line"/>
      <point x="148" y="624" type="line"/>
      <point x="148" y="431" type="line"/>
      <point x="248" y="431" type="line"/>
      <point x="248" y="313" type="line"/>
      <point x="148" y="313" type="line"/>
      <point x="148" y="111" type="line"/>
      <point x="287" y="111" type="line"/>
      <point x="287" y="0" type="line"/>
      <point x="40" y="0" type="line"/>
    </contour>
  </outline>
</glyph>
<glyph name="gcircumflex" format="1">
  <advance width="342"/>
  <unicode hex="011D"/>
  <outline>
    <contour>
      <point x="226" y="727" type="line"/>
      <point x="295" y="637" type="line"/>
      <point x="203" y="637" type="line"/>
      <point x="172" y="672" type="line"/>
      <point x="142" y="637" type="line"/>
      <point x="50" y="637" type="line"/>
      <point x="119" y="727" type="line"/>
    </contour>
    <contour>
      <point x="287" y="264" type="line"/>
      <point x="284" y="213"/>
      <point x="266" y="177"/>
      <point x="231" y="150" type="curve" smooth="yes"/>
      <point x="213" y="136"/>
      <point x="188" y="129"/>
      <point x="157" y="129" type="curve" smooth="yes"/>
      <point x="154" y="129"/>
      <point x="151" y="129"/>
      <point x="148" y="129" type="curve" smooth="yes"/>
      <point x="145" y="129"/>
      <point x="141" y="129"/>
      <point x="138" y="130" type="curve"/>
      <point x="129" y="122"/>
      <point x="124" y="114"/>
      <point x="124" y="105" type="curve" smooth="yes"/>
      <point x="124" y="93"/>
      <point x="134" y="86"/>
      <point x="149" y="82" type="curve"/>
      <point x="164" y="77"/>
      <point x="182" y="74"/>
      <point x="201" y="71" type="curve" smooth="yes"/>
      <point x="233" y="67"/>
      <point x="267" y="59"/>
      <point x="295" y="40" type="curve" smooth="yes"/>
      <point x="322" y="21"/>
      <point x="341" y="-8"/>
      <point x="341" y="-56" type="curve" smooth="yes"/>
      <point x="341" y="-109"/>
      <point x="318" y="-145"/>
      <point x="286" y="-166" type="curve" smooth="yes"/>
      <point x="253" y="-187"/>
      <point x="209" y="-196"/>
      <point x="168" y="-196" type="curve" smooth="yes"/>
      <point x="120" y="-195"/>
      <point x="79" y="-188"/>
      <point x="51" y="-172" type="curve" smooth="yes"/>
      <point x="22" y="-156"/>
      <point x="6" y="-130"/>
      <point x="6" y="-90" type="curve" smooth="yes"/>
      <point x="6" y="-71"/>
      <point x="16" y="-55"/>
      <point x="31" y="-41" type="curve" smooth="yes"/>
      <point x="46" y="-27"/>
      <point x="66" y="-16"/>
      <point x="85" y="-7" type="curve"/>
      <point x="52" y="2"/>
      <point x="24" y="23"/>
      <point x="24" y="66" type="curve" smooth="yes"/>
      <point x="24" y="82"/>
      <point x="33" y="98"/>
      <point x="45" y="113" type="curve" smooth="yes"/>
      <point x="57" y="128"/>
      <point x="72" y="140"/>
      <point x="87" y="148" type="curve"/>
      <point x="58" y="167"/>
      <point x="44" y="197"/>
      <point x="37" y="222" type="curve" smooth="yes"/>
      <point x="33" y="237"/>
      <point x="30" y="252"/>
      <point x="29" y="267" type="curve"/>
      <point x="29" y="416" type="line"/>
      <point x="33" y="467"/>
      <point x="49" y="504"/>
      <point x="84" y="533" type="curve" smooth="yes"/>
      <point x="101" y="548"/>
      <point x="126" y="555"/>
      <point x="157" y="555" type="curve" smooth="yes"/>
      <point x="208" y="555"/>
      <point x="239" y="532"/>
      <point x="258" y="505" type="curve"/>
      <point x="265" y="512"/>
      <point x="277" y="524"/>
      <point x="293" y="535" type="curve" smooth="yes"/>
      <point x="308" y="546"/>
      <point x="325" y="555"/>
      <point x="341" y="555" type="curve"/>
      <point x="341" y="465" type="line"/>
      <point x="314" y="465"/>
      <point x="294" y="460"/>
      <point x="282" y="453" type="curve"/>
      <point x="283" y="448"/>
      <point x="284" y="443"/>
      <point x="285" y="440" type="curve"/>
      <point x="285" y="436"/>
      <point x="285" y="432"/>
      <point x="286" y="429" type="curve" smooth="yes"/>
      <point x="287" y="426"/>
      <point x="287" y="422"/>
      <point x="287" y="419" type="curve" smooth="yes"/>
    </contour>
    <contour>
      <point x="188" y="412" type="line" smooth="yes"/>
      <point x="188" y="431"/>
      <point x="184" y="443"/>
      <point x="176" y="454" type="curve" smooth="yes"/>
      <point x="172" y="459"/>
      <point x="166" y="462"/>
      <point x="157" y="462" type="curve" smooth="yes"/>
      <point x="141" y="462"/>
      <point x="133" y="449"/>
      <point x="130" y="437" type="curve" smooth="yes"/>
      <point x="128" y="430"/>
      <point x="127" y="421"/>
      <point x="128" y="412" type="curve"/>
      <point x="128" y="262" type="line"/>
      <point x="127" y="243"/>
      <point x="130" y="231"/>
      <point x="139" y="221" type="curve"/>
      <point x="143" y="216"/>
      <point x="149" y="213"/>
      <point x="157" y="213" type="curve" smooth="yes"/>
      <point x="174" y="213"/>
      <point x="181" y="225"/>
      <point x="185" y="237" type="curve" smooth="yes"/>
      <point x="187" y="244"/>
      <point x="188" y="253"/>
      <point x="188" y="262" type="curve" smooth="yes"/>
    </contour>
    <contour>
      <point x="141" y="-25" type="line"/>
      <point x="120" y="-37"/>
      <point x="104" y="-52"/>
      <point x="104" y="-73" type="curve" smooth="yes"/>
      <point x="104" y="-94"/>
      <point x="123" y="-111"/>
      <point x="170" y="-111" type="curve" smooth="yes"/>
      <point x="187" y="-111"/>
      <point x="206" y="-108"/>
      <point x="221" y="-102" type="curve" smooth="yes"/>
      <point x="236" y="-96"/>
      <point x="247" y="-87"/>
      <point x="247" y="-74" type="curve" smooth="yes"/>
      <point x="247" y="-65"/>
      <point x="246" y="-58"/>
      <point x="239" y="-51" type="curve"/>
      <point x="231" y="-44"/>
      <point x="218" y="-39"/>
      <point x="193" y="-35" type="curve" smooth="yes"/>
    </contour>
  </outline>
</glyph>
<glyph name="gbreve" format="1">
  <advance width="342"/>
  <unicode hex="011F"/>
  <outline>
    <contour>
      <point x="282" y="683" type="line"/>
      <point x="265" y="666"/>
      <point x="245" y="652"/>
      <point x="218" y="643" type="curve" smooth="yes"/>
      <point x="205" y="638"/>
      <point x="189" y="636"/>
      <point x="172" y="636" type="curve" smooth="yes"/>
      <point x="137" y="636"/>
      <point x="110" y="647"/>
      <point x="91" y="659" type="curve" smooth="yes"/>
      <point x="80" y="666"/>
      <point x="70" y="674"/>
      <point x="62" y="683" type="curve"/>
      <point x="116" y="729" type="line"/>
      <point x="123" y="720"/>
      <point x="134" y="713"/>
      <point x="148" y="709" type="curve" smooth="yes"/>
      <point x="155" y="707"/>
      <point x="163" y="706"/>
      <point x="172" y="706" type="curve" smooth="yes"/>
      <point x="191" y="706"/>
      <point x="204" y="710"/>
      <point x="215" y="717" type="curve"/>
      <point x="221" y="720"/>
      <point x="226" y="724"/>
      <point x="230" y="729" type="curve"/>
    </contour>
    <contour>
      <point x="287" y="264" type="line"/>
      <point x="284" y="213"/>
      <point x="266" y="177"/>
      <point x="231" y="150" type="curve" smooth="yes"/>
      <point x="213" y="136"/>
      <point x="188" y="129"/>
      <point x="157" y="129" type="curve" smooth="yes"/>
      <point x="154" y="129"/>
      <point x="151" y="129"/>
      <point x="148" y="129" type="curve" smooth="yes"/>
      <point x="145" y="129"/>
      <point x="141" y="129"/>
      <point x="138" y="130" type="curve"/>
      <point x="129" y="122"/>
      <point x="124" y="114"/>
      <point x="124" y="105" type="curve" smooth="yes"/>
      <point x="124" y="93"/>
      <point x="134" y="86"/>
      <point x="149" y="82" type="curve"/>
      <point x="164" y="77"/>
      <point x="182" y="74"/>
      <point x="201" y="71" type="curve" smooth="yes"/>
      <point x="233" y="67"/>
      <point x="267" y="59"/>
      <point x="295" y="40" type="curve" smooth="yes"/>
      <point x="322" y="21"/>
      <point x="341" y="-8"/>
      <point x="341" y="-56" type="curve" smooth="yes"/>
      <point x="341" y="-109"/>
      <point x="318" y="-145"/>
      <point x="286" y="-166" type="curve" smooth="yes"/>
      <point x="253" y="-187"/>
      <point x="209" y="-196"/>
      <point x="168" y="-196" type="curve" smooth="yes"/>
      <point x="120" y="-195"/>
      <point x="79" y="-188"/>
      <point x="51" y="-172" type="curve" smooth="yes"/>
      <point x="22" y="-156"/>
      <point x="6" y="-130"/>
      <point x="6" y="-90" type="curve" smooth="yes"/>
      <point x="6" y="-71"/>
      <point x="16" y="-55"/>
      <point x="31" y="-41" type="curve" smooth="yes"/>
      <point x="46" y="-27"/>
      <point x="66" y="-16"/>
      <point x="85" y="-7" type="curve"/>
      <point x="52" y="2"/>
      <point x="24" y="23"/>
      <point x="24" y="66" type="curve" smooth="yes"/>
      <point x="24" y="82"/>
      <point x="33" y="98"/>
      <point x="45" y="113" type="curve" smooth="yes"/>
      <point x="57" y="128"/>
      <point x="72" y="140"/>
      <point x="87" y="148" type="curve"/>
      <point x="58" y="167"/>
      <point x="44" y="197"/>
      <point x="37" y="222" type="curve" smooth="yes"/>
      <point x="33" y="237"/>
      <point x="30" y="252"/>
      <point x="29" y="267" type="curve"/>
      <point x="29" y="416" type="line"/>
      <point x="33" y="467"/>
      <point x="49" y="504"/>
      <point x="84" y="533" type="curve" smooth="yes"/>
      <point x="101" y="548"/>
      <point x="126" y="555"/>
      <point x="157" y="555" type="curve" smooth="yes"/>
      <point x="208" y="555"/>
      <point x="239" y="532"/>
      <point x="258" y="505" type="curve"/>
      <point x="265" y="512"/>
      <point x="277" y="524"/>
      <point x="293" y="535" type="curve" smooth="yes"/>
      <point x="308" y="546"/>
      <point x="325" y="555"/>
      <point x="341" y="555" type="curve"/>
      <point x="341" y="465" type="line"/>
      <point x="314" y="465"/>
      <point x="294" y="460"/>
      <point x="282" y="453" type="curve"/>
      <point x="283" y="448"/>
      <point x="284" y="443"/>
      <point x="285" y="440" type="curve"/>
      <point x="285" y="436"/>
      <point x="285" y="432"/>
      <point x="286" y="429" type="curve" smooth="yes"/>
      <point x="287" y="426"/>
      <point x="287" y="422"/>
      <point x="287" y="419" type="curve" smooth="yes"/>
    </contour>
    <contour>
      <point x="188" y="412" type="line" smooth="yes"/>
      <point x="188" y="431"/>
      <point x="184" y="443"/>
      <point x="176" y="454" type="curve" smooth="yes"/>
      <point x="172" y="459"/>
      <point x="166" y="462"/>
      <point x="157" y="462" type="curve" smooth="yes"/>
      <point x="141" y="462"/>
      <point x="133" y="449"/>
      <point x="130" y="437" type="curve" smooth="yes"/>
      <point x="128" y="430"/>
      <point x="127" y="421"/>
      <point x="128" y="412" type="curve"/>
      <point x="128" y="262" type="line"/>
      <point x="127" y="243"/>
      <point x="130" y="231"/>
      <point x="139" y="221" type="curve"/>
      <point x="143" y="216"/>
      <point x="149" y="213"/>
      <point x="157" y="213" type="curve" smooth="yes"/>
      <point x="174" y="213"/>
      <point x="181" y="225"/>
      <point x="185" y="237" type="curve" smooth="yes"/>
      <point x="187" y="244"/>
      <point x="188" y="253"/>
      <point x="188" y="262" type="curve" smooth="yes"/>
    </contour>
    <contour>
      <point x="141" y="-25" type="line"/>
      <point x="120" y="-37"/>
      <point x="104" y="-52"/>
      <point x="104" y="-73" type="curve" smooth="yes"/>
      <point x="104" y="-94"/>
      <point x="123" y="-111"/>
      <point x="170" y="-111" type="curve" smooth="yes"/>
      <point x="187" y="-111"/>
      <point x="206" y="-108"/>
      <point x="221" y="-102" type="curve" smooth="yes"/>
      <point x="236" y="-96"/>
      <point x="247" y="-87"/>
      <point x="247" y="-74" type="curve" smooth="yes"/>
      <point x="247" y="-65"/>
      <point x="246" y="-58"/>
      <point x="239" y="-51" type="curve"/>
      <point x="231" y="-44"/>
      <point x="218" y="-39"/>
      <point x="193" y="-35" type="curve" smooth="yes"/>
    </contour>
  </outline>
</glyph>
<glyph name="Hcircumflex" format="1">
  <advance width="380"/>
  <unicode hex="0124"/>
  <outline>
    <contour>
      <point x="245" y="915" type="line"/>
      <point x="314" y="825" type="line"/>
      <point x="222" y="825" type="line"/>
      <point x="191" y="860" type="line"/>
      <point x="161" y="825" type="line"/>
      <point x="69" y="825" type="line"/>
      <point x="138" y="915" type="line"/>
    </contour>
    <contour>
      <point x="232" y="320" type="line"/>
      <point x="148" y="320" type="line"/>
      <point x="148" y="0" type="line"/>
      <point x="40" y="0" type="line"/>
      <point x="40" y="735" type="line"/>
      <point x="148" y="735" type="line"/>
      <point x="148" y="431" type="line"/>
      <point x="232" y="431" type="line"/>
      <point x="232" y="735" type="line"/>
      <point x="340" y="735" type="line"/>
      <point x="340" y="0" type="line"/>
      <point x="232" y="0" type="line"/>
    </contour>
  </outline>
</glyph>
<glyph name="hcircumflex" format="1">
  <advance width="337"/>
  <unicode hex="0125"/>
  <outline>
    <contour>
      <point x="141" y="639" type="line"/>
      <point x="169" y="672" type="line"/>
      <point x="200" y="637" type="line"/>
      <point x="292" y="637" type="line"/>
      <point x="223" y="727" type="line"/>
      <point x="141" y="727" type="line"/>
      <point x="141" y="735" type="line"/>
      <point x="40" y="735" type="line"/>
      <point x="40" y="0" type="line"/>
      <point x="141" y="0" type="line"/>
      <point x="141" y="431" type="line"/>
      <point x="144" y="436"/>
      <point x="147" y="440"/>
      <point x="150" y="444" type="curve"/>
      <point x="157" y="451"/>
      <point x="163" y="457"/>
      <point x="174" y="457" type="curve" smooth="yes"/>
      <point x="186" y="457"/>
      <point x="198" y="454"/>
      <point x="198" y="433" type="curve" smooth="yes"/>
      <point x="198" y="0" type="line"/>
      <point x="299" y="0" type="line"/>
      <point x="299" y="448" type="line" smooth="yes"/>
      <point x="299" y="471"/>
      <point x="293" y="498"/>
      <point x="281" y="519" type="curve" smooth="yes"/>
      <point x="269" y="539"/>
      <point x="250" y="555"/>
      <point x="223" y="555" type="curve" smooth="yes"/>
      <point x="214" y="555"/>
      <point x="206" y="553"/>
      <point x="197" y="548" type="curve" smooth="yes"/>
      <point x="179" y="538"/>
      <point x="164" y="523"/>
      <point x="153" y="512" type="curve" smooth="yes"/>
      <point x="147" y="506"/>
      <point x="143" y="502"/>
      <point x="141" y="501" type="curve"/>
    </contour>
  </outline>
</glyph>
<glyph name="Hbar" format="1">
  <advance width="380"/>
  <unicode hex="0126"/>
  <outline>
    <contour>
      <point x="380" y="627" type="line"/>
      <point x="340" y="627" type="line"/>
      <point x="340" y="735" type="line"/>
      <point x="232" y="735" type="line"/>
      <point x="232" y="627" type="line"/>
      <point x="148" y="627" type="line"/>
      <point x="148" y="735" type="line"/>
      <point x="40" y="735" type="line"/>
      <point x="40" y="627" type="line"/>
      <point x="1" y="627" type="line"/>
      <point x="1" y="548" type="line"/>
      <point x="40" y="548" type="line"/>
      <point x="40" y="0" type="line"/>
      <point x="148" y="0" type="line"/>
      <point x="148" y="320" type="line"/>
      <point x="232" y="320" type="line"/>
      <point x="232" y="0" type="line"/>
      <point x="340" y="0" type="line"/>
      <point x="340" y="548" type="line"/>
      <point x="380" y="548" type="line"/>
    </contour>
    <contour>
      <point x="232" y="431" type="line"/>
      <point x="148" y="431" type="line"/>
      <point x="148" y="548" type="line"/>
      <point x="232" y="548" type="line"/>
    </contour>
  </outline>
</glyph>
<glyph name="Itilde" format="1">
  <advance width="188"/>
  <unicode hex="0128"/>
  <outline>
    <contour>
      <point x="-2" y="899" type="line"/>
      <point x="7" y="906"/>
      <point x="19" y="911"/>
      <point x="31" y="915" type="curve" smooth="yes"/>
      <point x="37" y="917"/>
      <point x="44" y="918"/>
      <point x="51" y="918" type="curve" smooth="yes"/>
      <point x="66" y="918"/>
      <point x="81" y="915"/>
      <point x="95" y="910" type="curve"/>
      <point x="109" y="904"/>
      <point x="124" y="900"/>
      <point x="139" y="899" type="curve"/>
      <point x="154" y="899"/>
      <point x="165" y="903"/>
      <point x="176" y="907" type="curve"/>
      <point x="182" y="910"/>
      <point x="187" y="912"/>
      <point x="192" y="915" type="curve"/>
      <point x="192" y="841" type="line"/>
      <point x="183" y="833"/>
      <point x="171" y="828"/>
      <point x="159" y="825" type="curve"/>
      <point x="153" y="823"/>
      <point x="146" y="822"/>
      <point x="139" y="822" type="curve" smooth="yes"/>
      <point x="124" y="822"/>
      <point x="109" y="825"/>
      <point x="96" y="831" type="curve" smooth="yes"/>
      <point x="82" y="837"/>
      <point x="67" y="840"/>
      <point x="51" y="841" type="curve"/>
      <point x="36" y="841"/>
      <point x="25" y="837"/>
      <point x="14" y="833" type="curve"/>
      <point x="8" y="830"/>
      <point x="3" y="828"/>
      <point x="-2" y="825" type="curve"/>
    </contour>
    <contour>
      <point x="40" y="735" type="line"/>
      <point x="148" y="735" type="line"/>
      <point x="148" y="0" type="line"/>
      <point x="40" y="0" type="line"/>
    </contour>
  </outline>
</glyph>
<glyph name="itilde" format="1">
  <advance width="181"/>
  <unicode hex="0129"/>
  <outline>
    <contour>
      <point x="40" y="0" type="line"/>
      <point x="40" y="547" type="line"/>
      <point x="141" y="547" type="line"/>
      <point x="141" y="0" type="line"/>
    </contour>
    <contour>
      <point x="33" y="653"/>
      <point x="22" y="649"/>
      <point x="11" y="645" type="curve"/>
      <point x="5" y="642"/>
      <point x="0" y="640"/>
      <point x="-5" y="637" type="curve"/>
      <point x="-5" y="711" type="line"/>
      <point x="4" y="718"/>
      <point x="16" y="723"/>
      <point x="28" y="727" type="curve" smooth="yes"/>
      <point x="34" y="729"/>
      <point x="41" y="730"/>
      <point x="48" y="730" type="curve" smooth="yes"/>
      <point x="63" y="730"/>
      <point x="78" y="727"/>
      <point x="92" y="722" type="curve"/>
      <point x="106" y="716"/>
      <point x="121" y="712"/>
      <point x="136" y="711" type="curve"/>
      <point x="151" y="711"/>
      <point x="162" y="715"/>
      <point x="173" y="719" type="curve"/>
      <point x="179" y="722"/>
      <point x="184" y="724"/>
      <point x="189" y="727" type="curve"/>
      <point x="189" y="653" type="line"/>
      <point x="180" y="645"/>
      <point x="168" y="640"/>
      <point x="156" y="637" type="curve"/>
      <point x="150" y="635"/>
      <point x="143" y="634"/>
      <point x="136" y="634" type="curve" smooth="yes"/>
      <point x="121" y="634"/>
      <point x="106" y="637"/>
      <point x="93" y="643" type="curve" smooth="yes"/>
      <point x="79" y="649"/>
      <point x="64" y="652"/>
      <point x="48" y="653" type="curve"/>
    </contour>
  </outline>
</glyph>
<glyph name="Imacron" format="1">
  <advance width="188"/>
  <unicode hex="012A"/>
  <outline>
    <contour>
      <point x="-2" y="909" type="line"/>
      <point x="192" y="909" type="line"/>
      <point x="192" y="830" type="line"/>
      <point x="-2" y="830" type="line"/>
    </contour>
    <contour>
      <point x="40" y="735" type="line"/>
      <point x="148" y="735" type="line"/>
      <point x="148" y="0" type="line"/>
      <point x="40" y="0" type="line"/>
    </contour>
  </outline>
</glyph>
<glyph name="imacron" format="1">
  <advance width="181"/>
  <unicode hex="012B"/>
  <outline>
    <contour>
      <point x="-5" y="721" type="line"/>
      <point x="189" y="721" type="line"/>
      <point x="189" y="642" type="line"/>
      <point x="-5" y="642" type="line"/>
    </contour>
    <contour>
      <point x="40" y="0" type="line"/>
      <point x="40" y="547" type="line"/>
      <point x="141" y="547" type="line"/>
      <point x="141" y="0" type="line"/>
    </contour>
  </outline>
</glyph>
<glyph name="Ibreve" format="1">
  <advance width="188"/>
  <unicode hex="012C"/>
  <outline>
    <contour>
      <point x="205" y="871" type="line"/>
      <point x="188" y="854"/>
      <point x="168" y="840"/>
      <point x="141" y="831" type="curve" smooth="yes"/>
      <point x="128" y="826"/>
      <point x="112" y="824"/>
      <point x="95" y="824" type="curve" smooth="yes"/>
      <point x="60" y="824"/>
      <point x="33" y="835"/>
      <point x="14" y="847" type="curve" smooth="yes"/>
      <point x="3" y="854"/>
      <point x="-7" y="862"/>
      <point x="-15" y="871" type="curve"/>
      <point x="39" y="917" type="line"/>
      <point x="46" y="908"/>
      <point x="57" y="901"/>
      <point x="71" y="897" type="curve" smooth="yes"/>
      <point x="78" y="895"/>
      <point x="86" y="894"/>
      <point x="95" y="894" type="curve" smooth="yes"/>
      <point x="114" y="894"/>
      <point x="127" y="898"/>
      <point x="138" y="905" type="curve"/>
      <point x="144" y="908"/>
      <point x="149" y="912"/>
      <point x="153" y="917" type="curve"/>
    </contour>
    <contour>
      <point x="40" y="735" type="line"/>
      <point x="148" y="735" type="line"/>
      <point x="148" y="0" type="line"/>
      <point x="40" y="0" type="line"/>
    </contour>
  </outline>
</glyph>
<glyph name="ibreve" format="1">
  <advance width="181"/>
  <unicode hex="012D"/>
  <outline>
    <contour>
      <point x="40" y="0" type="line"/>
      <point x="40" y="547" type="line"/>
      <point x="141" y="547" type="line"/>
      <point x="141" y="0" type="line"/>
    </contour>
    <contour>
      <point x="202" y="683" type="line"/>
      <point x="185" y="666"/>
      <point x="165" y="652"/>
      <point x="138" y="643" type="curve"/>
      <point x="125" y="638"/>
      <point x="109" y="636"/>
      <point x="92" y="636" type="curve" smooth="yes"/>
      <point x="57" y="636"/>
      <point x="30" y="647"/>
      <point x="11" y="659" type="curve" smooth="yes"/>
      <point x="0" y="666"/>
      <point x="-10" y="674"/>
      <point x="-18" y="683" type="curve"/>
      <point x="36" y="729" type="line"/>
      <point x="43" y="720"/>
      <point x="54" y="713"/>
      <point x="68" y="709" type="curve" smooth="yes"/>
      <point x="75" y="707"/>
      <point x="83" y="706"/>
      <point x="92" y="706" type="curve" smooth="yes"/>
      <point x="111" y="706"/>
      <point x="124" y="710"/>
      <point x="135" y="717" type="curve"/>
      <point x="141" y="720"/>
      <point x="146" y="724"/>
      <point x="150" y="729" type="curve"/>
    </contour>
  </outline>
</glyph>
<glyph name="Iogonek" format="1">
  <advance width="188"/>
  <unicode hex="012E"/>
  <outline>
    <contour>
      <point x="148" y="0" type="line"/>
      <point x="148" y="735" type="line"/>
      <point x="40" y="735" type="line"/>
      <point x="40" y="0" type="line"/>
      <point x="54" y="0" type="line"/>
      <point x="41" y="-9"/>
      <point x="30" y="-20"/>
      <point x="21" y="-31" type="curve" smooth="yes"/>
      <point x="4" y="-50"/>
      <point x="-12" y="-75"/>
      <point x="-12" y="-103" type="curve" smooth="yes"/>
      <point x="-12" y="-148"/>
      <point x="25" y="-188"/>
      <point x="90" y="-188" type="curve" smooth="yes"/>
      <point x="107" y="-188"/>
      <point x="120" y="-186"/>
      <point x="141" y="-179" type="curve"/>
      <point x="149" y="-112" type="line"/>
      <point x="137" y="-117"/>
      <point x="124" y="-121"/>
      <point x="107" y="-121" type="curve" smooth="yes"/>
      <point x="84" y="-121"/>
      <point x="57" y="-112"/>
      <point x="57" y="-83" type="curve" smooth="yes"/>
      <point x="57" y="-71"/>
      <point x="59" y="-60"/>
      <point x="64" y="-50" type="curve" smooth="yes"/>
      <point x="73" y="-30"/>
      <point x="85" y="-15"/>
      <point x="102" y="0" type="curve"/>
    </contour>
  </outline>
</glyph>
<glyph name="iogonek" format="1">
  <advance width="181"/>
  <unicode hex="012F"/>
  <outline>
    <contour>
      <point x="141" y="735" type="line"/>
      <point x="40" y="735" type="line"/>
      <point x="40" y="634" type="line"/>
      <point x="141" y="634" type="line"/>
    </contour>
    <contour>
      <point x="141" y="0" type="line"/>
      <point x="141" y="547" type="line"/>
      <point x="40" y="547" type="line"/>
      <point x="40" y="0" type="line"/>
      <point x="77" y="0" type="line"/>
      <point x="64" y="-9"/>
      <point x="53" y="-20"/>
      <point x="44" y="-31" type="curve" smooth="yes"/>
      <point x="27" y="-50"/>
      <point x="11" y="-75"/>
      <point x="11" y="-103" type="curve" smooth="yes"/>
      <point x="11" y="-148"/>
      <point x="48" y="-188"/>
      <point x="113" y="-188" type="curve" smooth="yes"/>
      <point x="130" y="-188"/>
      <point x="143" y="-186"/>
      <point x="164" y="-179" type="curve"/>
      <point x="172" y="-112" type="line"/>
      <point x="160" y="-117"/>
      <point x="147" y="-121"/>
      <point x="130" y="-121" type="curve" smooth="yes"/>
      <point x="107" y="-121"/>
      <point x="80" y="-112"/>
      <point x="80" y="-83" type="curve" smooth="yes"/>
      <point x="80" y="-71"/>
      <point x="82" y="-60"/>
      <point x="87" y="-50" type="curve" smooth="yes"/>
      <point x="96" y="-30"/>
      <point x="108" y="-15"/>
      <point x="125" y="0" type="curve"/>
    </contour>
  </outline>
</glyph>
<glyph name="Idotaccent" format="1">
  <advance width="188"/>
  <unicode hex="0130"/>
  <outline>
    <contour>
      <point x="45" y="923" type="line"/>
      <point x="146" y="923" type="line"/>
      <point x="146" y="822" type="line"/>
      <point x="45" y="822" type="line"/>
    </contour>
    <contour>
      <point x="40" y="735" type="line"/>
      <point x="148" y="735" type="line"/>
      <point x="148" y="0" type="line"/>
      <point x="40" y="0" type="line"/>
    </contour>
  </outline>
</glyph>
<glyph name="IJ" format="1">
  <advance width="395"/>
  <unicode hex="0132"/>
  <outline>
    <contour>
      <point x="40" y="735" type="line"/>
      <point x="148" y="735" type="line"/>
      <point x="148" y="0" type="line"/>
      <point x="40" y="0" type="line"/>
    </contour>
    <contour>
      <point x="194" y="99" type="line"/>
      <point x="215" y="96"/>
      <point x="231" y="101"/>
      <point x="243" y="117" type="curve"/>
      <point x="249" y="124"/>
      <point x="252" y="136"/>
      <point x="252" y="153" type="curve" smooth="yes"/>
      <point x="252" y="735" type="line"/>
      <point x="360" y="735" type="line"/>
      <point x="360" y="136" type="line" smooth="yes"/>
      <point x="360" y="96"/>
      <point x="350" y="59"/>
      <point x="325" y="32" type="curve" smooth="yes"/>
      <point x="300" y="5"/>
      <point x="258" y="-11"/>
      <point x="194" y="-7" type="curve"/>
    </contour>
  </outline>
</glyph>
<glyph name="ij" format="1">
  <advance width="359"/>
  <unicode hex="0133"/>
  <outline>
    <contour>
      <point x="40" y="735" type="line"/>
      <point x="141" y="735" type="line"/>
      <point x="141" y="634" type="line"/>
      <point x="40" y="634" type="line"/>
    </contour>
    <contour>
      <point x="218" y="735" type="line"/>
      <point x="319" y="735" type="line"/>
      <point x="319" y="634" type="line"/>
      <point x="218" y="634" type="line"/>
    </contour>
    <contour>
      <point x="40" y="0" type="line"/>
      <point x="40" y="547" type="line"/>
      <point x="141" y="547" type="line"/>
      <point x="141" y="0" type="line"/>
    </contour>
    <contour>
      <point x="319" y="547" type="line"/>
      <point x="319" y="-14" type="line" smooth="yes"/>
      <point x="319" y="-42"/>
      <point x="319" y="-86"/>
      <point x="305" y="-122" type="curve" smooth="yes"/>
      <point x="291" y="-159"/>
      <point x="260" y="-188"/>
      <point x="203" y="-188" type="curve" smooth="yes"/>
      <point x="187" y="-188"/>
      <point x="176" y="-187"/>
      <point x="169" y="-185" type="curve" smooth="yes"/>
      <point x="165" y="-184"/>
      <point x="162" y="-183"/>
      <point x="159" y="-182" type="curve"/>
      <point x="159" y="-89" type="line"/>
      <point x="162" y="-90"/>
      <point x="165" y="-90"/>
      <point x="168" y="-91" type="curve"/>
      <point x="175" y="-92"/>
      <point x="181" y="-93"/>
      <point x="187" y="-93" type="curve" smooth="yes"/>
      <point x="204" y="-93"/>
      <point x="212" y="-79"/>
      <point x="216" y="-62" type="curve"/>
      <point x="217" y="-54"/>
      <point x="218" y="-45"/>
      <point x="218" y="-36" type="curve" smooth="yes"/>
      <point x="218" y="-27"/>
      <point x="218" y="-19"/>
      <point x="218" y="-13" type="curve" smooth="yes"/>
      <point x="218" y="547" type="line"/>
    </contour>
  </outline>
</glyph>
<glyph name="jcircumflex" format="1">
  <advance width="178"/>
  <unicode hex="0135"/>
  <outline>
    <contour>
      <point x="213" y="645" type="line"/>
      <point x="144" y="735" type="line"/>
      <point x="37" y="735" type="line"/>
      <point x="-32" y="645" type="line"/>
      <point x="37" y="645" type="line"/>
      <point x="37" y="634" type="line"/>
      <point x="138" y="634" type="line"/>
      <point x="138" y="645" type="line"/>
    </contour>
    <contour>
      <point x="37" y="-13" type="line" smooth="yes"/>
      <point x="37" y="-19"/>
      <point x="37" y="-27"/>
      <point x="37" y="-36" type="curve" smooth="yes"/>
      <point x="37" y="-45"/>
      <point x="36" y="-54"/>
      <point x="35" y="-62" type="curve"/>
      <point x="31" y="-79"/>
      <point x="23" y="-93"/>
      <point x="6" y="-93" type="curve" smooth="yes"/>
      <point x="0" y="-93"/>
      <point x="-6" y="-92"/>
      <point x="-13" y="-91" type="curve"/>
      <point x="-16" y="-90"/>
      <point x="-19" y="-90"/>
      <point x="-22" y="-89" type="curve"/>
      <point x="-22" y="-182" type="line"/>
      <point x="-19" y="-183"/>
      <point x="-16" y="-184"/>
      <point x="-12" y="-185" type="curve" smooth="yes"/>
      <point x="-5" y="-187"/>
      <point x="6" y="-188"/>
      <point x="22" y="-188" type="curve" smooth="yes"/>
      <point x="79" y="-188"/>
      <point x="110" y="-159"/>
      <point x="124" y="-122" type="curve" smooth="yes"/>
      <point x="138" y="-86"/>
      <point x="138" y="-42"/>
      <point x="138" y="-14" type="curve" smooth="yes"/>
      <point x="138" y="547" type="line"/>
      <point x="37" y="547" type="line"/>
    </contour>
  </outline>
</glyph>
<glyph name="Kcommaaccent" format="1">
  <advance width="375"/>
  <unicode hex="0136"/>
  <outline>
    <contour>
      <point x="148" y="735" type="line"/>
      <point x="148" y="478" type="line"/>
      <point x="152" y="478" type="line"/>
      <point x="157" y="490" type="line"/>
      <point x="247" y="735" type="line"/>
      <point x="352" y="735" type="line"/>
      <point x="253" y="493" type="line"/>
      <point x="365" y="0" type="line"/>
      <point x="260" y="0" type="line"/>
      <point x="185" y="320" type="line"/>
      <point x="182" y="335" type="line"/>
      <point x="179" y="335" type="line"/>
      <point x="173" y="320" type="line"/>
      <point x="148" y="260" type="line"/>
      <point x="148" y="0" type="line"/>
      <point x="40" y="0" type="line"/>
      <point x="40" y="735" type="line"/>
    </contour>
    <contour>
      <point x="215" y="-123" type="line"/>
      <point x="193" y="-188" type="line"/>
      <point x="142" y="-188" type="line"/>
      <point x="162" y="-123" type="line"/>
      <point x="131" y="-123" type="line"/>
      <point x="131" y="-54" type="line"/>
      <point x="215" y="-54" type="line"/>
    </contour>
  </outline>
</glyph>
<glyph name="kcommaaccent" format="1">
  <advance width="313"/>
  <unicode hex="0137"/>
  <outline>
    <contour>
      <point x="141" y="735" type="line"/>
      <point x="141" y="404" type="line"/>
      <point x="141" y="386" type="line"/>
      <point x="146" y="386" type="line"/>
      <point x="152" y="404" type="line"/>
      <point x="201" y="547" type="line"/>
      <point x="292" y="547" type="line"/>
      <point x="219" y="369" type="line"/>
      <point x="311" y="0" type="line"/>
      <point x="214" y="0" type="line"/>
      <point x="164" y="221" type="line"/>
      <point x="162" y="229" type="line"/>
      <point x="157" y="229" type="line"/>
      <point x="154" y="221" type="line"/>
      <point x="141" y="189" type="line"/>
      <point x="141" y="0" type="line"/>
      <point x="40" y="0" type="line"/>
      <point x="40" y="735" type="line"/>
    </contour>
    <contour>
      <point x="215" y="-123" type="line"/>
      <point x="193" y="-188" type="line"/>
      <point x="142" y="-188" type="line"/>
      <point x="162" y="-123" type="line"/>
      <point x="131" y="-123" type="line"/>
      <point x="131" y="-54" type="line"/>
      <point x="215" y="-54" type="line"/>
    </contour>
  </outline>
</glyph>
<glyph name="kgreenlandic" format="1">
  <advance width="313"/>
  <unicode hex="0138"/>
  <outline>
    <contour>
      <point x="141" y="735" type="line"/>
      <point x="141" y="386" type="line"/>
      <point x="146" y="386" type="line"/>
      <point x="152" y="404" type="line"/>
      <point x="201" y="547" type="line"/>
      <point x="292" y="547" type="line"/>
      <point x="219" y="369" type="line"/>
      <point x="311" y="0" type="line"/>
      <point x="214" y="0" type="line"/>
      <point x="164" y="221" type="line"/>
      <point x="162" y="229" type="line"/>
      <point x="157" y="229" type="line"/>
      <point x="154" y="221" type="line"/>
      <point x="141" y="189" type="line"/>
      <point x="141" y="0" type="line"/>
      <point x="40" y="0" type="line"/>
      <point x="40" y="735" type="line"/>
    </contour>
  </outline>
</glyph>
<glyph name="Lacute" format="1">
  <advance width="295"/>
  <unicode hex="0139"/>
  <outline>
    <contour>
      <point x="40" y="735" type="line"/>
      <point x="148" y="735" type="line"/>
      <point x="148" y="100" type="line"/>
      <point x="291" y="100" type="line"/>
      <point x="291" y="0" type="line"/>
      <point x="40" y="0" type="line"/>
    </contour>
    <contour>
      <point x="227" y="915" type="line"/>
      <point x="148" y="825" type="line"/>
      <point x="70" y="825" type="line"/>
      <point x="122" y="915" type="line"/>
    </contour>
  </outline>
</glyph>
<glyph name="Lcommaaccent" format="1">
  <advance width="295"/>
  <unicode hex="013B"/>
  <outline>
    <contour>
      <point x="40" y="735" type="line"/>
      <point x="148" y="735" type="line"/>
      <point x="148" y="100" type="line"/>
      <point x="291" y="100" type="line"/>
      <point x="291" y="0" type="line"/>
      <point x="40" y="0" type="line"/>
    </contour>
    <contour>
      <point x="215" y="-123" type="line"/>
      <point x="193" y="-188" type="line"/>
      <point x="142" y="-188" type="line"/>
      <point x="162" y="-123" type="line"/>
      <point x="131" y="-123" type="line"/>
      <point x="131" y="-54" type="line"/>
      <point x="215" y="-54" type="line"/>
    </contour>
  </outline>
</glyph>
<glyph name="ldot" format="1">
  <advance width="286"/>
  <unicode hex="0140"/>
  <outline>
    <contour>
      <point x="40" y="0" type="line"/>
      <point x="40" y="735" type="line"/>
      <point x="141" y="735" type="line"/>
      <point x="141" y="0" type="line"/>
    </contour>
    <contour>
      <point x="181" y="428" type="line"/>
      <point x="286" y="428" type="line"/>
      <point x="286" y="317" type="line"/>
      <point x="181" y="317" type="line"/>
    </contour>
  </outline>
</glyph>
<glyph name="Nacute" format="1">
  <advance width="395"/>
  <unicode hex="0143"/>
  <outline>
    <contour>
      <point x="154" y="383" type="line"/>
      <point x="145" y="417" type="line"/>
      <point x="139" y="417" type="line"/>
      <point x="139" y="383" type="line"/>
      <point x="139" y="0" type="line"/>
      <point x="40" y="0" type="line"/>
      <point x="40" y="735" type="line"/>
      <point x="136" y="735" type="line"/>
      <point x="241" y="352" type="line"/>
      <point x="250" y="318" type="line"/>
      <point x="256" y="318" type="line"/>
      <point x="256" y="352" type="line"/>
      <point x="256" y="735" type="line"/>
      <point x="355" y="735" type="line"/>
      <point x="355" y="0" type="line"/>
      <point x="259" y="0" type="line"/>
    </contour>
    <contour>
      <point x="277" y="915" type="line"/>
      <point x="198" y="825" type="line"/>
      <point x="120" y="825" type="line"/>
      <point x="172" y="915" type="line"/>
    </contour>
  </outline>
</glyph>
<glyph name="Ncommaaccent" format="1">
  <advance width="395"/>
  <unicode hex="0145"/>
  <outline>
    <contour>
      <point x="154" y="383" type="line"/>
      <point x="145" y="417" type="line"/>
      <point x="139" y="417" type="line"/>
      <point x="139" y="0" type="line"/>
      <point x="40" y="0" type="line"/>
      <point x="40" y="735" type="line"/>
      <point x="136" y="735" type="line"/>
      <point x="241" y="352" type="line"/>
      <point x="250" y="318" type="line"/>
      <point x="256" y="318" type="line"/>
      <point x="256" y="735" type="line"/>
      <point x="355" y="735" type="line"/>
      <point x="355" y="0" type="line"/>
      <point x="259" y="0" type="line"/>
    </contour>
    <contour>
      <point x="215" y="-123" type="line"/>
      <point x="193" y="-188" type="line"/>
      <point x="142" y="-188" type="line"/>
      <point x="162" y="-123" type="line"/>
      <point x="131" y="-123" type="line"/>
      <point x="131" y="-54" type="line"/>
      <point x="215" y="-54" type="line"/>
    </contour>
  </outline>
</glyph>
<glyph name="Ncaron" format="1">
  <advance width="395"/>
  <unicode hex="0147"/>
  <outline>
    <contour>
      <point x="145" y="825" type="line"/>
      <point x="76" y="915" type="line"/>
      <point x="168" y="915" type="line"/>
      <point x="198" y="880" type="line"/>
      <point x="229" y="915" type="line"/>
      <point x="321" y="915" type="line"/>
      <point x="252" y="825" type="line"/>
    </contour>
    <contour>
      <point x="154" y="383" type="line"/>
      <point x="145" y="417" type="line"/>
      <point x="139" y="417" type="line"/>
      <point x="139" y="0" type="line"/>
      <point x="40" y="0" type="line"/>
      <point x="40" y="735" type="line"/>
      <point x="136" y="735" type="line"/>
      <point x="241" y="352" type="line"/>
      <point x="250" y="318" type="line"/>
      <point x="256" y="318" type="line"/>
      <point x="256" y="735" type="line"/>
      <point x="355" y="735" type="line"/>
      <point x="355" y="0" type="line"/>
      <point x="259" y="0" type="line"/>
    </contour>
  </outline>
</glyph>
<glyph name="Eng" format="1">
  <advance width="395"/>
  <unicode hex="014A"/>
  <outline>
    <contour>
      <point x="256" y="735" type="line"/>
      <point x="256" y="318" type="line"/>
      <point x="250" y="318" type="line"/>
      <point x="241" y="352" type="line"/>
      <point x="136" y="735" type="line"/>
      <point x="40" y="735" type="line"/>
      <point x="40" y="0" type="line"/>
      <point x="139" y="0" type="line"/>
      <point x="139" y="417" type="line"/>
      <point x="145" y="417" type="line"/>
      <point x="154" y="383" type="line"/>
      <point x="259" y="0" type="line"/>
      <point x="260" y="0" type="line"/>
      <point x="259" y="-1"/>
      <point x="259" y="-2"/>
      <point x="258" y="-3" type="curve"/>
      <point x="248" y="-18"/>
      <point x="233" y="-23"/>
      <point x="216" y="-20" type="curve"/>
      <point x="216" y="-121" type="line"/>
      <point x="269" y="-125"/>
      <point x="305" y="-109"/>
      <point x="326" y="-84" type="curve" smooth="yes"/>
      <point x="344" y="-62"/>
      <point x="353" y="-32"/>
      <point x="355" y="0" type="curve"/>
      <point x="355" y="735" type="line"/>
    </contour>
  </outline>
</glyph>
<glyph name="eng" format="1">
  <advance width="337"/>
  <unicode hex="014B"/>
  <outline>
    <contour>
      <point x="299" y="452" type="line" smooth="yes"/>
      <point x="298" y="474"/>
      <point x="292" y="499"/>
      <point x="281" y="519" type="curve" smooth="yes"/>
      <point x="269" y="539"/>
      <point x="250" y="555"/>
      <point x="223" y="555" type="curve" smooth="yes"/>
      <point x="214" y="555"/>
      <point x="206" y="553"/>
      <point x="197" y="548" type="curve" smooth="yes"/>
      <point x="179" y="538"/>
      <point x="164" y="523"/>
      <point x="153" y="512" type="curve" smooth="yes"/>
      <point x="147" y="506"/>
      <point x="143" y="502"/>
      <point x="141" y="501" type="curve"/>
      <point x="141" y="547" type="line"/>
      <point x="40" y="547" type="line"/>
      <point x="40" y="0" type="line"/>
      <point x="141" y="0" type="line"/>
      <point x="141" y="431" type="line"/>
      <point x="144" y="436"/>
      <point x="147" y="440"/>
      <point x="150" y="444" type="curve"/>
      <point x="157" y="451"/>
      <point x="163" y="457"/>
      <point x="174" y="457" type="curve" smooth="yes"/>
      <point x="186" y="457"/>
      <point x="198" y="454"/>
      <point x="198" y="433" type="curve" smooth="yes"/>
      <point x="198" y="-6" type="line" smooth="yes"/>
      <point x="198" y="-19"/>
      <point x="195" y="-29"/>
      <point x="190" y="-35" type="curve"/>
      <point x="178" y="-47"/>
      <point x="165" y="-52"/>
      <point x="145" y="-48" type="curve"/>
      <point x="145" y="-132" type="line"/>
      <point x="204" y="-135"/>
      <point x="242" y="-121"/>
      <point x="266" y="-100" type="curve" smooth="yes"/>
      <point x="290" y="-80"/>
      <point x="299" y="-50"/>
      <point x="299" y="-19" type="curve" smooth="yes"/>
    </contour>
  </outline>
</glyph>
<glyph name="Obreve" format="1">
  <advance width="354"/>
  <unicode hex="014E"/>
  <outline>
    <contour>
      <point x="288" y="871" type="line"/>
      <point x="271" y="854"/>
      <point x="251" y="840"/>
      <point x="224" y="831" type="curve" smooth="yes"/>
      <point x="211" y="826"/>
      <point x="195" y="824"/>
      <point x="178" y="824" type="curve" smooth="yes"/>
      <point x="143" y="824"/>
      <point x="116" y="835"/>
      <point x="97" y="847" type="curve" smooth="yes"/>
      <point x="86" y="854"/>
      <point x="76" y="862"/>
      <point x="68" y="871" type="curve"/>
      <point x="122" y="917" type="line"/>
      <point x="129" y="908"/>
      <point x="140" y="901"/>
      <point x="154" y="897" type="curve" smooth="yes"/>
      <point x="161" y="895"/>
      <point x="169" y="894"/>
      <point x="178" y="894" type="curve" smooth="yes"/>
      <point x="197" y="894"/>
      <point x="210" y="898"/>
      <point x="221" y="905" type="curve"/>
      <point x="227" y="908"/>
      <point x="232" y="912"/>
      <point x="236" y="917" type="curve"/>
    </contour>
    <contour>
      <point x="321" y="151" type="line"/>
      <point x="320" y="121"/>
      <point x="314" y="94"/>
      <point x="303" y="71" type="curve" smooth="yes"/>
      <point x="294" y="51"/>
      <point x="280" y="32"/>
      <point x="260" y="17" type="curve" smooth="yes"/>
      <point x="240" y="1"/>
      <point x="213" y="-8"/>
      <point x="177" y="-8" type="curve" smooth="yes"/>
      <point x="141" y="-8"/>
      <point x="113" y="1"/>
      <point x="93" y="17" type="curve" smooth="yes"/>
      <point x="73" y="32"/>
      <point x="60" y="51"/>
      <point x="51" y="71" type="curve" smooth="yes"/>
      <point x="40" y="94"/>
      <point x="34" y="121"/>
      <point x="33" y="151" type="curve" smooth="yes"/>
      <point x="33" y="584" type="line" smooth="yes"/>
      <point x="34" y="613"/>
      <point x="40" y="640"/>
      <point x="51" y="663" type="curve" smooth="yes"/>
      <point x="60" y="683"/>
      <point x="73" y="703"/>
      <point x="93" y="718" type="curve" smooth="yes"/>
      <point x="113" y="733"/>
      <point x="141" y="743"/>
      <point x="177" y="743" type="curve" smooth="yes"/>
      <point x="213" y="743"/>
      <point x="240" y="733"/>
      <point x="260" y="718" type="curve" smooth="yes"/>
      <point x="280" y="703"/>
      <point x="294" y="683"/>
      <point x="303" y="663" type="curve" smooth="yes"/>
      <point x="314" y="640"/>
      <point x="320" y="613"/>
      <point x="321" y="584" type="curve" smooth="yes"/>
    </contour>
    <contour>
      <point x="213" y="584" type="line" smooth="yes"/>
      <point x="213" y="604"/>
      <point x="209" y="618"/>
      <point x="199" y="630" type="curve"/>
      <point x="194" y="635"/>
      <point x="186" y="638"/>
      <point x="177" y="638" type="curve" smooth="yes"/>
      <point x="158" y="638"/>
      <point x="149" y="624"/>
      <point x="145" y="611" type="curve"/>
      <point x="142" y="603"/>
      <point x="141" y="594"/>
      <point x="141" y="584" type="curve" smooth="yes"/>
      <point x="141" y="151" type="line" smooth="yes"/>
      <point x="141" y="130"/>
      <point x="146" y="116"/>
      <point x="156" y="105" type="curve" smooth="yes"/>
      <point x="161" y="100"/>
      <point x="168" y="97"/>
      <point x="177" y="97" type="curve" smooth="yes"/>
      <point x="196" y="97"/>
      <point x="205" y="109"/>
      <point x="209" y="124" type="curve"/>
      <point x="212" y="131"/>
      <point x="213" y="140"/>
      <point x="213" y="151" type="curve" smooth="yes"/>
    </contour>
  </outline>
</glyph>
<glyph name="obreve" format="1">
  <advance width="321"/>
  <unicode hex="014F"/>
  <outline>
    <contour>
      <point x="290" y="133" type="line"/>
      <point x="287" y="80"/>
      <point x="271" y="43"/>
      <point x="236" y="14" type="curve" smooth="yes"/>
      <point x="218" y="-1"/>
      <point x="193" y="-8"/>
      <point x="160" y="-8" type="curve" smooth="yes"/>
      <point x="95" y="-8"/>
      <point x="63" y="28"/>
      <point x="47" y="64" type="curve" smooth="yes"/>
      <point x="38" y="85"/>
      <point x="32" y="109"/>
      <point x="31" y="136" type="curve"/>
      <point x="31" y="411" type="line"/>
      <point x="34" y="464"/>
      <point x="50" y="503"/>
      <point x="85" y="533" type="curve" smooth="yes"/>
      <point x="102" y="548"/>
      <point x="127" y="555"/>
      <point x="160" y="555" type="curve" smooth="yes"/>
      <point x="225" y="555"/>
      <point x="258" y="519"/>
      <point x="274" y="484" type="curve" smooth="yes"/>
      <point x="283" y="463"/>
      <point x="289" y="440"/>
      <point x="290" y="414" type="curve"/>
    </contour>
    <contour>
      <point x="195" y="411" type="line"/>
      <point x="196" y="432"/>
      <point x="192" y="447"/>
      <point x="182" y="459" type="curve"/>
      <point x="177" y="464"/>
      <point x="169" y="467"/>
      <point x="160" y="467" type="curve" smooth="yes"/>
      <point x="141" y="467"/>
      <point x="133" y="454"/>
      <point x="129" y="439" type="curve"/>
      <point x="126" y="431"/>
      <point x="125" y="422"/>
      <point x="126" y="411" type="curve"/>
      <point x="126" y="136" type="line"/>
      <point x="125" y="115"/>
      <point x="130" y="100"/>
      <point x="139" y="89" type="curve"/>
      <point x="144" y="84"/>
      <point x="151" y="81"/>
      <point x="160" y="81" type="curve" smooth="yes"/>
      <point x="179" y="81"/>
      <point x="188" y="93"/>
      <point x="192" y="108" type="curve"/>
      <point x="195" y="116"/>
      <point x="196" y="125"/>
      <point x="195" y="136" type="curve"/>
    </contour>
    <contour>
      <point x="272" y="683" type="line"/>
      <point x="255" y="666"/>
      <point x="235" y="652"/>
      <point x="208" y="643" type="curve"/>
      <point x="195" y="638"/>
      <point x="179" y="636"/>
      <point x="162" y="636" type="curve" smooth="yes"/>
      <point x="127" y="636"/>
      <point x="100" y="647"/>
      <point x="81" y="659" type="curve" smooth="yes"/>
      <point x="70" y="666"/>
      <point x="60" y="674"/>
      <point x="52" y="683" type="curve"/>
      <point x="106" y="729" type="line"/>
      <point x="113" y="720"/>
      <point x="124" y="713"/>
      <point x="138" y="709" type="curve" smooth="yes"/>
      <point x="145" y="707"/>
      <point x="153" y="706"/>
      <point x="162" y="706" type="curve" smooth="yes"/>
      <point x="181" y="706"/>
      <point x="194" y="710"/>
      <point x="205" y="717" type="curve"/>
      <point x="211" y="720"/>
      <point x="216" y="724"/>
      <point x="220" y="729" type="curve"/>
    </contour>
  </outline>
</glyph>
<glyph name="OE" format="1">
  <advance width="480"/>
  <unicode hex="0152"/>
  <outline>
    <contour>
      <point x="177" y="0" type="line" smooth="yes"/>
      <point x="141" y="0"/>
      <point x="113" y="10"/>
      <point x="93" y="24" type="curve" smooth="yes"/>
      <point x="73" y="38"/>
      <point x="60" y="56"/>
      <point x="51" y="75" type="curve" smooth="yes"/>
      <point x="40" y="97"/>
      <point x="34" y="122"/>
      <point x="33" y="151" type="curve" smooth="yes"/>
      <point x="33" y="584" type="line" smooth="yes"/>
      <point x="34" y="612"/>
      <point x="40" y="637"/>
      <point x="51" y="659" type="curve" smooth="yes"/>
      <point x="60" y="678"/>
      <point x="73" y="698"/>
      <point x="93" y="712" type="curve" smooth="yes"/>
      <point x="113" y="726"/>
      <point x="141" y="735"/>
      <point x="177" y="735" type="curve" smooth="yes"/>
      <point x="460" y="735" type="line"/>
      <point x="460" y="624" type="line"/>
      <point x="321" y="624" type="line"/>
      <point x="321" y="431" type="line"/>
      <point x="421" y="431" type="line"/>
      <point x="421" y="313" type="line"/>
      <point x="321" y="313" type="line"/>
      <point x="321" y="111" type="line"/>
      <point x="460" y="111" type="line"/>
      <point x="460" y="0" type="line"/>
    </contour>
    <contour>
      <point x="213" y="591" type="line" smooth="yes"/>
      <point x="213" y="598"/>
      <point x="211" y="610"/>
      <point x="206" y="620" type="curve" smooth="yes"/>
      <point x="201" y="630"/>
      <point x="192" y="638"/>
      <point x="177" y="638" type="curve" smooth="yes"/>
      <point x="158" y="638"/>
      <point x="149" y="624"/>
      <point x="145" y="611" type="curve"/>
      <point x="142" y="603"/>
      <point x="141" y="594"/>
      <point x="141" y="584" type="curve" smooth="yes"/>
      <point x="141" y="151" type="line" smooth="yes"/>
      <point x="141" y="130"/>
      <point x="146" y="116"/>
      <point x="156" y="105" type="curve" smooth="yes"/>
      <point x="161" y="100"/>
      <point x="168" y="97"/>
      <point x="177" y="97" type="curve" smooth="yes"/>
      <point x="196" y="97"/>
      <point x="205" y="109"/>
      <point x="209" y="124" type="curve"/>
      <point x="212" y="131"/>
      <point x="213" y="140"/>
      <point x="213" y="151" type="curve" smooth="yes"/>
    </contour>
  </outline>
</glyph>
<glyph name="oe" format="1">
  <advance width="486"/>
  <unicode hex="0153"/>
  <outline>
    <contour>
      <point x="457" y="196" type="line"/>
      <point x="457" y="133" type="line"/>
      <point x="454" y="80"/>
      <point x="438" y="43"/>
      <point x="402" y="14" type="curve" smooth="yes"/>
      <point x="384" y="-1"/>
      <point x="359" y="-8"/>
      <point x="326" y="-8" type="curve" smooth="yes"/>
      <point x="289" y="-8"/>
      <point x="262" y="3"/>
      <point x="243" y="20" type="curve"/>
      <point x="224" y="4"/>
      <point x="197" y="-8"/>
      <point x="160" y="-8" type="curve" smooth="yes"/>
      <point x="95" y="-8"/>
      <point x="63" y="28"/>
      <point x="47" y="64" type="curve" smooth="yes"/>
      <point x="38" y="85"/>
      <point x="32" y="109"/>
      <point x="31" y="136" type="curve"/>
      <point x="31" y="411" type="line"/>
      <point x="34" y="464"/>
      <point x="50" y="503"/>
      <point x="85" y="533" type="curve" smooth="yes"/>
      <point x="102" y="548"/>
      <point x="127" y="555"/>
      <point x="160" y="555" type="curve" smooth="yes"/>
      <point x="199" y="555"/>
      <point x="225" y="543"/>
      <point x="244" y="526" type="curve"/>
      <point x="263" y="543"/>
      <point x="288" y="555"/>
      <point x="327" y="555" type="curve" smooth="yes"/>
      <point x="392" y="555"/>
      <point x="425" y="519"/>
      <point x="441" y="484" type="curve" smooth="yes"/>
      <point x="450" y="463"/>
      <point x="456" y="440"/>
      <point x="457" y="414" type="curve"/>
      <point x="457" y="255" type="line"/>
      <point x="290" y="255" type="line"/>
      <point x="290" y="133" type="line" smooth="yes"/>
      <point x="290" y="129"/>
      <point x="291" y="116"/>
      <point x="296" y="104" type="curve" smooth="yes"/>
      <point x="301" y="92"/>
      <point x="311" y="81"/>
      <point x="327" y="81" type="curve" smooth="yes"/>
      <point x="346" y="81"/>
      <point x="355" y="93"/>
      <point x="359" y="108" type="curve"/>
      <point x="362" y="116"/>
      <point x="363" y="125"/>
      <point x="363" y="136" type="curve" smooth="yes"/>
      <point x="363" y="196" type="line"/>
    </contour>
    <contour>
      <point x="195" y="411" type="line"/>
      <point x="196" y="432"/>
      <point x="192" y="447"/>
      <point x="182" y="459" type="curve"/>
      <point x="177" y="464"/>
      <point x="169" y="467"/>
      <point x="160" y="467" type="curve" smooth="yes"/>
      <point x="141" y="467"/>
      <point x="133" y="454"/>
      <point x="129" y="439" type="curve"/>
      <point x="126" y="431"/>
      <point x="125" y="422"/>
      <point x="126" y="411" type="curve"/>
      <point x="126" y="136" type="line"/>
      <point x="125" y="115"/>
      <point x="130" y="100"/>
      <point x="139" y="89" type="curve"/>
      <point x="144" y="84"/>
      <point x="151" y="81"/>
      <point x="160" y="81" type="curve" smooth="yes"/>
      <point x="179" y="81"/>
      <point x="188" y="93"/>
      <point x="192" y="108" type="curve"/>
      <point x="195" y="116"/>
      <point x="196" y="125"/>
      <point x="195" y="136" type="curve"/>
    </contour>
    <contour>
      <point x="290" y="334" type="line"/>
      <point x="363" y="334" type="line"/>
      <point x="363" y="411" type="line" smooth="yes"/>
      <point x="363" y="432"/>
      <point x="359" y="447"/>
      <point x="349" y="459" type="curve"/>
      <point x="344" y="464"/>
      <point x="336" y="467"/>
      <point x="327" y="467" type="curve" smooth="yes"/>
      <point x="311" y="467"/>
      <point x="301" y="456"/>
      <point x="296" y="444" type="curve" smooth="yes"/>
      <point x="291" y="432"/>
      <point x="290" y="419"/>
      <point x="290" y="414" type="curve" smooth="yes"/>
    </contour>
    <contour>
      <point x="243" y="547" type="move" name="top"/>
    </contour>
  </outline>
</glyph>
<glyph name="Rcommaaccent" format="1">
  <advance width="361"/>
  <unicode hex="0156"/>
  <outline>
    <contour>
      <point x="233" y="0" type="line"/>
      <point x="177" y="310" type="line"/>
      <point x="148" y="310" type="line"/>
      <point x="148" y="0" type="line"/>
      <point x="40" y="0" type="line"/>
      <point x="40" y="735" type="line"/>
      <point x="148" y="735" type="line" smooth="yes"/>
      <point x="277" y="735"/>
      <point x="332" y="662"/>
      <point x="332" y="523" type="curve" smooth="yes"/>
      <point x="332" y="450"/>
      <point x="313" y="384"/>
      <point x="272" y="356" type="curve"/>
      <point x="341" y="0" type="line"/>
    </contour>
    <contour>
      <point x="228" y="571"/>
      <point x="215" y="599"/>
      <point x="199" y="613" type="curve" smooth="yes"/>
      <point x="183" y="627"/>
      <point x="163" y="628"/>
      <point x="148" y="628" type="curve"/>
      <point x="148" y="410" type="line"/>
      <point x="163" y="410"/>
      <point x="183" y="412"/>
      <point x="199" y="426" type="curve" smooth="yes"/>
      <point x="215" y="440"/>
      <point x="228" y="467"/>
      <point x="228" y="519" type="curve" smooth="yes"/>
    </contour>
    <contour>
      <point x="215" y="-123" type="line"/>
      <point x="193" y="-188" type="line"/>
      <point x="142" y="-188" type="line"/>
      <point x="162" y="-123" type="line"/>
      <point x="131" y="-123" type="line"/>
      <point x="131" y="-54" type="line"/>
      <point x="215" y="-54" type="line"/>
    </contour>
  </outline>
</glyph>
<glyph name="rcommaaccent" format="1">
  <advance width="246"/>
  <unicode hex="0157"/>
  <outline>
    <contour>
      <point x="242" y="443" type="line"/>
      <point x="233" y="446"/>
      <point x="223" y="447"/>
      <point x="214" y="447" type="curve" smooth="yes"/>
      <point x="198" y="447"/>
      <point x="179" y="445"/>
      <point x="163" y="430" type="curve"/>
      <point x="144" y="414"/>
      <point x="141" y="397"/>
      <point x="141" y="380" type="curve" smooth="yes"/>
      <point x="141" y="0" type="line"/>
      <point x="40" y="0" type="line"/>
      <point x="40" y="547" type="line"/>
      <point x="141" y="547" type="line"/>
      <point x="141" y="486" type="line"/>
      <point x="142" y="493"/>
      <point x="149" y="510"/>
      <point x="165" y="526" type="curve" smooth="yes"/>
      <point x="181" y="541"/>
      <point x="205" y="555"/>
      <point x="242" y="555" type="curve"/>
    </contour>
    <contour>
      <point x="133" y="-117" type="line"/>
      <point x="111" y="-182" type="line"/>
      <point x="60" y="-182" type="line"/>
      <point x="80" y="-117" type="line"/>
      <point x="49" y="-117" type="line"/>
      <point x="49" y="-48" type="line"/>
      <point x="133" y="-48" type="line"/>
    </contour>
  </outline>
</glyph>
<glyph name="Tcaron" format="1">
  <advance width="316"/>
  <unicode hex="0164"/>
  <outline>
    <contour>
      <point x="106" y="825" type="line"/>
      <point x="37" y="915" type="line"/>
      <point x="129" y="915" type="line"/>
      <point x="159" y="880" type="line"/>
      <point x="190" y="915" type="line"/>
      <point x="282" y="915" type="line"/>
      <point x="213" y="825" type="line"/>
    </contour>
    <contour>
      <point x="2" y="624" type="line"/>
      <point x="2" y="735" type="line"/>
      <point x="314" y="735" type="line"/>
      <point x="314" y="624" type="line"/>
      <point x="212" y="624" type="line"/>
      <point x="212" y="0" type="line"/>
      <point x="104" y="0" type="line"/>
      <point x="104" y="624" type="line"/>
    </contour>
  </outline>
</glyph>
